<?xml version="1.0" encoding="UTF-8" standalone="no"?>
<!-- Created with Inkscape (http://www.inkscape.org/) -->

<svg
   width="128"
   height="128"
   viewBox="0 0 33.866666 33.866666"
   version="1.1"
   id="svg1"
   xml:space="preserve"
   inkscape:version="1.4 (e7c3feb100, 2024-10-09)"
   sodipodi:docname="favicon.svg"
   xmlns:inkscape="http://www.inkscape.org/namespaces/inkscape"
   xmlns:sodipodi="http://sodipodi.sourceforge.net/DTD/sodipodi-0.dtd"
   xmlns="http://www.w3.org/2000/svg"
   xmlns:svg="http://www.w3.org/2000/svg"><sodipodi:namedview
     id="namedview1"
     pagecolor="#ffffff"
     bordercolor="#000000"
     borderopacity="0.25"
     inkscape:showpageshadow="2"
     inkscape:pageopacity="0.0"
     inkscape:pagecheckerboard="0"
     inkscape:deskcolor="#d1d1d1"
     inkscape:document-units="mm"
     inkscape:zoom="5.28"
     inkscape:cx="73.484849"
     inkscape:cy="66.287879"
     inkscape:window-width="1920"
     inkscape:window-height="1048"
     inkscape:window-x="1920"
     inkscape:window-y="0"
     inkscape:window-maximized="1"
     inkscape:current-layer="layer1" /><defs
     id="defs1" /><g
     inkscape:label="Layer 1"
     inkscape:groupmode="layer"
     id="layer1"><path
       d="M 31.12048,1.1697561 V 4.3223737 7.4752362 10.627854 H 27.967862 24.815 21.662382 18.509642 v 3.152738 h 3.15274 3.152618 3.152862 3.152618 v 3.152619 3.152863 3.152617 H 27.967862 24.815 v 3.152742 3.152616 h 3.152862 3.152618 v 3.152862 H 27.967862 24.815 21.662382 V 29.544049 26.391433 23.238691 20.086074 H 24.815 27.967862 V 16.933211 H 24.815 21.662382 18.509642 v 3.152863 3.152617 3.152742 3.152616 3.152862 H 15.357023 V 29.544049 26.391433 23.238691 20.086074 16.933211 H 12.204284 9.0515438 5.8989257 v 3.152863 h 3.1526181 3.1527402 v 3.152617 3.152742 3.152616 3.152862 H 9.0515438 5.8989257 2.7461869 V 29.544049 H 5.8989257 9.0515438 V 26.391433 23.238691 H 5.8989257 2.7461869 v -3.152617 -3.152863 -3.152619 h 3.1527388 3.1526181 3.1527402 3.152739 V 10.627854 H 12.204284 9.0515438 5.8989257 2.7461869 V 7.4752362 4.3223737 1.1697561 h 3.1527388 v 3.1526176 3.1528625 h 3.1526181 3.1527402 3.152739 V 4.3223737 1.1697561 h 3.152619 v 3.1526176 3.1528625 h 3.15274 3.152618 3.152862 V 4.3223737 1.1697561 Z"
       style="vector-effect:non-scaling-stroke;fill:#2675d2;fill-opacity:1;stroke:#2675d2;stroke-width:0.0627702;stroke-opacity:1;-inkscape-stroke:hairline"
       id="path2" /></g><style
     id="style1">
        path { fill: #000; }
        @media (prefers-color-scheme: dark) {
            path { fill: #FFF; }
        }
    </style><style
     type="text/css"
     id="style1-2">
g.prefab path {
  vector-effect:non-scaling-stroke;
  -inkscape-stroke:hairline;
  fill: none;
  fill-opacity: 1;
  stroke-opacity: 1;
  stroke: #00349c;
}
 </style></svg>
