<?xml version="1.0" encoding="UTF-8" standalone="no"?>
<svg
   width="452.0332"
   height="502.26172"
   viewBox="0 0 452.0332 502.26172"
   version="1.1"
   xml:space="preserve"
   id="SVGRoot"
   xmlns="http://www.w3.org/2000/svg"
   xmlns:svg="http://www.w3.org/2000/svg"><defs
   id="defs2" />
  
 <style
   type="text/css"
   id="style1">
g.prefab path {
  vector-effect:non-scaling-stroke;
  -inkscape-stroke:hairline;
  fill: none;
  fill-opacity: 1;
  stroke-opacity: 1;
  stroke: #00349c;
}
 </style>
 <path
   d="M -1.9877258e-6,-4.5052458e-6 V 50.224605 100.45313 150.67773 H 50.224608 h 50.228522 50.2246 50.22657 v 50.22656 H 150.67773 100.45313 50.224608 -1.9877258e-6 v 50.22461 50.22852 50.22462 H 50.224608 100.45313 v 50.22655 50.22461 H 50.224608 -1.9877258e-6 v 50.22851 H 50.224608 100.45313 150.67773 V 452.0332 401.80859 351.58204 301.35742 H 100.45313 50.224608 V 251.1289 h 50.228522 50.2246 50.22657 v 50.22852 50.22462 50.22655 50.22461 50.22851 h 50.22461 V 452.0332 401.80859 351.58204 301.35742 251.1289 h 50.22656 50.22656 50.22461 v 50.22852 h -50.22461 -50.22656 v 50.22462 50.22655 50.22461 50.22851 h 50.22656 50.22461 50.22656 V 452.0332 h -50.22656 -50.22461 v -50.22461 -50.22655 h 50.22461 50.22656 V 301.35742 251.1289 200.90429 h -50.22656 -50.22461 -50.22656 -50.22656 v -50.22656 h 50.22656 50.22656 50.22461 50.22656 V 100.45313 50.224605 -4.5052458e-6 H 401.80664 V 50.224605 100.45313 H 351.58203 301.35547 251.12891 V 50.224605 -4.5052458e-6 H 200.9043 V 50.224605 100.45313 H 150.67773 100.45313 50.224608 V 50.224605 -4.5052458e-6 Z"
   style="vector-effect:non-scaling-stroke;fill:#2675d2;fill-opacity:1;stroke:#2675d2;stroke-opacity:1;-inkscape-stroke:hairline"
   id="path2" />
</svg>
