<?xml version="1.0" encoding="UTF-8" standalone="no"?>
<!-- Created with Digital by H.Neemann -->
<!-- created: Sat May 17 08:58:04 CST 2025 -->

<svg
   xmlns:svg="http://www.w3.org/2000/svg"
   xmlns="http://www.w3.org/2000/svg"
   width="70.05mm"
   height="111.9mm"
   viewBox="1539 416 467 746">
<g stroke-linecap="square">
<path d="M 1580,840 L 1620,840 L 1620,780 L 1640,780" stroke="#0000b2" stroke-width="4.0" fill="none"/>
<path d="M 1700,840 L 1740,840 L 1740,1040 L 1840,1040" stroke="#0000b2" stroke-width="4.0" fill="none"/>
<path d="M 1800,920 L 1800,840 L 1840,840" stroke="#0000b2" stroke-width="4.0" fill="none"/>
<path d="M 1800,440 L 1800,520 L 1840,520" stroke="#0000b2" stroke-width="4.0" fill="none"/>
<path d="M 1580,780 L 1600,780 L 1600,760 L 1640,760" stroke="#0000b2" stroke-width="4.0" fill="none"/>
<path d="M 1700,780 L 1820,780 L 1820,800 L 1840,800" stroke="#0000b2" stroke-width="4.0" fill="none"/>
<path d="M 1920,780 L 1960,780" stroke="#0000b2" stroke-width="4.0" fill="none"/>
<path d="M 1920,1100 L 1960,1100" stroke="#0000b2" stroke-width="4.0" fill="none"/>
<path d="M 1580,720 L 1600,720 L 1600,740 L 1640,740" stroke="#0000b2" stroke-width="4.0" fill="none"/>
<path d="M 1700,720 L 1720,720 L 1720,560 L 1840,560" stroke="#0000b2" stroke-width="4.0" fill="none"/>
<path d="M 1580,660 L 1620,660 L 1620,720 L 1640,720" stroke="#0000b2" stroke-width="4.0" fill="none"/>
<path d="M 1800,520 L 1800,600 L 1840,600" stroke="#0000b2" stroke-width="4.0" fill="none"/>
<path d="M 1700,860 L 1720,860 L 1720,1120 L 1840,1120" stroke="#0000b2" stroke-width="4.0" fill="none"/>
<path d="M 1920,860 L 1960,860" stroke="#0000b2" stroke-width="4.0" fill="none"/>
<path d="M 1920,540 L 1960,540" stroke="#0000b2" stroke-width="4.0" fill="none"/>
<path d="M 1700,800 L 1780,800 L 1780,880 L 1840,880" stroke="#0000b2" stroke-width="4.0" fill="none"/>
<path d="M 1700,740 L 1740,740 L 1740,640 L 1840,640" stroke="#0000b2" stroke-width="4.0" fill="none"/>
<path d="M 1920,620 L 1960,620" stroke="#0000b2" stroke-width="4.0" fill="none"/>
<path d="M 1920,940 L 1960,940" stroke="#0000b2" stroke-width="4.0" fill="none"/>
<path d="M 1700,820 L 1760,820 L 1760,960 L 1840,960" stroke="#0000b2" stroke-width="4.0" fill="none"/>
<path d="M 1700,760 L 1760,760 L 1760,720 L 1840,720" stroke="#0000b2" stroke-width="4.0" fill="none"/>
<path d="M 1800,1160 L 1800,1080 L 1840,1080" stroke="#0000b2" stroke-width="4.0" fill="none"/>
<path d="M 1920,700 L 1960,700" stroke="#0000b2" stroke-width="4.0" fill="none"/>
<path d="M 1920,1020 L 1960,1020" stroke="#0000b2" stroke-width="4.0" fill="none"/>
<path d="M 1840,920 L 1800,920 L 1800,1000 L 1840,1000" stroke="#0000b2" stroke-width="4.0" fill="none"/>
<path d="M 1840,680 L 1800,680 L 1800,760 L 1840,760" stroke="#0000b2" stroke-width="4.0" fill="none"/>
<path d="M 1800,600 L 1800,680" stroke="#0000b2" stroke-width="4.0" fill="none"/>
<path d="M 1800,1000 L 1800,1080" stroke="#0000b2" stroke-width="4.0" fill="none"/>
<path d="M 1800,760 L 1800,840" stroke="#0000b2" stroke-width="4.0" fill="none"/>
<g>
<circle cx="1800.0" cy="840.0" r="4.0" stroke="#0000b2" stroke-width="4.0" fill="#0000b2" />
<circle cx="1800.0" cy="520.0" r="4.0" stroke="#0000b2" stroke-width="4.0" fill="#0000b2" />
<circle cx="1800.0" cy="600.0" r="4.0" stroke="#0000b2" stroke-width="4.0" fill="#0000b2" />
<circle cx="1800.0" cy="920.0" r="4.0" stroke="#0000b2" stroke-width="4.0" fill="#0000b2" />
<circle cx="1800.0" cy="680.0" r="4.0" stroke="#0000b2" stroke-width="4.0" fill="#0000b2" />
<circle cx="1800.0" cy="1000.0" r="4.0" stroke="#0000b2" stroke-width="4.0" fill="#0000b2" />
<circle cx="1800.0" cy="760.0" r="4.0" stroke="#0000b2" stroke-width="4.0" fill="#0000b2" />
<circle cx="1800.0" cy="1080.0" r="4.0" stroke="#0000b2" stroke-width="4.0" fill="#0000b2" />
</g>
<g>
<path d="M 1641,706 L 1699,706 L 1699,874 L 1641,874 Z" stroke="#ffffb4" stroke-width="0.0" fill="#ffffb4" fill-opacity="0.7843137254901961"/>
<path d="M 1641,706 L 1699,706 L 1699,874 L 1641,874 Z" stroke="#000000" stroke-width="4.0" fill="none"/>
<text text-anchor="start" x="1644.0" y="726.75" fill="#808080" style="font-size:18px">E</text>
<text text-anchor="start" x="1644.0" y="746.75" fill="#808080" style="font-size:18px">I<tspan style="font-size:80%;baseline-shift:sub;">2</tspan></text>
<text text-anchor="start" x="1644.0" y="766.75" fill="#808080" style="font-size:18px">I<tspan style="font-size:80%;baseline-shift:sub;">1</tspan></text>
<text text-anchor="start" x="1644.0" y="786.75" fill="#808080" style="font-size:18px">I<tspan style="font-size:80%;baseline-shift:sub;">0</tspan></text>
<text text-anchor="end" x="1696.0" y="726.75" fill="#808080" style="font-size:18px">O<tspan style="font-size:80%;baseline-shift:sub;">0</tspan></text>
<text text-anchor="end" x="1696.0" y="746.75" fill="#808080" style="font-size:18px">O<tspan style="font-size:80%;baseline-shift:sub;">1</tspan></text>
<text text-anchor="end" x="1696.0" y="766.75" fill="#808080" style="font-size:18px">O<tspan style="font-size:80%;baseline-shift:sub;">2</tspan></text>
<text text-anchor="end" x="1696.0" y="786.75" fill="#808080" style="font-size:18px">O<tspan style="font-size:80%;baseline-shift:sub;">3</tspan></text>
<text text-anchor="end" x="1696.0" y="806.75" fill="#808080" style="font-size:18px">O<tspan style="font-size:80%;baseline-shift:sub;">4</tspan></text>
<text text-anchor="end" x="1696.0" y="826.75" fill="#808080" style="font-size:18px">O<tspan style="font-size:80%;baseline-shift:sub;">5</tspan></text>
<text text-anchor="end" x="1696.0" y="846.75" fill="#808080" style="font-size:18px">O<tspan style="font-size:80%;baseline-shift:sub;">6</tspan></text>
<text text-anchor="end" x="1696.0" y="866.75" fill="#808080" style="font-size:18px">O<tspan style="font-size:80%;baseline-shift:sub;">7</tspan></text>
<text text-anchor="middle" x="1670.0" y="891.5" fill="#808080" style="font-size:18px">3to8decoder</text>
</g>
<g>
<path d="M 1890,730 L 1841,730 L 1841,670 L 1890,670 C 1900,670 1920,680 1919,700 C 1919,720 1900,730 1890,730 Z" stroke="#000000" stroke-width="4.0" fill="none"/>
</g>
<g>
<path d="M 1890,810 L 1841,810 L 1841,750 L 1890,750 C 1900,750 1920,760 1919,780 C 1919,800 1900,810 1890,810 Z" stroke="#000000" stroke-width="4.0" fill="none"/>
</g>
<g>
<path d="M 1890,890 L 1841,890 L 1841,830 L 1890,830 C 1900,830 1920,840 1919,860 C 1919,880 1900,890 1890,890 Z" stroke="#000000" stroke-width="4.0" fill="none"/>
</g>
<g>
<path d="M 1890,970 L 1841,970 L 1841,910 L 1890,910 C 1900,910 1920,920 1919,940 C 1919,960 1900,970 1890,970 Z" stroke="#000000" stroke-width="4.0" fill="none"/>
</g>
<g>
<path d="M 1890,1050 L 1841,1050 L 1841,990 L 1890,990 C 1900,990 1920,1000 1919,1020 C 1919,1040 1900,1050 1890,1050 Z" stroke="#000000" stroke-width="4.0" fill="none"/>
</g>
<g>
<path d="M 1890,650 L 1841,650 L 1841,590 L 1890,590 C 1900,590 1920,600 1919,620 C 1919,640 1900,650 1890,650 Z" stroke="#000000" stroke-width="4.0" fill="none"/>
</g>
<g>
<path d="M 1890,570 L 1841,570 L 1841,510 L 1890,510 C 1900,510 1920,520 1919,540 C 1919,560 1900,570 1890,570 Z" stroke="#000000" stroke-width="4.0" fill="none"/>
</g>
<g>
<path d="M 1890,1130 L 1841,1130 L 1841,1070 L 1890,1070 C 1900,1070 1920,1080 1919,1100 C 1919,1120 1900,1130 1890,1130 Z" stroke="#000000" stroke-width="4.0" fill="none"/>
</g>
<g>
<circle cx="1800.0" cy="436.0" r="4.0" stroke="#000000" stroke-width="4.0" fill="none" />
<text text-anchor="start" x="1800.0" y="435.0" fill="#000000" style="font-size:24px" transform="rotate(-90,1800.0,426.0)" ><tspan style="font-style:italic;">I</tspan></text>
</g>
<g>
<circle cx="1576.0" cy="840.0" r="4.0" stroke="#000000" stroke-width="4.0" fill="none" />
<text text-anchor="end" x="1566.0" y="849.0" fill="#000000" style="font-size:24px"><tspan style="font-style:italic;">S<tspan style="font-size:80%;baseline-shift:sub;">0</tspan></tspan></text>
</g>
<g>
<circle cx="1576.0" cy="780.0" r="4.0" stroke="#000000" stroke-width="4.0" fill="none" />
<text text-anchor="end" x="1566.0" y="789.0" fill="#000000" style="font-size:24px"><tspan style="font-style:italic;">S<tspan style="font-size:80%;baseline-shift:sub;">1</tspan></tspan></text>
</g>
<g>
<circle cx="1576.0" cy="720.0" r="4.0" stroke="#000000" stroke-width="4.0" fill="none" />
<text text-anchor="end" x="1566.0" y="729.0" fill="#000000" style="font-size:24px"><tspan style="font-style:italic;">S<tspan style="font-size:80%;baseline-shift:sub;">2</tspan></tspan></text>
</g>
<g>
<circle cx="1576.0" cy="660.0" r="4.0" stroke="#000000" stroke-width="4.0" fill="none" />
<text text-anchor="end" x="1566.0" y="669.0" fill="#000000" style="font-size:24px"><tspan style="font-style:italic;">E</tspan></text>
</g>
<g>
<circle cx="1964.0" cy="540.0" r="4.0" stroke="#000000" stroke-width="4.0" fill="none" />
<text text-anchor="start" x="1974.0" y="549.0" fill="#000000" style="font-size:24px"><tspan style="font-style:italic;">O<tspan style="font-size:80%;baseline-shift:sub;">0</tspan></tspan></text>
</g>
<g>
<circle cx="1964.0" cy="620.0" r="4.0" stroke="#000000" stroke-width="4.0" fill="none" />
<text text-anchor="start" x="1974.0" y="629.0" fill="#000000" style="font-size:24px"><tspan style="font-style:italic;">O<tspan style="font-size:80%;baseline-shift:sub;">1</tspan></tspan></text>
</g>
<g>
<circle cx="1964.0" cy="700.0" r="4.0" stroke="#000000" stroke-width="4.0" fill="none" />
<text text-anchor="start" x="1974.0" y="709.0" fill="#000000" style="font-size:24px"><tspan style="font-style:italic;">O<tspan style="font-size:80%;baseline-shift:sub;">2</tspan></tspan></text>
</g>
<g>
<circle cx="1964.0" cy="780.0" r="4.0" stroke="#000000" stroke-width="4.0" fill="none" />
<text text-anchor="start" x="1974.0" y="789.0" fill="#000000" style="font-size:24px"><tspan style="font-style:italic;">O<tspan style="font-size:80%;baseline-shift:sub;">3</tspan></tspan></text>
</g>
<g>
<circle cx="1964.0" cy="860.0" r="4.0" stroke="#000000" stroke-width="4.0" fill="none" />
<text text-anchor="start" x="1974.0" y="869.0" fill="#000000" style="font-size:24px"><tspan style="font-style:italic;">O<tspan style="font-size:80%;baseline-shift:sub;">4</tspan></tspan></text>
</g>
<g>
<circle cx="1964.0" cy="940.0" r="4.0" stroke="#000000" stroke-width="4.0" fill="none" />
<text text-anchor="start" x="1974.0" y="949.0" fill="#000000" style="font-size:24px"><tspan style="font-style:italic;">O<tspan style="font-size:80%;baseline-shift:sub;">5</tspan></tspan></text>
</g>
<g>
<circle cx="1964.0" cy="1020.0" r="4.0" stroke="#000000" stroke-width="4.0" fill="none" />
<text text-anchor="start" x="1974.0" y="1029.0" fill="#000000" style="font-size:24px"><tspan style="font-style:italic;">O<tspan style="font-size:80%;baseline-shift:sub;">6</tspan></tspan></text>
</g>
<g>
<circle cx="1964.0" cy="1100.0" r="4.0" stroke="#000000" stroke-width="4.0" fill="none" />
<text text-anchor="start" x="1974.0" y="1109.0" fill="#000000" style="font-size:24px"><tspan style="font-style:italic;">O<tspan style="font-size:80%;baseline-shift:sub;">7</tspan></tspan></text>
</g>
</g>
</svg>