<?xml version="1.0" encoding="UTF-8" standalone="no"?>
<!-- Created with Digital by H.Neemann -->
<!-- created: Thu May 15 08:47:55 CST 2025 -->

<svg
   xmlns:svg="http://www.w3.org/2000/svg"
   xmlns="http://www.w3.org/2000/svg"
   width="96.6mm"
   height="88.8mm"
   viewBox="-174 -130 644 592">
<g stroke-linecap="square">
<path d="M -140,-20 L -140,0 L 20,0" stroke="#0000b2" stroke-width="4.0" fill="none"/>
<path d="M 100,100 L 140,100 L 147,100" stroke="#0000b2" stroke-width="4.0" fill="none"/>
<path d="M 220,100 L 260,100 L 260,200 L 300,200 L 304,200" stroke="#0000b2" stroke-width="4.0" fill="none"/>
<path d="M -80,20 L -80,260 L 20,260" stroke="#0000b2" stroke-width="4.0" fill="none"/>
<path d="M 100,260 L 120,260 L 120,320 L 140,320 L 144,320" stroke="#0000b2" stroke-width="4.0" fill="none"/>
<path d="M -100,180 L -100,420 L 20,420" stroke="#0000b2" stroke-width="4.0" fill="none"/>
<path d="M 100,420 L 120,420 L 120,360 L 140,360 L 144,360" stroke="#0000b2" stroke-width="4.0" fill="none"/>
<path d="M -20,-20 L -20,40 L 20,40" stroke="#0000b2" stroke-width="4.0" fill="none"/>
<path d="M -160,-100 L -160,-80 L -140,-80 L -140,-60" stroke="#0000b2" stroke-width="4.0" fill="none"/>
<path d="M -40,-100 L -40,-80 L -20,-80 L -20,-60" stroke="#0000b2" stroke-width="4.0" fill="none"/>
<path d="M -100,-100 L -100,-80 L -80,-80 L -80,-60" stroke="#0000b2" stroke-width="4.0" fill="none"/>
<path d="M -160,-80 L -160,240 L 20,240" stroke="#0000b2" stroke-width="4.0" fill="none"/>
<path d="M 100,20 L 120,20 L 120,80 L 140,80 L 144,80" stroke="#0000b2" stroke-width="4.0" fill="none"/>
<path d="M -80,-20 L -80,20 L 20,20" stroke="#0000b2" stroke-width="4.0" fill="none"/>
<path d="M 100,180 L 120,180 L 120,120 L 140,120 L 144,120" stroke="#0000b2" stroke-width="4.0" fill="none"/>
<path d="M -80,260 L -80,340 L 20,340" stroke="#0000b2" stroke-width="4.0" fill="none"/>
<path d="M 100,340 L 140,340 L 147,340" stroke="#0000b2" stroke-width="4.0" fill="none"/>
<path d="M 220,340 L 260,340 L 260,240 L 300,240 L 304,240" stroke="#0000b2" stroke-width="4.0" fill="none"/>
<path d="M -20,40 L -20,120 L 20,120" stroke="#0000b2" stroke-width="4.0" fill="none"/>
<path d="M -20,440 L -20,280 L 20,280" stroke="#0000b2" stroke-width="4.0" fill="none"/>
<path d="M -20,460 L -20,440 L 20,440" stroke="#0000b2" stroke-width="4.0" fill="none"/>
<path d="M 380,220 L 440,220" stroke="#0000b2" stroke-width="4.0" fill="none"/>
<path d="M 20,100 L -100,100 L -100,180 L 20,180" stroke="#0000b2" stroke-width="4.0" fill="none"/>
<path d="M -100,-80 L -100,100" stroke="#0000b2" stroke-width="4.0" fill="none"/>
<path d="M -100,420 L -100,460" stroke="#0000b2" stroke-width="4.0" fill="none"/>
<path d="M -20,120 L -20,280" stroke="#0000b2" stroke-width="4.0" fill="none"/>
<path d="M 20,200 L -40,200 L -40,360 L 20,360" stroke="#0000b2" stroke-width="4.0" fill="none"/>
<path d="M -40,-80 L -40,200" stroke="#0000b2" stroke-width="4.0" fill="none"/>
<path d="M -40,360 L -40,460" stroke="#0000b2" stroke-width="4.0" fill="none"/>
<path d="M 20,160 L -140,160 L -140,80 L 20,80" stroke="#0000b2" stroke-width="4.0" fill="none"/>
<path d="M -140,160 L -140,460" stroke="#0000b2" stroke-width="4.0" fill="none"/>
<path d="M -140,0 L -140,80" stroke="#0000b2" stroke-width="4.0" fill="none"/>
<path d="M 20,320 L -160,320 L -160,400 L 20,400" stroke="#0000b2" stroke-width="4.0" fill="none"/>
<path d="M -160,400 L -160,460" stroke="#0000b2" stroke-width="4.0" fill="none"/>
<path d="M -160,240 L -160,320" stroke="#0000b2" stroke-width="4.0" fill="none"/>
<path d="M -80,340 L -80,460" stroke="#0000b2" stroke-width="4.0" fill="none"/>
<g>
<circle cx="-140.0" cy="0.0" r="4.0" stroke="#0000b2" stroke-width="4.0" fill="#0000b2" />
<circle cx="-140.0" cy="160.0" r="4.0" stroke="#0000b2" stroke-width="4.0" fill="#0000b2" />
<circle cx="-160.0" cy="320.0" r="4.0" stroke="#0000b2" stroke-width="4.0" fill="#0000b2" />
<circle cx="-100.0" cy="100.0" r="4.0" stroke="#0000b2" stroke-width="4.0" fill="#0000b2" />
<circle cx="-80.0" cy="260.0" r="4.0" stroke="#0000b2" stroke-width="4.0" fill="#0000b2" />
<circle cx="-100.0" cy="420.0" r="4.0" stroke="#0000b2" stroke-width="4.0" fill="#0000b2" />
<circle cx="-20.0" cy="40.0" r="4.0" stroke="#0000b2" stroke-width="4.0" fill="#0000b2" />
<circle cx="-40.0" cy="200.0" r="4.0" stroke="#0000b2" stroke-width="4.0" fill="#0000b2" />
<circle cx="-40.0" cy="360.0" r="4.0" stroke="#0000b2" stroke-width="4.0" fill="#0000b2" />
<circle cx="-160.0" cy="-80.0" r="4.0" stroke="#0000b2" stroke-width="4.0" fill="#0000b2" />
<circle cx="-40.0" cy="-80.0" r="4.0" stroke="#0000b2" stroke-width="4.0" fill="#0000b2" />
<circle cx="-100.0" cy="-80.0" r="4.0" stroke="#0000b2" stroke-width="4.0" fill="#0000b2" />
<circle cx="-160.0" cy="240.0" r="4.0" stroke="#0000b2" stroke-width="4.0" fill="#0000b2" />
<circle cx="-140.0" cy="80.0" r="4.0" stroke="#0000b2" stroke-width="4.0" fill="#0000b2" />
<circle cx="-160.0" cy="400.0" r="4.0" stroke="#0000b2" stroke-width="4.0" fill="#0000b2" />
<circle cx="-80.0" cy="20.0" r="4.0" stroke="#0000b2" stroke-width="4.0" fill="#0000b2" />
<circle cx="-100.0" cy="180.0" r="4.0" stroke="#0000b2" stroke-width="4.0" fill="#0000b2" />
<circle cx="-80.0" cy="340.0" r="4.0" stroke="#0000b2" stroke-width="4.0" fill="#0000b2" />
<circle cx="-20.0" cy="120.0" r="4.0" stroke="#0000b2" stroke-width="4.0" fill="#0000b2" />
<circle cx="-20.0" cy="280.0" r="4.0" stroke="#0000b2" stroke-width="4.0" fill="#0000b2" />
<circle cx="-20.0" cy="440.0" r="4.0" stroke="#0000b2" stroke-width="4.0" fill="#0000b2" />
</g>
<g>
<circle cx="444.0" cy="220.0" r="4.0" stroke="#000000" stroke-width="4.0" fill="none" />
<text text-anchor="start" x="454.0" y="229.0" fill="#000000" style="font-size:24px"><tspan style="font-style:italic;">q</tspan></text>
</g>
<g>
<path d="M 170,130 L 140,130 C 150,114 150,86 140,70 L 160,70 C 190,70 210,80 220,100 C 210,120 190,130 170,130 Z" stroke="#000000" stroke-width="4.0" fill="none"/>
</g>
<g>
<path d="M 70,50 L 21,50 L 21,-10 L 70,-10 C 80,-10 100,0 99,20 C 99,40 80,50 70,50 Z" stroke="#000000" stroke-width="4.0" fill="none"/>
</g>
<g>
<path d="M 70,130 L 21,130 L 21,70 L 70,70 C 80,70 100,80 99,100 C 99,120 80,130 70,130 Z" stroke="#000000" stroke-width="4.0" fill="none"/>
</g>
<g>
<circle cx="-160.0" cy="-104.0" r="4.0" stroke="#000000" stroke-width="4.0" fill="none" />
<text text-anchor="start" x="-160.0" y="-105.0" fill="#000000" style="font-size:24px" transform="rotate(-90,-160.0,-114.0)" ><tspan style="font-style:italic;">a</tspan></text>
</g>
<g>
<path d="M -128,-59 L -140,-41 L -152,-59 Z" stroke="#000000" stroke-width="4.0" fill="none"/>
<circle cx="-140.0" cy="-30.0" r="9.0" stroke="#000000" stroke-width="4.0" fill="none" />
</g>
<g>
<circle cx="-100.0" cy="-104.0" r="4.0" stroke="#000000" stroke-width="4.0" fill="none" />
<text text-anchor="start" x="-100.0" y="-105.0" fill="#000000" style="font-size:24px" transform="rotate(-90,-100.0,-114.0)" ><tspan style="font-style:italic;">b</tspan></text>
</g>
<g>
<circle cx="-40.0" cy="-104.0" r="4.0" stroke="#000000" stroke-width="4.0" fill="none" />
<text text-anchor="start" x="-40.0" y="-105.0" fill="#000000" style="font-size:24px" transform="rotate(-90,-40.0,-114.0)" ><tspan style="font-style:italic;">c</tspan></text>
</g>
<g>
<path d="M -8,-59 L -20,-41 L -32,-59 Z" stroke="#000000" stroke-width="4.0" fill="none"/>
<circle cx="-20.0" cy="-30.0" r="9.0" stroke="#000000" stroke-width="4.0" fill="none" />
</g>
<g>
<path d="M -68,-59 L -80,-41 L -92,-59 Z" stroke="#000000" stroke-width="4.0" fill="none"/>
<circle cx="-80.0" cy="-30.0" r="9.0" stroke="#000000" stroke-width="4.0" fill="none" />
</g>
<g>
<path d="M 70,210 L 21,210 L 21,150 L 70,150 C 80,150 100,160 99,180 C 99,200 80,210 70,210 Z" stroke="#000000" stroke-width="4.0" fill="none"/>
</g>
<g>
<path d="M 70,290 L 21,290 L 21,230 L 70,230 C 80,230 100,240 99,260 C 99,280 80,290 70,290 Z" stroke="#000000" stroke-width="4.0" fill="none"/>
</g>
<g>
<path d="M 70,370 L 21,370 L 21,310 L 70,310 C 80,310 100,320 99,340 C 99,360 80,370 70,370 Z" stroke="#000000" stroke-width="4.0" fill="none"/>
</g>
<g>
<path d="M 70,450 L 21,450 L 21,390 L 70,390 C 80,390 100,400 99,420 C 99,440 80,450 70,450 Z" stroke="#000000" stroke-width="4.0" fill="none"/>
</g>
<g>
<path d="M 170,370 L 140,370 C 150,354 150,326 140,310 L 160,310 C 190,310 210,320 220,340 C 210,360 190,370 170,370 Z" stroke="#000000" stroke-width="4.0" fill="none"/>
</g>
<g>
<path d="M 330,250 L 300,250 C 310,234 310,206 300,190 L 320,190 C 350,190 370,200 380,220 C 370,240 350,250 330,250 Z" stroke="#000000" stroke-width="4.0" fill="none"/>
</g>
</g>
</svg>