<?xml version="1.0" encoding="UTF-8" standalone="no"?>
<!-- Created with Digital by H.Neemann -->
<!-- created: Thu May 15 07:46:14 CST 2025 -->

<svg
   xmlns:svg="http://www.w3.org/2000/svg"
   xmlns="http://www.w3.org/2000/svg"
   width="66.6mm"
   height="40.8mm"
   viewBox="-174 -130 444 272">
<g stroke-linecap="square">
<path d="M -140,-20 L -140,0 L 20,0" stroke="#0000b2" stroke-width="4.0" fill="none"/>
<path d="M -160,140 L -160,80 L 20,80" stroke="#0000b2" stroke-width="4.0" fill="none"/>
<path d="M -100,-100 L -100,20 L 20,20" stroke="#0000b2" stroke-width="4.0" fill="none"/>
<path d="M 100,20 L 120,20 L 120,40 L 140,40 L 144,40" stroke="#0000b2" stroke-width="4.0" fill="none"/>
<path d="M 100,100 L 120,100 L 120,80 L 140,80 L 144,80" stroke="#0000b2" stroke-width="4.0" fill="none"/>
<path d="M -20,-20 L -20,40 L 20,40" stroke="#0000b2" stroke-width="4.0" fill="none"/>
<path d="M -40,140 L -40,120 L 20,120" stroke="#0000b2" stroke-width="4.0" fill="none"/>
<path d="M 220,60 L 240,60" stroke="#0000b2" stroke-width="4.0" fill="none"/>
<path d="M -160,-100 L -160,-80 L -140,-80 L -140,-60" stroke="#0000b2" stroke-width="4.0" fill="none"/>
<path d="M -40,-100 L -40,-80 L -20,-80 L -20,-60" stroke="#0000b2" stroke-width="4.0" fill="none"/>
<path d="M -100,20 L -100,140" stroke="#0000b2" stroke-width="4.0" fill="none"/>
<path d="M -20,40 L -20,140" stroke="#0000b2" stroke-width="4.0" fill="none"/>
<path d="M -40,-80 L -40,120" stroke="#0000b2" stroke-width="4.0" fill="none"/>
<path d="M -140,0 L -140,140" stroke="#0000b2" stroke-width="4.0" fill="none"/>
<path d="M -160,-80 L -160,80" stroke="#0000b2" stroke-width="4.0" fill="none"/>
<g>
<circle cx="-140.0" cy="0.0" r="4.0" stroke="#0000b2" stroke-width="4.0" fill="#0000b2" />
<circle cx="-160.0" cy="80.0" r="4.0" stroke="#0000b2" stroke-width="4.0" fill="#0000b2" />
<circle cx="-100.0" cy="20.0" r="4.0" stroke="#0000b2" stroke-width="4.0" fill="#0000b2" />
<circle cx="-20.0" cy="40.0" r="4.0" stroke="#0000b2" stroke-width="4.0" fill="#0000b2" />
<circle cx="-40.0" cy="120.0" r="4.0" stroke="#0000b2" stroke-width="4.0" fill="#0000b2" />
<circle cx="-160.0" cy="-80.0" r="4.0" stroke="#0000b2" stroke-width="4.0" fill="#0000b2" />
<circle cx="-40.0" cy="-80.0" r="4.0" stroke="#0000b2" stroke-width="4.0" fill="#0000b2" />
</g>
<g>
<circle cx="244.0" cy="60.0" r="4.0" stroke="#000000" stroke-width="4.0" fill="none" />
<text text-anchor="start" x="254.0" y="69.0" fill="#000000" style="font-size:24px"><tspan style="font-style:italic;">q</tspan></text>
</g>
<g>
<path d="M 170,90 L 140,90 C 150,74 150,46 140,30 L 160,30 C 190,30 210,40 220,60 C 210,80 190,90 170,90 Z" stroke="#000000" stroke-width="4.0" fill="none"/>
</g>
<g>
<path d="M 70,50 L 21,50 L 21,-10 L 70,-10 C 80,-10 100,0 99,20 C 99,40 80,50 70,50 Z" stroke="#000000" stroke-width="4.0" fill="none"/>
</g>
<g>
<path d="M 70,130 L 21,130 L 21,70 L 70,70 C 80,70 100,80 99,100 C 99,120 80,130 70,130 Z" stroke="#000000" stroke-width="4.0" fill="none"/>
</g>
<g>
<circle cx="-160.0" cy="-104.0" r="4.0" stroke="#000000" stroke-width="4.0" fill="none" />
<text text-anchor="start" x="-160.0" y="-105.0" fill="#000000" style="font-size:24px" transform="rotate(-90,-160.0,-114.0)" ><tspan style="font-style:italic;">a</tspan></text>
</g>
<g>
<path d="M -128,-59 L -140,-41 L -152,-59 Z" stroke="#000000" stroke-width="4.0" fill="none"/>
<circle cx="-140.0" cy="-30.0" r="9.0" stroke="#000000" stroke-width="4.0" fill="none" />
</g>
<g>
<circle cx="-100.0" cy="-104.0" r="4.0" stroke="#000000" stroke-width="4.0" fill="none" />
<text text-anchor="start" x="-100.0" y="-105.0" fill="#000000" style="font-size:24px" transform="rotate(-90,-100.0,-114.0)" ><tspan style="font-style:italic;">b</tspan></text>
</g>
<g>
<circle cx="-40.0" cy="-104.0" r="4.0" stroke="#000000" stroke-width="4.0" fill="none" />
<text text-anchor="start" x="-40.0" y="-105.0" fill="#000000" style="font-size:24px" transform="rotate(-90,-40.0,-114.0)" ><tspan style="font-style:italic;">c</tspan></text>
</g>
<g>
<path d="M -8,-59 L -20,-41 L -32,-59 Z" stroke="#000000" stroke-width="4.0" fill="none"/>
<circle cx="-20.0" cy="-30.0" r="9.0" stroke="#000000" stroke-width="4.0" fill="none" />
</g>
</g>
</svg>