<?xml version="1.0" encoding="UTF-8" standalone="no"?>
<!-- Created with Digital by H.Neemann -->
<!-- created: Thu May 15 09:22:29 CST 2025 -->

<svg
   xmlns:svg="http://www.w3.org/2000/svg"
   xmlns="http://www.w3.org/2000/svg"
   width="81.6mm"
   height="52.8mm"
   viewBox="-174 -130 544 352">
<g stroke-linecap="square">
<path d="M -140,-20 L -140,80 L 20,80 L 24,80" stroke="#0000b2" stroke-width="4.0" fill="none"/>
<path d="M -160,220 L -160,0 L 20,0 L 24,0" stroke="#0000b2" stroke-width="4.0" fill="none"/>
<path d="M -140,220 L -140,160 L 20,160 L 24,160" stroke="#0000b2" stroke-width="4.0" fill="none"/>
<path d="M -80,-20 L -80,20 L 20,20 L 27,20" stroke="#0000b2" stroke-width="4.0" fill="none"/>
<path d="M 100,20 L 140,20 L 140,80 L 180,80" stroke="#0000b2" stroke-width="4.0" fill="none"/>
<path d="M -100,-80 L -100,100 L 20,100 L 27,100" stroke="#0000b2" stroke-width="4.0" fill="none"/>
<path d="M 280,100 L 340,100" stroke="#0000b2" stroke-width="4.0" fill="none"/>
<path d="M 100,100 L 180,100" stroke="#0000b2" stroke-width="4.0" fill="none"/>
<path d="M -80,20 L -80,180 L 20,180 L 27,180" stroke="#0000b2" stroke-width="4.0" fill="none"/>
<path d="M 100,180 L 140,180 L 140,120 L 180,120" stroke="#0000b2" stroke-width="4.0" fill="none"/>
<path d="M -40,-80 L -40,40 L 20,40 L 24,40" stroke="#0000b2" stroke-width="4.0" fill="none"/>
<path d="M -20,-20 L -20,120 L 20,120 L 24,120" stroke="#0000b2" stroke-width="4.0" fill="none"/>
<path d="M -20,220 L -20,200 L 20,200 L 24,200" stroke="#0000b2" stroke-width="4.0" fill="none"/>
<path d="M -160,-100 L -160,-80 L -140,-80 L -140,-60" stroke="#0000b2" stroke-width="4.0" fill="none"/>
<path d="M -40,-100 L -40,-80 L -20,-80 L -20,-60" stroke="#0000b2" stroke-width="4.0" fill="none"/>
<path d="M -100,-100 L -100,-80 L -80,-80 L -80,-60" stroke="#0000b2" stroke-width="4.0" fill="none"/>
<path d="M -100,100 L -100,220" stroke="#0000b2" stroke-width="4.0" fill="none"/>
<path d="M -20,120 L -20,200" stroke="#0000b2" stroke-width="4.0" fill="none"/>
<path d="M -40,40 L -40,220" stroke="#0000b2" stroke-width="4.0" fill="none"/>
<path d="M -140,80 L -140,160" stroke="#0000b2" stroke-width="4.0" fill="none"/>
<path d="M -160,-80 L -160,0" stroke="#0000b2" stroke-width="4.0" fill="none"/>
<path d="M -80,180 L -80,220" stroke="#0000b2" stroke-width="4.0" fill="none"/>
<g>
<circle cx="-140.0" cy="80.0" r="4.0" stroke="#0000b2" stroke-width="4.0" fill="#0000b2" />
<circle cx="-160.0" cy="0.0" r="4.0" stroke="#0000b2" stroke-width="4.0" fill="#0000b2" />
<circle cx="-140.0" cy="160.0" r="4.0" stroke="#0000b2" stroke-width="4.0" fill="#0000b2" />
<circle cx="-80.0" cy="20.0" r="4.0" stroke="#0000b2" stroke-width="4.0" fill="#0000b2" />
<circle cx="-100.0" cy="100.0" r="4.0" stroke="#0000b2" stroke-width="4.0" fill="#0000b2" />
<circle cx="-80.0" cy="180.0" r="4.0" stroke="#0000b2" stroke-width="4.0" fill="#0000b2" />
<circle cx="-40.0" cy="40.0" r="4.0" stroke="#0000b2" stroke-width="4.0" fill="#0000b2" />
<circle cx="-20.0" cy="120.0" r="4.0" stroke="#0000b2" stroke-width="4.0" fill="#0000b2" />
<circle cx="-20.0" cy="200.0" r="4.0" stroke="#0000b2" stroke-width="4.0" fill="#0000b2" />
<circle cx="-160.0" cy="-80.0" r="4.0" stroke="#0000b2" stroke-width="4.0" fill="#0000b2" />
<circle cx="-40.0" cy="-80.0" r="4.0" stroke="#0000b2" stroke-width="4.0" fill="#0000b2" />
<circle cx="-100.0" cy="-80.0" r="4.0" stroke="#0000b2" stroke-width="4.0" fill="#0000b2" />
</g>
<g>
<circle cx="344.0" cy="100.0" r="4.0" stroke="#000000" stroke-width="4.0" fill="none" />
<text text-anchor="start" x="354.0" y="109.0" fill="#000000" style="font-size:24px"><tspan style="font-style:italic;">q</tspan></text>
</g>
<g>
<path d="M 50,130 L 20,130 C 30,114 30,86 20,70 L 40,70 C 70,70 90,80 100,100 C 90,120 70,130 50,130 Z" stroke="#000000" stroke-width="4.0" fill="none"/>
</g>
<g>
<circle cx="-160.0" cy="-104.0" r="4.0" stroke="#000000" stroke-width="4.0" fill="none" />
<text text-anchor="start" x="-160.0" y="-105.0" fill="#000000" style="font-size:24px" transform="rotate(-90,-160.0,-114.0)" ><tspan style="font-style:italic;">a</tspan></text>
</g>
<g>
<path d="M -128,-59 L -140,-41 L -152,-59 Z" stroke="#000000" stroke-width="4.0" fill="none"/>
<circle cx="-140.0" cy="-30.0" r="9.0" stroke="#000000" stroke-width="4.0" fill="none" />
</g>
<g>
<circle cx="-100.0" cy="-104.0" r="4.0" stroke="#000000" stroke-width="4.0" fill="none" />
<text text-anchor="start" x="-100.0" y="-105.0" fill="#000000" style="font-size:24px" transform="rotate(-90,-100.0,-114.0)" ><tspan style="font-style:italic;">b</tspan></text>
</g>
<g>
<circle cx="-40.0" cy="-104.0" r="4.0" stroke="#000000" stroke-width="4.0" fill="none" />
<text text-anchor="start" x="-40.0" y="-105.0" fill="#000000" style="font-size:24px" transform="rotate(-90,-40.0,-114.0)" ><tspan style="font-style:italic;">c</tspan></text>
</g>
<g>
<path d="M -8,-59 L -20,-41 L -32,-59 Z" stroke="#000000" stroke-width="4.0" fill="none"/>
<circle cx="-20.0" cy="-30.0" r="9.0" stroke="#000000" stroke-width="4.0" fill="none" />
</g>
<g>
<path d="M -68,-59 L -80,-41 L -92,-59 Z" stroke="#000000" stroke-width="4.0" fill="none"/>
<circle cx="-80.0" cy="-30.0" r="9.0" stroke="#000000" stroke-width="4.0" fill="none" />
</g>
<g>
<path d="M 50,50 L 20,50 C 30,34 30,6 20,-10 L 40,-10 C 70,-10 90,0 100,20 C 90,40 70,50 50,50 Z" stroke="#000000" stroke-width="4.0" fill="none"/>
</g>
<g>
<path d="M 50,210 L 20,210 C 30,194 30,166 20,150 L 40,150 C 70,150 90,160 100,180 C 90,200 70,210 50,210 Z" stroke="#000000" stroke-width="4.0" fill="none"/>
</g>
<g>
<path d="M 230,130 L 181,130 L 181,70 L 230,70 C 240,70 260,80 259,100 C 259,120 240,130 230,130 Z" stroke="#000000" stroke-width="4.0" fill="none"/>
<circle cx="270.0" cy="100.0" r="9.0" stroke="#000000" stroke-width="4.0" fill="none" />
</g>
</g>
</svg>