<?xml version="1.0" encoding="UTF-8" standalone="no"?>
<!-- Created with Digital by H.Neemann -->
<!-- created: Thu May 15 09:05:09 CST 2025 -->

<svg
   xmlns:svg="http://www.w3.org/2000/svg"
   xmlns="http://www.w3.org/2000/svg"
   width="78.6mm"
   height="40.8mm"
   viewBox="-174 -130 524 272">
<g stroke-linecap="square">
<path d="M -140,-20 L -140,0 L 20,0 L 24,0" stroke="#0000b2" stroke-width="4.0" fill="none"/>
<path d="M -160,140 L -160,80 L 20,80 L 24,80" stroke="#0000b2" stroke-width="4.0" fill="none"/>
<path d="M -80,-20 L -80,20 L 20,20 L 27,20" stroke="#0000b2" stroke-width="4.0" fill="none"/>
<path d="M 100,20 L 140,20 L 140,40 L 180,40" stroke="#0000b2" stroke-width="4.0" fill="none"/>
<path d="M -100,-80 L -100,100 L 20,100 L 27,100" stroke="#0000b2" stroke-width="4.0" fill="none"/>
<path d="M 100,100 L 140,100 L 140,80 L 180,80" stroke="#0000b2" stroke-width="4.0" fill="none"/>
<path d="M -20,-20 L -20,40 L 20,40 L 24,40" stroke="#0000b2" stroke-width="4.0" fill="none"/>
<path d="M -20,40 L -20,120 L 20,120 L 24,120" stroke="#0000b2" stroke-width="4.0" fill="none"/>
<path d="M 260,60 L 320,60" stroke="#0000b2" stroke-width="4.0" fill="none"/>
<path d="M -160,-100 L -160,-80 L -140,-80 L -140,-60" stroke="#0000b2" stroke-width="4.0" fill="none"/>
<path d="M -40,-100 L -40,-80 L -20,-80 L -20,-60" stroke="#0000b2" stroke-width="4.0" fill="none"/>
<path d="M -100,-100 L -100,-80 L -80,-80 L -80,-60" stroke="#0000b2" stroke-width="4.0" fill="none"/>
<path d="M -100,100 L -100,140" stroke="#0000b2" stroke-width="4.0" fill="none"/>
<path d="M -20,120 L -20,140" stroke="#0000b2" stroke-width="4.0" fill="none"/>
<path d="M -140,0 L -140,140" stroke="#0000b2" stroke-width="4.0" fill="none"/>
<path d="M -160,-80 L -160,80" stroke="#0000b2" stroke-width="4.0" fill="none"/>
<path d="M -80,20 L -80,140" stroke="#0000b2" stroke-width="4.0" fill="none"/>
<g>
<circle cx="-140.0" cy="0.0" r="4.0" stroke="#0000b2" stroke-width="4.0" fill="#0000b2" />
<circle cx="-160.0" cy="80.0" r="4.0" stroke="#0000b2" stroke-width="4.0" fill="#0000b2" />
<circle cx="-80.0" cy="20.0" r="4.0" stroke="#0000b2" stroke-width="4.0" fill="#0000b2" />
<circle cx="-100.0" cy="100.0" r="4.0" stroke="#0000b2" stroke-width="4.0" fill="#0000b2" />
<circle cx="-20.0" cy="40.0" r="4.0" stroke="#0000b2" stroke-width="4.0" fill="#0000b2" />
<circle cx="-20.0" cy="120.0" r="4.0" stroke="#0000b2" stroke-width="4.0" fill="#0000b2" />
<circle cx="-160.0" cy="-80.0" r="4.0" stroke="#0000b2" stroke-width="4.0" fill="#0000b2" />
<circle cx="-100.0" cy="-80.0" r="4.0" stroke="#0000b2" stroke-width="4.0" fill="#0000b2" />
</g>
<g>
<circle cx="324.0" cy="60.0" r="4.0" stroke="#000000" stroke-width="4.0" fill="none" />
<text text-anchor="start" x="334.0" y="69.0" fill="#000000" style="font-size:24px"><tspan style="font-style:italic;">q</tspan></text>
</g>
<g>
<path d="M 50,130 L 20,130 C 30,114 30,86 20,70 L 40,70 C 70,70 90,80 100,100 C 90,120 70,130 50,130 Z" stroke="#000000" stroke-width="4.0" fill="none"/>
</g>
<g>
<path d="M 230,90 L 181,90 L 181,30 L 230,30 C 240,30 260,40 259,60 C 259,80 240,90 230,90 Z" stroke="#000000" stroke-width="4.0" fill="none"/>
</g>
<g>
<circle cx="-160.0" cy="-104.0" r="4.0" stroke="#000000" stroke-width="4.0" fill="none" />
<text text-anchor="start" x="-160.0" y="-105.0" fill="#000000" style="font-size:24px" transform="rotate(-90,-160.0,-114.0)" ><tspan style="font-style:italic;">a</tspan></text>
</g>
<g>
<path d="M -128,-59 L -140,-41 L -152,-59 Z" stroke="#000000" stroke-width="4.0" fill="none"/>
<circle cx="-140.0" cy="-30.0" r="9.0" stroke="#000000" stroke-width="4.0" fill="none" />
</g>
<g>
<circle cx="-100.0" cy="-104.0" r="4.0" stroke="#000000" stroke-width="4.0" fill="none" />
<text text-anchor="start" x="-100.0" y="-105.0" fill="#000000" style="font-size:24px" transform="rotate(-90,-100.0,-114.0)" ><tspan style="font-style:italic;">b</tspan></text>
</g>
<g>
<circle cx="-40.0" cy="-104.0" r="4.0" stroke="#000000" stroke-width="4.0" fill="none" />
<text text-anchor="start" x="-40.0" y="-105.0" fill="#000000" style="font-size:24px" transform="rotate(-90,-40.0,-114.0)" ><tspan style="font-style:italic;">c</tspan></text>
</g>
<g>
<path d="M -8,-59 L -20,-41 L -32,-59 Z" stroke="#000000" stroke-width="4.0" fill="none"/>
<circle cx="-20.0" cy="-30.0" r="9.0" stroke="#000000" stroke-width="4.0" fill="none" />
</g>
<g>
<path d="M -68,-59 L -80,-41 L -92,-59 Z" stroke="#000000" stroke-width="4.0" fill="none"/>
<circle cx="-80.0" cy="-30.0" r="9.0" stroke="#000000" stroke-width="4.0" fill="none" />
</g>
<g>
<path d="M 50,50 L 20,50 C 30,34 30,6 20,-10 L 40,-10 C 70,-10 90,0 100,20 C 90,40 70,50 50,50 Z" stroke="#000000" stroke-width="4.0" fill="none"/>
</g>
</g>
</svg>