<?xml version="1.0" encoding="UTF-8" standalone="no"?>
<!-- Created with Digital by H.Neemann -->
<!-- created: Fri May 16 08:28:15 CST 2025 -->

<svg
   xmlns:svg="http://www.w3.org/2000/svg"
   xmlns="http://www.w3.org/2000/svg"
   width="157.8mm"
   height="240.0mm"
   viewBox="190 126 1052 1600">
<g stroke-linecap="square">
<path d="M 260,860 L 260,960 L 360,960 L 364,960" stroke="#0000b2" stroke-width="4.0" fill="none"/>
<path d="M 440,640 L 660,640 L 800,640 L 1240,640" stroke="#0000b2" stroke-width="4.0" fill="none"/>
<path d="M 300,1000 L 300,900 L 360,900" stroke="#0000b2" stroke-width="4.0" fill="none"/>
<path d="M 440,260 L 1040,260 L 1160,260 L 1240,260" stroke="#0000b2" stroke-width="4.0" fill="none"/>
<path d="M 240,520 L 300,520 L 360,520 L 364,520" stroke="#0000b2" stroke-width="4.0" fill="none"/>
<path d="M 240,140 L 260,140 L 360,140" stroke="#0000b2" stroke-width="4.0" fill="none"/>
<path d="M 260,620 L 260,720 L 360,720 L 364,720" stroke="#0000b2" stroke-width="4.0" fill="none"/>
<path d="M 440,400 L 860,400 L 1000,400 L 1240,400" stroke="#0000b2" stroke-width="4.0" fill="none"/>
<path d="M 300,760 L 300,660 L 360,660" stroke="#0000b2" stroke-width="4.0" fill="none"/>
<path d="M 440,980 L 460,980 L 560,980 L 1240,980" stroke="#0000b2" stroke-width="4.0" fill="none"/>
<path d="M 240,280 L 300,280 L 360,280 L 364,280" stroke="#0000b2" stroke-width="4.0" fill="none"/>
<path d="M 240,860 L 260,860 L 360,860" stroke="#0000b2" stroke-width="4.0" fill="none"/>
<path d="M 260,380 L 260,480 L 360,480 L 364,480" stroke="#0000b2" stroke-width="4.0" fill="none"/>
<path d="M 440,160 L 1060,160 L 1200,160 L 1240,160" stroke="#0000b2" stroke-width="4.0" fill="none"/>
<path d="M 240,1120 L 440,1120 L 520,1120 L 1240,1120" stroke="#0000b2" stroke-width="4.0" fill="none"/>
<path d="M 580,1420 L 580,1440 L 680,1440 L 680,1180 L 720,1180 L 720,1200" stroke="#0000b2" stroke-width="4.0" fill="none"/>
<path d="M 780,1420 L 780,1440 L 880,1440 L 880,1180 L 920,1180 L 920,1200" stroke="#0000b2" stroke-width="4.0" fill="none"/>
<path d="M 980,1420 L 980,1440 L 1080,1440 L 1080,1180 L 1120,1180 L 1120,1200" stroke="#0000b2" stroke-width="4.0" fill="none"/>
<path d="M 300,520 L 300,420 L 360,420" stroke="#0000b2" stroke-width="4.0" fill="none"/>
<path d="M 440,740 L 640,740 L 760,740 L 1240,740" stroke="#0000b2" stroke-width="4.0" fill="none"/>
<path d="M 240,1000 L 300,1000 L 360,1000 L 364,1000" stroke="#0000b2" stroke-width="4.0" fill="none"/>
<path d="M 540,1280 L 540,1320 L 560,1320 L 560,1340 L 560,1344" stroke="#0000b2" stroke-width="4.0" fill="none"/>
<path d="M 740,1280 L 740,1320 L 760,1320 L 760,1340 L 760,1344" stroke="#0000b2" stroke-width="4.0" fill="none"/>
<path d="M 940,1280 L 940,1320 L 960,1320 L 960,1340 L 960,1344" stroke="#0000b2" stroke-width="4.0" fill="none"/>
<path d="M 1140,1280 L 1140,1320 L 1160,1320 L 1160,1340 L 1160,1344" stroke="#0000b2" stroke-width="4.0" fill="none"/>
<path d="M 240,620 L 260,620 L 360,620" stroke="#0000b2" stroke-width="4.0" fill="none"/>
<path d="M 260,140 L 260,240 L 360,240 L 364,240" stroke="#0000b2" stroke-width="4.0" fill="none"/>
<path d="M 440,880 L 480,880 L 600,880 L 1240,880" stroke="#0000b2" stroke-width="4.0" fill="none"/>
<path d="M 300,280 L 300,180 L 360,180" stroke="#0000b2" stroke-width="4.0" fill="none"/>
<path d="M 440,500 L 840,500 L 960,500 L 1240,500" stroke="#0000b2" stroke-width="4.0" fill="none"/>
<path d="M 240,760 L 300,760 L 360,760 L 364,760" stroke="#0000b2" stroke-width="4.0" fill="none"/>
<path d="M 240,380 L 260,380 L 360,380" stroke="#0000b2" stroke-width="4.0" fill="none"/>
<path d="M 640,740 L 640,1460 L 640,1474" stroke="#0000b2" stroke-width="4.0" fill="none"/>
<path d="M 960,500 L 960,1200" stroke="#0000b2" stroke-width="4.0" fill="none"/>
<path d="M 520,1120 L 520,1200" stroke="#0000b2" stroke-width="4.0" fill="none"/>
<path d="M 840,500 L 840,1460 L 840,1474" stroke="#0000b2" stroke-width="4.0" fill="none"/>
<path d="M 1160,260 L 1160,1200" stroke="#0000b2" stroke-width="4.0" fill="none"/>
<path d="M 460,980 L 460,1460 L 460,1477" stroke="#0000b2" stroke-width="4.0" fill="none"/>
<path d="M 460,1540 L 460,1660" stroke="#0000b2" stroke-width="4.0" fill="none"/>
<path d="M 1040,260 L 1040,1460 L 1040,1474" stroke="#0000b2" stroke-width="4.0" fill="none"/>
<path d="M 660,640 L 660,1460 L 660,1477" stroke="#0000b2" stroke-width="4.0" fill="none"/>
<path d="M 660,1540 L 660,1660" stroke="#0000b2" stroke-width="4.0" fill="none"/>
<path d="M 600,880 L 600,1340 L 600,1344" stroke="#0000b2" stroke-width="4.0" fill="none"/>
<path d="M 860,400 L 860,1460 L 860,1477" stroke="#0000b2" stroke-width="4.0" fill="none"/>
<path d="M 860,1540 L 860,1660" stroke="#0000b2" stroke-width="4.0" fill="none"/>
<path d="M 1180,1420 L 1180,1660" stroke="#0000b2" stroke-width="4.0" fill="none"/>
<path d="M 480,880 L 480,1460 L 480,1474" stroke="#0000b2" stroke-width="4.0" fill="none"/>
<path d="M 800,640 L 800,1340 L 800,1344" stroke="#0000b2" stroke-width="4.0" fill="none"/>
<path d="M 1060,160 L 1060,1460 L 1060,1477" stroke="#0000b2" stroke-width="4.0" fill="none"/>
<path d="M 1060,1540 L 1060,1660" stroke="#0000b2" stroke-width="4.0" fill="none"/>
<path d="M 680,1440 L 680,1460 L 680,1474" stroke="#0000b2" stroke-width="4.0" fill="none"/>
<path d="M 1000,400 L 1000,1340 L 1000,1344" stroke="#0000b2" stroke-width="4.0" fill="none"/>
<path d="M 560,980 L 560,1200" stroke="#0000b2" stroke-width="4.0" fill="none"/>
<path d="M 880,1440 L 880,1460 L 880,1474" stroke="#0000b2" stroke-width="4.0" fill="none"/>
<path d="M 1200,160 L 1200,1340 L 1200,1344" stroke="#0000b2" stroke-width="4.0" fill="none"/>
<path d="M 440,1120 L 440,1460 L 440,1474" stroke="#0000b2" stroke-width="4.0" fill="none"/>
<path d="M 760,740 L 760,1200" stroke="#0000b2" stroke-width="4.0" fill="none"/>
<path d="M 1080,1440 L 1080,1460 L 1080,1474" stroke="#0000b2" stroke-width="4.0" fill="none"/>
<g>
<circle cx="660.0" cy="640.0" r="4.0" stroke="#0000b2" stroke-width="4.0" fill="#0000b2" />
<circle cx="800.0" cy="640.0" r="4.0" stroke="#0000b2" stroke-width="4.0" fill="#0000b2" />
<circle cx="1040.0" cy="260.0" r="4.0" stroke="#0000b2" stroke-width="4.0" fill="#0000b2" />
<circle cx="1160.0" cy="260.0" r="4.0" stroke="#0000b2" stroke-width="4.0" fill="#0000b2" />
<circle cx="300.0" cy="520.0" r="4.0" stroke="#0000b2" stroke-width="4.0" fill="#0000b2" />
<circle cx="260.0" cy="140.0" r="4.0" stroke="#0000b2" stroke-width="4.0" fill="#0000b2" />
<circle cx="860.0" cy="400.0" r="4.0" stroke="#0000b2" stroke-width="4.0" fill="#0000b2" />
<circle cx="1000.0" cy="400.0" r="4.0" stroke="#0000b2" stroke-width="4.0" fill="#0000b2" />
<circle cx="460.0" cy="980.0" r="4.0" stroke="#0000b2" stroke-width="4.0" fill="#0000b2" />
<circle cx="560.0" cy="980.0" r="4.0" stroke="#0000b2" stroke-width="4.0" fill="#0000b2" />
<circle cx="300.0" cy="280.0" r="4.0" stroke="#0000b2" stroke-width="4.0" fill="#0000b2" />
<circle cx="260.0" cy="860.0" r="4.0" stroke="#0000b2" stroke-width="4.0" fill="#0000b2" />
<circle cx="1060.0" cy="160.0" r="4.0" stroke="#0000b2" stroke-width="4.0" fill="#0000b2" />
<circle cx="1200.0" cy="160.0" r="4.0" stroke="#0000b2" stroke-width="4.0" fill="#0000b2" />
<circle cx="440.0" cy="1120.0" r="4.0" stroke="#0000b2" stroke-width="4.0" fill="#0000b2" />
<circle cx="520.0" cy="1120.0" r="4.0" stroke="#0000b2" stroke-width="4.0" fill="#0000b2" />
<circle cx="680.0" cy="1440.0" r="4.0" stroke="#0000b2" stroke-width="4.0" fill="#0000b2" />
<circle cx="880.0" cy="1440.0" r="4.0" stroke="#0000b2" stroke-width="4.0" fill="#0000b2" />
<circle cx="1080.0" cy="1440.0" r="4.0" stroke="#0000b2" stroke-width="4.0" fill="#0000b2" />
<circle cx="640.0" cy="740.0" r="4.0" stroke="#0000b2" stroke-width="4.0" fill="#0000b2" />
<circle cx="760.0" cy="740.0" r="4.0" stroke="#0000b2" stroke-width="4.0" fill="#0000b2" />
<circle cx="300.0" cy="1000.0" r="4.0" stroke="#0000b2" stroke-width="4.0" fill="#0000b2" />
<circle cx="260.0" cy="620.0" r="4.0" stroke="#0000b2" stroke-width="4.0" fill="#0000b2" />
<circle cx="480.0" cy="880.0" r="4.0" stroke="#0000b2" stroke-width="4.0" fill="#0000b2" />
<circle cx="600.0" cy="880.0" r="4.0" stroke="#0000b2" stroke-width="4.0" fill="#0000b2" />
<circle cx="840.0" cy="500.0" r="4.0" stroke="#0000b2" stroke-width="4.0" fill="#0000b2" />
<circle cx="960.0" cy="500.0" r="4.0" stroke="#0000b2" stroke-width="4.0" fill="#0000b2" />
<circle cx="300.0" cy="760.0" r="4.0" stroke="#0000b2" stroke-width="4.0" fill="#0000b2" />
<circle cx="260.0" cy="380.0" r="4.0" stroke="#0000b2" stroke-width="4.0" fill="#0000b2" />
</g>
<g>
<path d="M 410,190 L 361,190 L 361,130 L 410,130 C 420,130 440,140 439,160 C 439,180 420,190 410,190 Z" stroke="#000000" stroke-width="4.0" fill="none"/>
</g>
<g>
<path d="M 390,290 L 360,290 C 370,274 370,246 360,230 L 380,230 C 410,230 430,240 440,260 C 430,280 410,290 390,290 Z" stroke="#000000" stroke-width="4.0" fill="none"/>
</g>
<g>
<path d="M 410,430 L 361,430 L 361,370 L 410,370 C 420,370 440,380 439,400 C 439,420 420,430 410,430 Z" stroke="#000000" stroke-width="4.0" fill="none"/>
</g>
<g>
<path d="M 390,530 L 360,530 C 370,514 370,486 360,470 L 380,470 C 410,470 430,480 440,500 C 430,520 410,530 390,530 Z" stroke="#000000" stroke-width="4.0" fill="none"/>
</g>
<g>
<path d="M 410,670 L 361,670 L 361,610 L 410,610 C 420,610 440,620 439,640 C 439,660 420,670 410,670 Z" stroke="#000000" stroke-width="4.0" fill="none"/>
</g>
<g>
<path d="M 390,770 L 360,770 C 370,754 370,726 360,710 L 380,710 C 410,710 430,720 440,740 C 430,760 410,770 390,770 Z" stroke="#000000" stroke-width="4.0" fill="none"/>
</g>
<g>
<path d="M 410,910 L 361,910 L 361,850 L 410,850 C 420,850 440,860 439,880 C 439,900 420,910 410,910 Z" stroke="#000000" stroke-width="4.0" fill="none"/>
</g>
<g>
<path d="M 390,1010 L 360,1010 C 370,994 370,966 360,950 L 380,950 C 410,950 430,960 440,980 C 430,1000 410,1010 390,1010 Z" stroke="#000000" stroke-width="4.0" fill="none"/>
</g>
<g>
<circle cx="236.0" cy="140.0" r="4.0" stroke="#000000" stroke-width="4.0" fill="none" />
<text text-anchor="end" x="226.0" y="149.0" fill="#000000" style="font-size:24px"><tspan style="font-style:italic;">A<tspan style="font-size:80%;baseline-shift:sub;">3</tspan></tspan></text>
</g>
<g>
<circle cx="236.0" cy="280.0" r="4.0" stroke="#000000" stroke-width="4.0" fill="none" />
<text text-anchor="end" x="226.0" y="289.0" fill="#000000" style="font-size:24px"><tspan style="font-style:italic;">B<tspan style="font-size:80%;baseline-shift:sub;">3</tspan></tspan></text>
</g>
<g>
<circle cx="236.0" cy="380.0" r="4.0" stroke="#000000" stroke-width="4.0" fill="none" />
<text text-anchor="end" x="226.0" y="389.0" fill="#000000" style="font-size:24px"><tspan style="font-style:italic;">A<tspan style="font-size:80%;baseline-shift:sub;">2</tspan></tspan></text>
</g>
<g>
<circle cx="236.0" cy="520.0" r="4.0" stroke="#000000" stroke-width="4.0" fill="none" />
<text text-anchor="end" x="226.0" y="529.0" fill="#000000" style="font-size:24px"><tspan style="font-style:italic;">B<tspan style="font-size:80%;baseline-shift:sub;">2</tspan></tspan></text>
</g>
<g>
<circle cx="236.0" cy="620.0" r="4.0" stroke="#000000" stroke-width="4.0" fill="none" />
<text text-anchor="end" x="226.0" y="629.0" fill="#000000" style="font-size:24px"><tspan style="font-style:italic;">A<tspan style="font-size:80%;baseline-shift:sub;">1</tspan></tspan></text>
</g>
<g>
<circle cx="236.0" cy="760.0" r="4.0" stroke="#000000" stroke-width="4.0" fill="none" />
<text text-anchor="end" x="226.0" y="769.0" fill="#000000" style="font-size:24px"><tspan style="font-style:italic;">B<tspan style="font-size:80%;baseline-shift:sub;">1</tspan></tspan></text>
</g>
<g>
<circle cx="236.0" cy="860.0" r="4.0" stroke="#000000" stroke-width="4.0" fill="none" />
<text text-anchor="end" x="226.0" y="869.0" fill="#000000" style="font-size:24px"><tspan style="font-style:italic;">A<tspan style="font-size:80%;baseline-shift:sub;">0</tspan></tspan></text>
</g>
<g>
<circle cx="236.0" cy="1000.0" r="4.0" stroke="#000000" stroke-width="4.0" fill="none" />
<text text-anchor="end" x="226.0" y="1009.0" fill="#000000" style="font-size:24px"><tspan style="font-style:italic;">B<tspan style="font-size:80%;baseline-shift:sub;">0</tspan></tspan></text>
</g>
<g>
<circle cx="236.0" cy="1120.0" r="4.0" stroke="#000000" stroke-width="4.0" fill="none" />
<text text-anchor="end" x="226.0" y="1129.0" fill="#000000" style="font-size:24px"><tspan style="font-style:italic;">C<tspan style="font-size:80%;baseline-shift:sub;">in</tspan></tspan></text>
</g>
<g>
<path d="M 430,1490 L 430,1470 C 446,1480 474,1480 490,1470 L 490,1490 C 490,1510 480,1530 460,1540 C 440,1530 430,1510 430,1490 Z" stroke="#000000" stroke-width="4.0" fill="none"/>
<path d="M 430,1460 C 440,1470 480,1470 490,1460" stroke="#000000" stroke-width="4.0" fill="none"/>
</g>
<g>
<path d="M 510,1250 L 510,1201 L 570,1201 L 570,1250 C 570,1260 560,1280 540,1279 C 520,1279 510,1260 510,1250 Z" stroke="#000000" stroke-width="4.0" fill="none"/>
</g>
<g>
<path d="M 550,1370 L 550,1340 C 566,1350 594,1350 610,1340 L 610,1360 C 610,1390 600,1410 580,1420 C 560,1410 550,1390 550,1370 Z" stroke="#000000" stroke-width="4.0" fill="none"/>
</g>
<g>
<path d="M 710,1250 L 710,1201 L 770,1201 L 770,1250 C 770,1260 760,1280 740,1279 C 720,1279 710,1260 710,1250 Z" stroke="#000000" stroke-width="4.0" fill="none"/>
</g>
<g>
<path d="M 630,1490 L 630,1470 C 646,1480 674,1480 690,1470 L 690,1490 C 690,1510 680,1530 660,1540 C 640,1530 630,1510 630,1490 Z" stroke="#000000" stroke-width="4.0" fill="none"/>
<path d="M 630,1460 C 640,1470 680,1470 690,1460" stroke="#000000" stroke-width="4.0" fill="none"/>
</g>
<g>
<path d="M 750,1370 L 750,1340 C 766,1350 794,1350 810,1340 L 810,1360 C 810,1390 800,1410 780,1420 C 760,1410 750,1390 750,1370 Z" stroke="#000000" stroke-width="4.0" fill="none"/>
</g>
<g>
<path d="M 830,1490 L 830,1470 C 846,1480 874,1480 890,1470 L 890,1490 C 890,1510 880,1530 860,1540 C 840,1530 830,1510 830,1490 Z" stroke="#000000" stroke-width="4.0" fill="none"/>
<path d="M 830,1460 C 840,1470 880,1470 890,1460" stroke="#000000" stroke-width="4.0" fill="none"/>
</g>
<g>
<path d="M 910,1250 L 910,1201 L 970,1201 L 970,1250 C 970,1260 960,1280 940,1279 C 920,1279 910,1260 910,1250 Z" stroke="#000000" stroke-width="4.0" fill="none"/>
</g>
<g>
<path d="M 950,1370 L 950,1340 C 966,1350 994,1350 1010,1340 L 1010,1360 C 1010,1390 1000,1410 980,1420 C 960,1410 950,1390 950,1370 Z" stroke="#000000" stroke-width="4.0" fill="none"/>
</g>
<g>
<path d="M 1030,1490 L 1030,1470 C 1046,1480 1074,1480 1090,1470 L 1090,1490 C 1090,1510 1080,1530 1060,1540 C 1040,1530 1030,1510 1030,1490 Z" stroke="#000000" stroke-width="4.0" fill="none"/>
<path d="M 1030,1460 C 1040,1470 1080,1470 1090,1460" stroke="#000000" stroke-width="4.0" fill="none"/>
</g>
<g>
<path d="M 1110,1250 L 1110,1201 L 1170,1201 L 1170,1250 C 1170,1260 1160,1280 1140,1279 C 1120,1279 1110,1260 1110,1250 Z" stroke="#000000" stroke-width="4.0" fill="none"/>
</g>
<g>
<path d="M 1150,1370 L 1150,1340 C 1166,1350 1194,1350 1210,1340 L 1210,1360 C 1210,1390 1200,1410 1180,1420 C 1160,1410 1150,1390 1150,1370 Z" stroke="#000000" stroke-width="4.0" fill="none"/>
</g>
<g>
<circle cx="460.0" cy="1664.0" r="4.0" stroke="#000000" stroke-width="4.0" fill="none" />
<text text-anchor="end" x="460.0" y="1683.0" fill="#000000" style="font-size:24px" transform="rotate(-90,460.0,1674.0)" ><tspan style="font-style:italic;">S<tspan style="font-size:80%;baseline-shift:sub;">0</tspan></tspan></text>
</g>
<g>
<circle cx="660.0" cy="1664.0" r="4.0" stroke="#000000" stroke-width="4.0" fill="none" />
<text text-anchor="end" x="660.0" y="1683.0" fill="#000000" style="font-size:24px" transform="rotate(-90,660.0,1674.0)" ><tspan style="font-style:italic;">S<tspan style="font-size:80%;baseline-shift:sub;">1</tspan></tspan></text>
</g>
<g>
<circle cx="860.0" cy="1664.0" r="4.0" stroke="#000000" stroke-width="4.0" fill="none" />
<text text-anchor="end" x="860.0" y="1683.0" fill="#000000" style="font-size:24px" transform="rotate(-90,860.0,1674.0)" ><tspan style="font-style:italic;">S<tspan style="font-size:80%;baseline-shift:sub;">2</tspan></tspan></text>
</g>
<g>
<circle cx="1060.0" cy="1664.0" r="4.0" stroke="#000000" stroke-width="4.0" fill="none" />
<text text-anchor="end" x="1060.0" y="1683.0" fill="#000000" style="font-size:24px" transform="rotate(-90,1060.0,1674.0)" ><tspan style="font-style:italic;">S<tspan style="font-size:80%;baseline-shift:sub;">3</tspan></tspan></text>
</g>
<g>
<circle cx="1180.0" cy="1664.0" r="4.0" stroke="#000000" stroke-width="4.0" fill="none" />
<text text-anchor="end" x="1180.0" y="1683.0" fill="#000000" style="font-size:24px" transform="rotate(-90,1180.0,1674.0)" ><tspan style="font-style:italic;">C<tspan style="font-size:80%;baseline-shift:sub;">out</tspan></tspan></text>
</g>
</g>
</svg>