<?xml version="1.0" encoding="UTF-8" standalone="no"?>
<!-- Created with Digital by H.Neemann -->
<!-- created: Fri May 16 08:56:44 CST 2025 -->

<svg
   xmlns:svg="http://www.w3.org/2000/svg"
   xmlns="http://www.w3.org/2000/svg"
   width="178.65mm"
   height="105.15mm"
   viewBox="223 -39 1191 701">
<g stroke-linecap="square">
<path d="M 560,320 L 580,320 L 580,80 L 700,80" stroke="#0000b2" stroke-width="4.0" fill="none"/>
<path d="M 640,40 L 640,100 L 700,100" stroke="#0000b2" stroke-width="4.0" fill="none"/>
<path d="M 760,100 L 840,100 L 840,20" stroke="#0000b2" stroke-width="4.0" fill="none"/>
<path d="M 760,260 L 1000,260 L 1000,20" stroke="#0000b2" stroke-width="4.0" fill="none"/>
<path d="M 760,420 L 1160,420 L 1160,20" stroke="#0000b2" stroke-width="4.0" fill="none"/>
<path d="M 760,580 L 1320,580 L 1320,20" stroke="#0000b2" stroke-width="4.0" fill="none"/>
<path d="M 560,360 L 620,360 L 620,400 L 700,400" stroke="#0000b2" stroke-width="4.0" fill="none"/>
<path d="M 260,200 L 440,200 L 440,320 L 500,320" stroke="#0000b2" stroke-width="4.0" fill="none"/>
<path d="M 260,460 L 600,460 L 600,440" stroke="#0000b2" stroke-width="4.0" fill="none"/>
<path d="M 760,460 L 1240,460 L 1240,20" stroke="#0000b2" stroke-width="4.0" fill="none"/>
<path d="M 260,300 L 360,300 L 360,360 L 500,360" stroke="#0000b2" stroke-width="4.0" fill="none"/>
<path d="M 760,300 L 1080,300 L 1080,20" stroke="#0000b2" stroke-width="4.0" fill="none"/>
<path d="M 760,140 L 920,140 L 920,20" stroke="#0000b2" stroke-width="4.0" fill="none"/>
<path d="M 760,620 L 1400,620 L 1400,20" stroke="#0000b2" stroke-width="4.0" fill="none"/>
<path d="M 760,80 L 800,80 L 800,20" stroke="#0000b2" stroke-width="4.0" fill="none"/>
<path d="M 760,240 L 960,240 L 960,20" stroke="#0000b2" stroke-width="4.0" fill="none"/>
<path d="M 760,400 L 1120,400 L 1120,20" stroke="#0000b2" stroke-width="4.0" fill="none"/>
<path d="M 760,560 L 1280,560 L 1280,20" stroke="#0000b2" stroke-width="4.0" fill="none"/>
<path d="M 560,340 L 620,340 L 620,240 L 700,240" stroke="#0000b2" stroke-width="4.0" fill="none"/>
<path d="M 600,40 L 600,120 L 700,120" stroke="#0000b2" stroke-width="4.0" fill="none"/>
<path d="M 760,120 L 880,120 L 880,20" stroke="#0000b2" stroke-width="4.0" fill="none"/>
<path d="M 600,120 L 600,280 L 700,280" stroke="#0000b2" stroke-width="4.0" fill="none"/>
<path d="M 760,280 L 1040,280 L 1040,20" stroke="#0000b2" stroke-width="4.0" fill="none"/>
<path d="M 600,280 L 600,440 L 700,440" stroke="#0000b2" stroke-width="4.0" fill="none"/>
<path d="M 760,440 L 1200,440 L 1200,20" stroke="#0000b2" stroke-width="4.0" fill="none"/>
<path d="M 600,660 L 600,600 L 700,600" stroke="#0000b2" stroke-width="4.0" fill="none"/>
<path d="M 760,600 L 1360,600 L 1360,20" stroke="#0000b2" stroke-width="4.0" fill="none"/>
<path d="M 260,540 L 640,540 L 640,580 L 700,580" stroke="#0000b2" stroke-width="4.0" fill="none"/>
<path d="M 260,380 L 400,380 L 400,340 L 500,340" stroke="#0000b2" stroke-width="4.0" fill="none"/>
<path d="M 560,380 L 580,380 L 580,560 L 700,560" stroke="#0000b2" stroke-width="4.0" fill="none"/>
<path d="M 700,260 L 640,260 L 640,420 L 700,420" stroke="#0000b2" stroke-width="4.0" fill="none"/>
<path d="M 640,420 L 640,540" stroke="#0000b2" stroke-width="4.0" fill="none"/>
<path d="M 640,580 L 640,660" stroke="#0000b2" stroke-width="4.0" fill="none"/>
<path d="M 640,100 L 640,260" stroke="#0000b2" stroke-width="4.0" fill="none"/>
<path d="M 600,460 L 600,600" stroke="#0000b2" stroke-width="4.0" fill="none"/>
<g>
<circle cx="640.0" cy="100.0" r="4.0" stroke="#0000b2" stroke-width="4.0" fill="#0000b2" />
<circle cx="640.0" cy="260.0" r="4.0" stroke="#0000b2" stroke-width="4.0" fill="#0000b2" />
<circle cx="640.0" cy="420.0" r="4.0" stroke="#0000b2" stroke-width="4.0" fill="#0000b2" />
<circle cx="640.0" cy="580.0" r="4.0" stroke="#0000b2" stroke-width="4.0" fill="#0000b2" />
<circle cx="600.0" cy="460.0" r="4.0" stroke="#0000b2" stroke-width="4.0" fill="#0000b2" />
<circle cx="600.0" cy="120.0" r="4.0" stroke="#0000b2" stroke-width="4.0" fill="#0000b2" />
<circle cx="600.0" cy="280.0" r="4.0" stroke="#0000b2" stroke-width="4.0" fill="#0000b2" />
<circle cx="600.0" cy="440.0" r="4.0" stroke="#0000b2" stroke-width="4.0" fill="#0000b2" />
<circle cx="600.0" cy="600.0" r="4.0" stroke="#0000b2" stroke-width="4.0" fill="#0000b2" />
<circle cx="640.0" cy="540.0" r="4.0" stroke="#0000b2" stroke-width="4.0" fill="#0000b2" />
</g>
<g>
<circle cx="256.0" cy="300.0" r="4.0" stroke="#000000" stroke-width="4.0" fill="none" />
<text text-anchor="end" x="246.0" y="309.0" fill="#000000" style="font-size:24px"><tspan style="font-style:italic;">I<tspan style="font-size:80%;baseline-shift:sub;">3</tspan></tspan></text>
</g>
<g>
<circle cx="256.0" cy="380.0" r="4.0" stroke="#000000" stroke-width="4.0" fill="none" />
<text text-anchor="end" x="246.0" y="389.0" fill="#000000" style="font-size:24px"><tspan style="font-style:italic;">I<tspan style="font-size:80%;baseline-shift:sub;">2</tspan></tspan></text>
</g>
<g>
<circle cx="256.0" cy="460.0" r="4.0" stroke="#000000" stroke-width="4.0" fill="none" />
<text text-anchor="end" x="246.0" y="469.0" fill="#000000" style="font-size:24px"><tspan style="font-style:italic;">I<tspan style="font-size:80%;baseline-shift:sub;">1</tspan></tspan></text>
</g>
<g>
<circle cx="256.0" cy="540.0" r="4.0" stroke="#000000" stroke-width="4.0" fill="none" />
<text text-anchor="end" x="246.0" y="549.0" fill="#000000" style="font-size:24px"><tspan style="font-style:italic;">I<tspan style="font-size:80%;baseline-shift:sub;">0</tspan></tspan></text>
</g>
<g>
<circle cx="800.0" cy="16.0" r="4.0" stroke="#000000" stroke-width="4.0" fill="none" />
<text text-anchor="start" x="800.0" y="15.0" fill="#000000" style="font-size:24px" transform="rotate(-90,800.0,6.0)" ><tspan style="font-style:italic;">O<tspan style="font-size:80%;baseline-shift:sub;">0</tspan></tspan></text>
</g>
<g>
<circle cx="840.0" cy="16.0" r="4.0" stroke="#000000" stroke-width="4.0" fill="none" />
<text text-anchor="start" x="840.0" y="15.0" fill="#000000" style="font-size:24px" transform="rotate(-90,840.0,6.0)" ><tspan style="font-style:italic;">O<tspan style="font-size:80%;baseline-shift:sub;">1</tspan></tspan></text>
</g>
<g>
<circle cx="880.0" cy="16.0" r="4.0" stroke="#000000" stroke-width="4.0" fill="none" />
<text text-anchor="start" x="880.0" y="15.0" fill="#000000" style="font-size:24px" transform="rotate(-90,880.0,6.0)" ><tspan style="font-style:italic;">O<tspan style="font-size:80%;baseline-shift:sub;">2</tspan></tspan></text>
</g>
<g>
<circle cx="920.0" cy="16.0" r="4.0" stroke="#000000" stroke-width="4.0" fill="none" />
<text text-anchor="start" x="920.0" y="15.0" fill="#000000" style="font-size:24px" transform="rotate(-90,920.0,6.0)" ><tspan style="font-style:italic;">O<tspan style="font-size:80%;baseline-shift:sub;">3</tspan></tspan></text>
</g>
<g>
<circle cx="960.0" cy="16.0" r="4.0" stroke="#000000" stroke-width="4.0" fill="none" />
<text text-anchor="start" x="960.0" y="15.0" fill="#000000" style="font-size:24px" transform="rotate(-90,960.0,6.0)" ><tspan style="font-style:italic;">O<tspan style="font-size:80%;baseline-shift:sub;">4</tspan></tspan></text>
</g>
<g>
<circle cx="1000.0" cy="16.0" r="4.0" stroke="#000000" stroke-width="4.0" fill="none" />
<text text-anchor="start" x="1000.0" y="15.0" fill="#000000" style="font-size:24px" transform="rotate(-90,1000.0,6.0)" ><tspan style="font-style:italic;">O<tspan style="font-size:80%;baseline-shift:sub;">5</tspan></tspan></text>
</g>
<g>
<circle cx="1040.0" cy="16.0" r="4.0" stroke="#000000" stroke-width="4.0" fill="none" />
<text text-anchor="start" x="1040.0" y="15.0" fill="#000000" style="font-size:24px" transform="rotate(-90,1040.0,6.0)" ><tspan style="font-style:italic;">O<tspan style="font-size:80%;baseline-shift:sub;">6</tspan></tspan></text>
</g>
<g>
<circle cx="1080.0" cy="16.0" r="4.0" stroke="#000000" stroke-width="4.0" fill="none" />
<text text-anchor="start" x="1080.0" y="15.0" fill="#000000" style="font-size:24px" transform="rotate(-90,1080.0,6.0)" ><tspan style="font-style:italic;">O<tspan style="font-size:80%;baseline-shift:sub;">7</tspan></tspan></text>
</g>
<g>
<circle cx="1120.0" cy="16.0" r="4.0" stroke="#000000" stroke-width="4.0" fill="none" />
<text text-anchor="start" x="1120.0" y="15.0" fill="#000000" style="font-size:24px" transform="rotate(-90,1120.0,6.0)" ><tspan style="font-style:italic;">O<tspan style="font-size:80%;baseline-shift:sub;">8</tspan></tspan></text>
</g>
<g>
<circle cx="1160.0" cy="16.0" r="4.0" stroke="#000000" stroke-width="4.0" fill="none" />
<text text-anchor="start" x="1160.0" y="15.0" fill="#000000" style="font-size:24px" transform="rotate(-90,1160.0,6.0)" ><tspan style="font-style:italic;">O<tspan style="font-size:80%;baseline-shift:sub;">9</tspan></tspan></text>
</g>
<g>
<circle cx="1200.0" cy="16.0" r="4.0" stroke="#000000" stroke-width="4.0" fill="none" />
<text text-anchor="start" x="1200.0" y="15.0" fill="#000000" style="font-size:24px" transform="rotate(-90,1200.0,6.0)" ><tspan style="font-style:italic;">O<tspan style="font-size:80%;baseline-shift:sub;">10</tspan></tspan></text>
</g>
<g>
<circle cx="1240.0" cy="16.0" r="4.0" stroke="#000000" stroke-width="4.0" fill="none" />
<text text-anchor="start" x="1240.0" y="15.0" fill="#000000" style="font-size:24px" transform="rotate(-90,1240.0,6.0)" ><tspan style="font-style:italic;">O<tspan style="font-size:80%;baseline-shift:sub;">11</tspan></tspan></text>
</g>
<g>
<circle cx="1280.0" cy="16.0" r="4.0" stroke="#000000" stroke-width="4.0" fill="none" />
<text text-anchor="start" x="1280.0" y="15.0" fill="#000000" style="font-size:24px" transform="rotate(-90,1280.0,6.0)" ><tspan style="font-style:italic;">O<tspan style="font-size:80%;baseline-shift:sub;">12</tspan></tspan></text>
</g>
<g>
<circle cx="1320.0" cy="16.0" r="4.0" stroke="#000000" stroke-width="4.0" fill="none" />
<text text-anchor="start" x="1320.0" y="15.0" fill="#000000" style="font-size:24px" transform="rotate(-90,1320.0,6.0)" ><tspan style="font-style:italic;">O<tspan style="font-size:80%;baseline-shift:sub;">13</tspan></tspan></text>
</g>
<g>
<circle cx="1360.0" cy="16.0" r="4.0" stroke="#000000" stroke-width="4.0" fill="none" />
<text text-anchor="start" x="1360.0" y="15.0" fill="#000000" style="font-size:24px" transform="rotate(-90,1360.0,6.0)" ><tspan style="font-style:italic;">O<tspan style="font-size:80%;baseline-shift:sub;">14</tspan></tspan></text>
</g>
<g>
<circle cx="1400.0" cy="16.0" r="4.0" stroke="#000000" stroke-width="4.0" fill="none" />
<text text-anchor="start" x="1400.0" y="15.0" fill="#000000" style="font-size:24px" transform="rotate(-90,1400.0,6.0)" ><tspan style="font-style:italic;">O<tspan style="font-size:80%;baseline-shift:sub;">15</tspan></tspan></text>
</g>
<g>
<path d="M 701,66 L 759,66 L 759,154 L 701,154 Z" stroke="#ffffb4" stroke-width="0.0" fill="#ffffb4" fill-opacity="0.7843137254901961"/>
<path d="M 701,66 L 759,66 L 759,154 L 701,154 Z" stroke="#000000" stroke-width="4.0" fill="none"/>
<text text-anchor="start" x="704.0" y="86.75" fill="#808080" style="font-size:18px">E</text>
<text text-anchor="start" x="704.0" y="106.75" fill="#808080" style="font-size:18px">I<tspan style="font-size:80%;baseline-shift:sub;">0</tspan></text>
<text text-anchor="start" x="704.0" y="126.75" fill="#808080" style="font-size:18px">I<tspan style="font-size:80%;baseline-shift:sub;">1</tspan></text>
<text text-anchor="end" x="756.0" y="86.75" fill="#808080" style="font-size:18px">O<tspan style="font-size:80%;baseline-shift:sub;">0</tspan></text>
<text text-anchor="end" x="756.0" y="106.75" fill="#808080" style="font-size:18px">O<tspan style="font-size:80%;baseline-shift:sub;">1</tspan></text>
<text text-anchor="end" x="756.0" y="126.75" fill="#808080" style="font-size:18px">O<tspan style="font-size:80%;baseline-shift:sub;">2</tspan></text>
<text text-anchor="end" x="756.0" y="146.75" fill="#808080" style="font-size:18px">O<tspan style="font-size:80%;baseline-shift:sub;">3</tspan></text>
<text text-anchor="middle" x="730.0" y="171.5" fill="#808080" style="font-size:18px">2to4decoder</text>
</g>
<g>
<path d="M 701,226 L 759,226 L 759,314 L 701,314 Z" stroke="#ffffb4" stroke-width="0.0" fill="#ffffb4" fill-opacity="0.7843137254901961"/>
<path d="M 701,226 L 759,226 L 759,314 L 701,314 Z" stroke="#000000" stroke-width="4.0" fill="none"/>
<text text-anchor="start" x="704.0" y="246.75" fill="#808080" style="font-size:18px">E</text>
<text text-anchor="start" x="704.0" y="266.75" fill="#808080" style="font-size:18px">I<tspan style="font-size:80%;baseline-shift:sub;">0</tspan></text>
<text text-anchor="start" x="704.0" y="286.75" fill="#808080" style="font-size:18px">I<tspan style="font-size:80%;baseline-shift:sub;">1</tspan></text>
<text text-anchor="end" x="756.0" y="246.75" fill="#808080" style="font-size:18px">O<tspan style="font-size:80%;baseline-shift:sub;">0</tspan></text>
<text text-anchor="end" x="756.0" y="266.75" fill="#808080" style="font-size:18px">O<tspan style="font-size:80%;baseline-shift:sub;">1</tspan></text>
<text text-anchor="end" x="756.0" y="286.75" fill="#808080" style="font-size:18px">O<tspan style="font-size:80%;baseline-shift:sub;">2</tspan></text>
<text text-anchor="end" x="756.0" y="306.75" fill="#808080" style="font-size:18px">O<tspan style="font-size:80%;baseline-shift:sub;">3</tspan></text>
<text text-anchor="middle" x="730.0" y="331.5" fill="#808080" style="font-size:18px">2to4decoder</text>
</g>
<g>
<path d="M 701,386 L 759,386 L 759,474 L 701,474 Z" stroke="#ffffb4" stroke-width="0.0" fill="#ffffb4" fill-opacity="0.7843137254901961"/>
<path d="M 701,386 L 759,386 L 759,474 L 701,474 Z" stroke="#000000" stroke-width="4.0" fill="none"/>
<text text-anchor="start" x="704.0" y="406.75" fill="#808080" style="font-size:18px">E</text>
<text text-anchor="start" x="704.0" y="426.75" fill="#808080" style="font-size:18px">I<tspan style="font-size:80%;baseline-shift:sub;">0</tspan></text>
<text text-anchor="start" x="704.0" y="446.75" fill="#808080" style="font-size:18px">I<tspan style="font-size:80%;baseline-shift:sub;">1</tspan></text>
<text text-anchor="end" x="756.0" y="406.75" fill="#808080" style="font-size:18px">O<tspan style="font-size:80%;baseline-shift:sub;">0</tspan></text>
<text text-anchor="end" x="756.0" y="426.75" fill="#808080" style="font-size:18px">O<tspan style="font-size:80%;baseline-shift:sub;">1</tspan></text>
<text text-anchor="end" x="756.0" y="446.75" fill="#808080" style="font-size:18px">O<tspan style="font-size:80%;baseline-shift:sub;">2</tspan></text>
<text text-anchor="end" x="756.0" y="466.75" fill="#808080" style="font-size:18px">O<tspan style="font-size:80%;baseline-shift:sub;">3</tspan></text>
<text text-anchor="middle" x="730.0" y="491.5" fill="#808080" style="font-size:18px">2to4decoder</text>
</g>
<g>
<path d="M 701,546 L 759,546 L 759,634 L 701,634 Z" stroke="#ffffb4" stroke-width="0.0" fill="#ffffb4" fill-opacity="0.7843137254901961"/>
<path d="M 701,546 L 759,546 L 759,634 L 701,634 Z" stroke="#000000" stroke-width="4.0" fill="none"/>
<text text-anchor="start" x="704.0" y="566.75" fill="#808080" style="font-size:18px">E</text>
<text text-anchor="start" x="704.0" y="586.75" fill="#808080" style="font-size:18px">I<tspan style="font-size:80%;baseline-shift:sub;">0</tspan></text>
<text text-anchor="start" x="704.0" y="606.75" fill="#808080" style="font-size:18px">I<tspan style="font-size:80%;baseline-shift:sub;">1</tspan></text>
<text text-anchor="end" x="756.0" y="566.75" fill="#808080" style="font-size:18px">O<tspan style="font-size:80%;baseline-shift:sub;">0</tspan></text>
<text text-anchor="end" x="756.0" y="586.75" fill="#808080" style="font-size:18px">O<tspan style="font-size:80%;baseline-shift:sub;">1</tspan></text>
<text text-anchor="end" x="756.0" y="606.75" fill="#808080" style="font-size:18px">O<tspan style="font-size:80%;baseline-shift:sub;">2</tspan></text>
<text text-anchor="end" x="756.0" y="626.75" fill="#808080" style="font-size:18px">O<tspan style="font-size:80%;baseline-shift:sub;">3</tspan></text>
<text text-anchor="middle" x="730.0" y="651.5" fill="#808080" style="font-size:18px">2to4decoder</text>
</g>
<g>
<path d="M 501,306 L 559,306 L 559,394 L 501,394 Z" stroke="#ffffb4" stroke-width="0.0" fill="#ffffb4" fill-opacity="0.7843137254901961"/>
<path d="M 501,306 L 559,306 L 559,394 L 501,394 Z" stroke="#000000" stroke-width="4.0" fill="none"/>
<text text-anchor="start" x="504.0" y="326.75" fill="#808080" style="font-size:18px">E</text>
<text text-anchor="start" x="504.0" y="346.75" fill="#808080" style="font-size:18px">I<tspan style="font-size:80%;baseline-shift:sub;">0</tspan></text>
<text text-anchor="start" x="504.0" y="366.75" fill="#808080" style="font-size:18px">I<tspan style="font-size:80%;baseline-shift:sub;">1</tspan></text>
<text text-anchor="end" x="556.0" y="326.75" fill="#808080" style="font-size:18px">O<tspan style="font-size:80%;baseline-shift:sub;">0</tspan></text>
<text text-anchor="end" x="556.0" y="346.75" fill="#808080" style="font-size:18px">O<tspan style="font-size:80%;baseline-shift:sub;">1</tspan></text>
<text text-anchor="end" x="556.0" y="366.75" fill="#808080" style="font-size:18px">O<tspan style="font-size:80%;baseline-shift:sub;">2</tspan></text>
<text text-anchor="end" x="556.0" y="386.75" fill="#808080" style="font-size:18px">O<tspan style="font-size:80%;baseline-shift:sub;">3</tspan></text>
<text text-anchor="middle" x="530.0" y="411.5" fill="#808080" style="font-size:18px">2to4decoder</text>
</g>
<g>
<circle cx="256.0" cy="200.0" r="4.0" stroke="#000000" stroke-width="4.0" fill="none" />
<text text-anchor="end" x="246.0" y="209.0" fill="#000000" style="font-size:24px"><tspan style="font-style:italic;">E</tspan></text>
</g>
</g>
</svg>