<?xml version="1.0" encoding="UTF-8" standalone="no"?>
<!-- Created with Digital by H.Neemann -->
<!-- created: Sat May 17 08:36:48 CST 2025 -->

<svg
   xmlns:svg="http://www.w3.org/2000/svg"
   xmlns="http://www.w3.org/2000/svg"
   width="163.5mm"
   height="186.45mm"
   viewBox="63 -41 1090 1243">
<g stroke-linecap="square">
<path d="M 561,100 L 561,109" stroke="#000000" stroke-width="4.0" fill="none"/>
<path d="M 561,180 L 561,171" stroke="#000000" stroke-width="4.0" fill="none"/>
<path d="M 561,240 L 561,249" stroke="#000000" stroke-width="4.0" fill="none"/>
<path d="M 561,320 L 561,311" stroke="#000000" stroke-width="4.0" fill="none"/>
<path d="M 561,380 L 561,389" stroke="#000000" stroke-width="4.0" fill="none"/>
<path d="M 561,460 L 561,451" stroke="#000000" stroke-width="4.0" fill="none"/>
<path d="M 561,520 L 561,529" stroke="#000000" stroke-width="4.0" fill="none"/>
<path d="M 561,600 L 561,591" stroke="#000000" stroke-width="4.0" fill="none"/>
<path d="M 561,660 L 561,669" stroke="#000000" stroke-width="4.0" fill="none"/>
<path d="M 561,740 L 561,731" stroke="#000000" stroke-width="4.0" fill="none"/>
<path d="M 561,800 L 561,809" stroke="#000000" stroke-width="4.0" fill="none"/>
<path d="M 561,880 L 561,871" stroke="#000000" stroke-width="4.0" fill="none"/>
<path d="M 561,940 L 561,949" stroke="#000000" stroke-width="4.0" fill="none"/>
<path d="M 561,1020 L 561,1011" stroke="#000000" stroke-width="4.0" fill="none"/>
<path d="M 561,1080 L 561,1089" stroke="#000000" stroke-width="4.0" fill="none"/>
<path d="M 561,1160 L 561,1151" stroke="#000000" stroke-width="4.0" fill="none"/>
<path d="M 781,320 L 781,329" stroke="#000000" stroke-width="4.0" fill="none"/>
<path d="M 781,400 L 781,391" stroke="#000000" stroke-width="4.0" fill="none"/>
<path d="M 781,900 L 781,909" stroke="#000000" stroke-width="4.0" fill="none"/>
<path d="M 781,980 L 781,971" stroke="#000000" stroke-width="4.0" fill="none"/>
<path d="M 400,180 L 400,320 L 560,320" stroke="#0000b2" stroke-width="4.0" fill="none"/>
<path d="M 280,120 L 280,260 L 560,260" stroke="#0000b2" stroke-width="4.0" fill="none"/>
<path d="M 200,1200 L 200,580 L 560,580" stroke="#0000b2" stroke-width="4.0" fill="none"/>
<path d="M 100,840 L 560,840" stroke="#0000b2" stroke-width="4.0" fill="none"/>
<path d="M 640,840 L 700,840 L 700,920 L 780,920 L 784,920" stroke="#0000b2" stroke-width="4.0" fill="none"/>
<path d="M 240,1200 L 240,1100 L 560,1100" stroke="#0000b2" stroke-width="4.0" fill="none"/>
<path d="M 100,140 L 560,140" stroke="#0000b2" stroke-width="4.0" fill="none"/>
<path d="M 640,140 L 740,140 L 740,320 L 780,320" stroke="#0000b2" stroke-width="4.0" fill="none"/>
<path d="M 240,20 L 240,400 L 560,400" stroke="#0000b2" stroke-width="4.0" fill="none"/>
<path d="M 160,0 L 160,20 L 200,20 L 200,40" stroke="#0000b2" stroke-width="4.0" fill="none"/>
<path d="M 240,0 L 240,20 L 280,20 L 280,40" stroke="#0000b2" stroke-width="4.0" fill="none"/>
<path d="M 320,0 L 320,20 L 360,20 L 360,40" stroke="#0000b2" stroke-width="4.0" fill="none"/>
<path d="M 100,980 L 560,980" stroke="#0000b2" stroke-width="4.0" fill="none"/>
<path d="M 640,980 L 700,980 L 700,960 L 780,960 L 784,960" stroke="#0000b2" stroke-width="4.0" fill="none"/>
<path d="M 100,280 L 560,280" stroke="#0000b2" stroke-width="4.0" fill="none"/>
<path d="M 640,280 L 700,280 L 700,340 L 780,340 L 784,340" stroke="#0000b2" stroke-width="4.0" fill="none"/>
<path d="M 200,80 L 200,160 L 560,160" stroke="#0000b2" stroke-width="4.0" fill="none"/>
<path d="M 320,520 L 320,800 L 560,800" stroke="#0000b2" stroke-width="4.0" fill="none"/>
<path d="M 100,1120 L 560,1120" stroke="#0000b2" stroke-width="4.0" fill="none"/>
<path d="M 640,1120 L 740,1120 L 740,980 L 780,980" stroke="#0000b2" stroke-width="4.0" fill="none"/>
<path d="M 360,80 L 360,100 L 560,100" stroke="#0000b2" stroke-width="4.0" fill="none"/>
<path d="M 100,420 L 560,420" stroke="#0000b2" stroke-width="4.0" fill="none"/>
<path d="M 640,420 L 700,420 L 700,380 L 780,380 L 784,380" stroke="#0000b2" stroke-width="4.0" fill="none"/>
<path d="M 280,820 L 280,680 L 560,680" stroke="#0000b2" stroke-width="4.0" fill="none"/>
<path d="M 860,360 L 920,360 L 920,600 L 980,600 L 984,600" stroke="#0000b2" stroke-width="4.0" fill="none"/>
<path d="M 360,660 L 360,940 L 560,940" stroke="#0000b2" stroke-width="4.0" fill="none"/>
<path d="M 860,940 L 920,940 L 920,640 L 980,640 L 984,640" stroke="#0000b2" stroke-width="4.0" fill="none"/>
<path d="M 1060,620 L 1120,620" stroke="#0000b2" stroke-width="4.0" fill="none"/>
<path d="M 640,560 L 740,560 L 740,400 L 780,400" stroke="#0000b2" stroke-width="4.0" fill="none"/>
<path d="M 100,560 L 560,560" stroke="#0000b2" stroke-width="4.0" fill="none"/>
<path d="M 400,0 L 400,180 L 560,180" stroke="#0000b2" stroke-width="4.0" fill="none"/>
<path d="M 280,1200 L 280,820 L 560,820" stroke="#0000b2" stroke-width="4.0" fill="none"/>
<path d="M 280,80 L 280,120 L 560,120" stroke="#0000b2" stroke-width="4.0" fill="none"/>
<path d="M 320,800 L 320,1080 L 560,1080" stroke="#0000b2" stroke-width="4.0" fill="none"/>
<path d="M 100,700 L 560,700" stroke="#0000b2" stroke-width="4.0" fill="none"/>
<path d="M 640,700 L 740,700 L 740,900 L 780,900" stroke="#0000b2" stroke-width="4.0" fill="none"/>
<path d="M 560,720 L 160,720 L 160,860 L 560,860" stroke="#0000b2" stroke-width="4.0" fill="none"/>
<path d="M 560,1000 L 160,1000 L 160,1140 L 560,1140" stroke="#0000b2" stroke-width="4.0" fill="none"/>
<path d="M 160,20 L 160,720" stroke="#0000b2" stroke-width="4.0" fill="none"/>
<path d="M 160,860 L 160,1000" stroke="#0000b2" stroke-width="4.0" fill="none"/>
<path d="M 160,1140 L 160,1200" stroke="#0000b2" stroke-width="4.0" fill="none"/>
<path d="M 560,960 L 240,960 L 240,540 L 560,540" stroke="#0000b2" stroke-width="4.0" fill="none"/>
<path d="M 240,400 L 240,540" stroke="#0000b2" stroke-width="4.0" fill="none"/>
<path d="M 240,960 L 240,1100" stroke="#0000b2" stroke-width="4.0" fill="none"/>
<path d="M 560,520 L 320,520 L 320,240 L 560,240" stroke="#0000b2" stroke-width="4.0" fill="none"/>
<path d="M 320,20 L 320,240" stroke="#0000b2" stroke-width="4.0" fill="none"/>
<path d="M 320,1080 L 320,1200" stroke="#0000b2" stroke-width="4.0" fill="none"/>
<path d="M 560,460 L 400,460 L 400,600 L 560,600" stroke="#0000b2" stroke-width="4.0" fill="none"/>
<path d="M 560,740 L 400,740 L 400,880 L 560,880" stroke="#0000b2" stroke-width="4.0" fill="none"/>
<path d="M 560,1160 L 400,1160 L 400,1020 L 560,1020" stroke="#0000b2" stroke-width="4.0" fill="none"/>
<path d="M 400,320 L 400,460" stroke="#0000b2" stroke-width="4.0" fill="none"/>
<path d="M 400,600 L 400,740" stroke="#0000b2" stroke-width="4.0" fill="none"/>
<path d="M 400,880 L 400,1020" stroke="#0000b2" stroke-width="4.0" fill="none"/>
<path d="M 400,1160 L 400,1200" stroke="#0000b2" stroke-width="4.0" fill="none"/>
<path d="M 560,300 L 200,300 L 200,440 L 560,440" stroke="#0000b2" stroke-width="4.0" fill="none"/>
<path d="M 200,160 L 200,300" stroke="#0000b2" stroke-width="4.0" fill="none"/>
<path d="M 200,440 L 200,580" stroke="#0000b2" stroke-width="4.0" fill="none"/>
<path d="M 280,260 L 280,680" stroke="#0000b2" stroke-width="4.0" fill="none"/>
<path d="M 560,660 L 360,660 L 360,380 L 560,380" stroke="#0000b2" stroke-width="4.0" fill="none"/>
<path d="M 360,940 L 360,1200" stroke="#0000b2" stroke-width="4.0" fill="none"/>
<path d="M 360,100 L 360,380" stroke="#0000b2" stroke-width="4.0" fill="none"/>
<g>
<circle cx="400.0" cy="320.0" r="4.0" stroke="#0000b2" stroke-width="4.0" fill="#0000b2" />
<circle cx="240.0" cy="960.0" r="4.0" stroke="#0000b2" stroke-width="4.0" fill="#0000b2" />
<circle cx="280.0" cy="260.0" r="4.0" stroke="#0000b2" stroke-width="4.0" fill="#0000b2" />
<circle cx="200.0" cy="580.0" r="4.0" stroke="#0000b2" stroke-width="4.0" fill="#0000b2" />
<circle cx="400.0" cy="1160.0" r="4.0" stroke="#0000b2" stroke-width="4.0" fill="#0000b2" />
<circle cx="320.0" cy="520.0" r="4.0" stroke="#0000b2" stroke-width="4.0" fill="#0000b2" />
<circle cx="400.0" cy="460.0" r="4.0" stroke="#0000b2" stroke-width="4.0" fill="#0000b2" />
<circle cx="240.0" cy="1100.0" r="4.0" stroke="#0000b2" stroke-width="4.0" fill="#0000b2" />
<circle cx="240.0" cy="400.0" r="4.0" stroke="#0000b2" stroke-width="4.0" fill="#0000b2" />
<circle cx="160.0" cy="720.0" r="4.0" stroke="#0000b2" stroke-width="4.0" fill="#0000b2" />
<circle cx="160.0" cy="20.0" r="4.0" stroke="#0000b2" stroke-width="4.0" fill="#0000b2" />
<circle cx="240.0" cy="20.0" r="4.0" stroke="#0000b2" stroke-width="4.0" fill="#0000b2" />
<circle cx="320.0" cy="20.0" r="4.0" stroke="#0000b2" stroke-width="4.0" fill="#0000b2" />
<circle cx="360.0" cy="660.0" r="4.0" stroke="#0000b2" stroke-width="4.0" fill="#0000b2" />
<circle cx="400.0" cy="600.0" r="4.0" stroke="#0000b2" stroke-width="4.0" fill="#0000b2" />
<circle cx="240.0" cy="540.0" r="4.0" stroke="#0000b2" stroke-width="4.0" fill="#0000b2" />
<circle cx="160.0" cy="860.0" r="4.0" stroke="#0000b2" stroke-width="4.0" fill="#0000b2" />
<circle cx="200.0" cy="160.0" r="4.0" stroke="#0000b2" stroke-width="4.0" fill="#0000b2" />
<circle cx="320.0" cy="800.0" r="4.0" stroke="#0000b2" stroke-width="4.0" fill="#0000b2" />
<circle cx="400.0" cy="740.0" r="4.0" stroke="#0000b2" stroke-width="4.0" fill="#0000b2" />
<circle cx="360.0" cy="100.0" r="4.0" stroke="#0000b2" stroke-width="4.0" fill="#0000b2" />
<circle cx="280.0" cy="680.0" r="4.0" stroke="#0000b2" stroke-width="4.0" fill="#0000b2" />
<circle cx="160.0" cy="1000.0" r="4.0" stroke="#0000b2" stroke-width="4.0" fill="#0000b2" />
<circle cx="200.0" cy="300.0" r="4.0" stroke="#0000b2" stroke-width="4.0" fill="#0000b2" />
<circle cx="360.0" cy="940.0" r="4.0" stroke="#0000b2" stroke-width="4.0" fill="#0000b2" />
<circle cx="400.0" cy="880.0" r="4.0" stroke="#0000b2" stroke-width="4.0" fill="#0000b2" />
<circle cx="320.0" cy="240.0" r="4.0" stroke="#0000b2" stroke-width="4.0" fill="#0000b2" />
<circle cx="400.0" cy="180.0" r="4.0" stroke="#0000b2" stroke-width="4.0" fill="#0000b2" />
<circle cx="280.0" cy="820.0" r="4.0" stroke="#0000b2" stroke-width="4.0" fill="#0000b2" />
<circle cx="160.0" cy="1140.0" r="4.0" stroke="#0000b2" stroke-width="4.0" fill="#0000b2" />
<circle cx="280.0" cy="120.0" r="4.0" stroke="#0000b2" stroke-width="4.0" fill="#0000b2" />
<circle cx="200.0" cy="440.0" r="4.0" stroke="#0000b2" stroke-width="4.0" fill="#0000b2" />
<circle cx="320.0" cy="1080.0" r="4.0" stroke="#0000b2" stroke-width="4.0" fill="#0000b2" />
<circle cx="400.0" cy="1020.0" r="4.0" stroke="#0000b2" stroke-width="4.0" fill="#0000b2" />
<circle cx="360.0" cy="380.0" r="4.0" stroke="#0000b2" stroke-width="4.0" fill="#0000b2" />
</g>
<g>
<path d="M 610,170 L 561,170 L 561,110 L 610,110 C 620,110 640,120 639,140 C 639,160 620,170 610,170 Z" stroke="#000000" stroke-width="4.0" fill="none"/>
</g>
<g>
<path d="M 610,310 L 561,310 L 561,250 L 610,250 C 620,250 640,260 639,280 C 639,300 620,310 610,310 Z" stroke="#000000" stroke-width="4.0" fill="none"/>
</g>
<g>
<path d="M 610,450 L 561,450 L 561,390 L 610,390 C 620,390 640,400 639,420 C 639,440 620,450 610,450 Z" stroke="#000000" stroke-width="4.0" fill="none"/>
</g>
<g>
<path d="M 610,590 L 561,590 L 561,530 L 610,530 C 620,530 640,540 639,560 C 639,580 620,590 610,590 Z" stroke="#000000" stroke-width="4.0" fill="none"/>
</g>
<g>
<path d="M 610,730 L 561,730 L 561,670 L 610,670 C 620,670 640,680 639,700 C 639,720 620,730 610,730 Z" stroke="#000000" stroke-width="4.0" fill="none"/>
</g>
<g>
<path d="M 610,870 L 561,870 L 561,810 L 610,810 C 620,810 640,820 639,840 C 639,860 620,870 610,870 Z" stroke="#000000" stroke-width="4.0" fill="none"/>
</g>
<g>
<path d="M 610,1010 L 561,1010 L 561,950 L 610,950 C 620,950 640,960 639,980 C 639,1000 620,1010 610,1010 Z" stroke="#000000" stroke-width="4.0" fill="none"/>
</g>
<g>
<path d="M 610,1150 L 561,1150 L 561,1090 L 610,1090 C 620,1090 640,1100 639,1120 C 639,1140 620,1150 610,1150 Z" stroke="#000000" stroke-width="4.0" fill="none"/>
</g>
<g>
<path d="M 810,390 L 780,390 C 790,374 790,346 780,330 L 800,330 C 830,330 850,340 860,360 C 850,380 830,390 810,390 Z" stroke="#000000" stroke-width="4.0" fill="none"/>
</g>
<g>
<path d="M 810,970 L 780,970 C 790,954 790,926 780,910 L 800,910 C 830,910 850,920 860,940 C 850,960 830,970 810,970 Z" stroke="#000000" stroke-width="4.0" fill="none"/>
</g>
<g>
<path d="M 1010,650 L 980,650 C 990,634 990,606 980,590 L 1000,590 C 1030,590 1050,600 1060,620 C 1050,640 1030,650 1010,650 Z" stroke="#000000" stroke-width="4.0" fill="none"/>
</g>
<g>
<circle cx="1124.0" cy="620.0" r="4.0" stroke="#000000" stroke-width="4.0" fill="none" />
<text text-anchor="start" x="1134.0" y="629.0" fill="#000000" style="font-size:24px"><tspan style="font-style:italic;">O</tspan></text>
</g>
<g>
<circle cx="320.0" cy="-4.0" r="4.0" stroke="#000000" stroke-width="4.0" fill="none" />
<text text-anchor="start" x="320.0" y="-5.0" fill="#000000" style="font-size:24px" transform="rotate(-90,320.0,-14.0)" ><tspan style="font-style:italic;">S<tspan style="font-size:80%;baseline-shift:sub;">0</tspan></tspan></text>
</g>
<g>
<circle cx="240.0" cy="-4.0" r="4.0" stroke="#000000" stroke-width="4.0" fill="none" />
<text text-anchor="start" x="240.0" y="-5.0" fill="#000000" style="font-size:24px" transform="rotate(-90,240.0,-14.0)" ><tspan style="font-style:italic;">S<tspan style="font-size:80%;baseline-shift:sub;">1</tspan></tspan></text>
</g>
<g>
<circle cx="160.0" cy="-4.0" r="4.0" stroke="#000000" stroke-width="4.0" fill="none" />
<text text-anchor="start" x="160.0" y="-5.0" fill="#000000" style="font-size:24px" transform="rotate(-90,160.0,-14.0)" ><tspan style="font-style:italic;">S<tspan style="font-size:80%;baseline-shift:sub;">2</tspan></tspan></text>
</g>
<g>
<circle cx="400.0" cy="-4.0" r="4.0" stroke="#000000" stroke-width="4.0" fill="none" />
<text text-anchor="start" x="400.0" y="-5.0" fill="#000000" style="font-size:24px" transform="rotate(-90,400.0,-14.0)" ><tspan style="font-style:italic;">E</tspan></text>
</g>
<g>
<path d="M 212,41 L 200,59 L 188,41 Z" stroke="#000000" stroke-width="4.0" fill="none"/>
<circle cx="200.0" cy="70.0" r="9.0" stroke="#000000" stroke-width="4.0" fill="none" />
</g>
<g>
<path d="M 292,41 L 280,59 L 268,41 Z" stroke="#000000" stroke-width="4.0" fill="none"/>
<circle cx="280.0" cy="70.0" r="9.0" stroke="#000000" stroke-width="4.0" fill="none" />
</g>
<g>
<path d="M 372,41 L 360,59 L 348,41 Z" stroke="#000000" stroke-width="4.0" fill="none"/>
<circle cx="360.0" cy="70.0" r="9.0" stroke="#000000" stroke-width="4.0" fill="none" />
</g>
<g>
<circle cx="96.0" cy="140.0" r="4.0" stroke="#000000" stroke-width="4.0" fill="none" />
<text text-anchor="end" x="86.0" y="149.0" fill="#000000" style="font-size:24px"><tspan style="font-style:italic;">I<tspan style="font-size:80%;baseline-shift:sub;">0</tspan></tspan></text>
</g>
<g>
<circle cx="96.0" cy="280.0" r="4.0" stroke="#000000" stroke-width="4.0" fill="none" />
<text text-anchor="end" x="86.0" y="289.0" fill="#000000" style="font-size:24px"><tspan style="font-style:italic;">I<tspan style="font-size:80%;baseline-shift:sub;">1</tspan></tspan></text>
</g>
<g>
<circle cx="96.0" cy="420.0" r="4.0" stroke="#000000" stroke-width="4.0" fill="none" />
<text text-anchor="end" x="86.0" y="429.0" fill="#000000" style="font-size:24px"><tspan style="font-style:italic;">I<tspan style="font-size:80%;baseline-shift:sub;">2</tspan></tspan></text>
</g>
<g>
<circle cx="96.0" cy="560.0" r="4.0" stroke="#000000" stroke-width="4.0" fill="none" />
<text text-anchor="end" x="86.0" y="569.0" fill="#000000" style="font-size:24px"><tspan style="font-style:italic;">I<tspan style="font-size:80%;baseline-shift:sub;">3</tspan></tspan></text>
</g>
<g>
<circle cx="96.0" cy="700.0" r="4.0" stroke="#000000" stroke-width="4.0" fill="none" />
<text text-anchor="end" x="86.0" y="709.0" fill="#000000" style="font-size:24px"><tspan style="font-style:italic;">I<tspan style="font-size:80%;baseline-shift:sub;">4</tspan></tspan></text>
</g>
<g>
<circle cx="96.0" cy="840.0" r="4.0" stroke="#000000" stroke-width="4.0" fill="none" />
<text text-anchor="end" x="86.0" y="849.0" fill="#000000" style="font-size:24px"><tspan style="font-style:italic;">I<tspan style="font-size:80%;baseline-shift:sub;">5</tspan></tspan></text>
</g>
<g>
<circle cx="96.0" cy="980.0" r="4.0" stroke="#000000" stroke-width="4.0" fill="none" />
<text text-anchor="end" x="86.0" y="989.0" fill="#000000" style="font-size:24px"><tspan style="font-style:italic;">I<tspan style="font-size:80%;baseline-shift:sub;">6</tspan></tspan></text>
</g>
<g>
<circle cx="96.0" cy="1120.0" r="4.0" stroke="#000000" stroke-width="4.0" fill="none" />
<text text-anchor="end" x="86.0" y="1129.0" fill="#000000" style="font-size:24px"><tspan style="font-style:italic;">I<tspan style="font-size:80%;baseline-shift:sub;">7</tspan></tspan></text>
</g>
</g>
</svg>