<?xml version="1.0" encoding="UTF-8" standalone="no"?>
<!-- Created with Digital by H.Neemann -->
<!-- created: Sat May 17 08:39:22 CST 2025 -->

<svg
   xmlns:svg="http://www.w3.org/2000/svg"
   xmlns="http://www.w3.org/2000/svg"
   width="161.1mm"
   height="114.9mm"
   viewBox="-61 48 1074 766">
<g stroke-linecap="square">
<path d="M 621,240 L 621,249" stroke="#000000" stroke-width="4.0" fill="none"/>
<path d="M 621,320 L 621,311" stroke="#000000" stroke-width="4.0" fill="none"/>
<path d="M 621,580 L 621,589" stroke="#000000" stroke-width="4.0" fill="none"/>
<path d="M 621,660 L 621,651" stroke="#000000" stroke-width="4.0" fill="none"/>
<path d="M 440,580 L 540,580 L 540,600 L 620,600 L 624,600" stroke="#0000b2" stroke-width="4.0" fill="none"/>
<path d="M 280,200 L 360,200" stroke="#0000b2" stroke-width="4.0" fill="none"/>
<path d="M 120,460 L 160,460 L 160,660 L 360,660" stroke="#0000b2" stroke-width="4.0" fill="none"/>
<path d="M 440,780 L 580,780 L 580,660 L 620,660" stroke="#0000b2" stroke-width="4.0" fill="none"/>
<path d="M 280,400 L 360,400" stroke="#0000b2" stroke-width="4.0" fill="none"/>
<path d="M 120,400 L 200,400 L 200,360 L 360,360" stroke="#0000b2" stroke-width="4.0" fill="none"/>
<path d="M 440,80 L 580,80 L 580,240 L 620,240" stroke="#0000b2" stroke-width="4.0" fill="none"/>
<path d="M 120,340 L 140,340 L 140,60 L 360,60" stroke="#0000b2" stroke-width="4.0" fill="none"/>
<path d="M 280,600 L 360,600" stroke="#0000b2" stroke-width="4.0" fill="none"/>
<path d="M 440,280 L 540,280 L 540,300 L 620,300 L 624,300" stroke="#0000b2" stroke-width="4.0" fill="none"/>
<path d="M 700,280 L 780,280 L 780,420 L 820,420 L 824,420" stroke="#0000b2" stroke-width="4.0" fill="none"/>
<path d="M 280,800 L 360,800" stroke="#0000b2" stroke-width="4.0" fill="none"/>
<path d="M 120,480 L 140,480 L 140,760 L 360,760" stroke="#0000b2" stroke-width="4.0" fill="none"/>
<path d="M -20,480 L 40,480 L 40,400 L 60,400" stroke="#0000b2" stroke-width="4.0" fill="none"/>
<path d="M 440,480 L 580,480 L 580,580 L 620,580" stroke="#0000b2" stroke-width="4.0" fill="none"/>
<path d="M 280,100 L 360,100" stroke="#0000b2" stroke-width="4.0" fill="none"/>
<path d="M 120,420 L 200,420 L 200,460 L 360,460" stroke="#0000b2" stroke-width="4.0" fill="none"/>
<path d="M -20,420 L 0,420 L 0,380 L 60,380" stroke="#0000b2" stroke-width="4.0" fill="none"/>
<path d="M 120,360 L 160,360 L 160,160 L 360,160" stroke="#0000b2" stroke-width="4.0" fill="none"/>
<path d="M -20,360 L 60,360" stroke="#0000b2" stroke-width="4.0" fill="none"/>
<path d="M 440,680 L 540,680 L 540,640 L 620,640 L 624,640" stroke="#0000b2" stroke-width="4.0" fill="none"/>
<path d="M 280,300 L 360,300" stroke="#0000b2" stroke-width="4.0" fill="none"/>
<path d="M -20,300 L 40,300 L 40,340 L 60,340" stroke="#0000b2" stroke-width="4.0" fill="none"/>
<path d="M 700,620 L 780,620 L 780,460 L 820,460 L 824,460" stroke="#0000b2" stroke-width="4.0" fill="none"/>
<path d="M 280,500 L 360,500" stroke="#0000b2" stroke-width="4.0" fill="none"/>
<path d="M 440,180 L 540,180 L 540,260 L 620,260 L 624,260" stroke="#0000b2" stroke-width="4.0" fill="none"/>
<path d="M 120,440 L 180,440 L 180,560 L 360,560" stroke="#0000b2" stroke-width="4.0" fill="none"/>
<path d="M 900,440 L 980,440" stroke="#0000b2" stroke-width="4.0" fill="none"/>
<path d="M 280,700 L 360,700" stroke="#0000b2" stroke-width="4.0" fill="none"/>
<path d="M 120,380 L 180,380 L 180,260 L 360,260" stroke="#0000b2" stroke-width="4.0" fill="none"/>
<path d="M 440,380 L 580,380 L 580,320 L 620,320" stroke="#0000b2" stroke-width="4.0" fill="none"/>
<g>
</g>
<g>
<path d="M 650,310 L 620,310 C 630,294 630,266 620,250 L 640,250 C 670,250 690,260 700,280 C 690,300 670,310 650,310 Z" stroke="#000000" stroke-width="4.0" fill="none"/>
</g>
<g>
<path d="M 61,326 L 119,326 L 119,494 L 61,494 Z" stroke="#ffffb4" stroke-width="0.0" fill="#ffffb4" fill-opacity="0.7843137254901961"/>
<path d="M 61,326 L 119,326 L 119,494 L 61,494 Z" stroke="#000000" stroke-width="4.0" fill="none"/>
<text text-anchor="start" x="64.0" y="346.75" fill="#808080" style="font-size:18px">E</text>
<text text-anchor="start" x="64.0" y="366.75" fill="#808080" style="font-size:18px">I<tspan style="font-size:80%;baseline-shift:sub;">2</tspan></text>
<text text-anchor="start" x="64.0" y="386.75" fill="#808080" style="font-size:18px">I<tspan style="font-size:80%;baseline-shift:sub;">1</tspan></text>
<text text-anchor="start" x="64.0" y="406.75" fill="#808080" style="font-size:18px">I<tspan style="font-size:80%;baseline-shift:sub;">0</tspan></text>
<text text-anchor="end" x="116.0" y="346.75" fill="#808080" style="font-size:18px">O<tspan style="font-size:80%;baseline-shift:sub;">0</tspan></text>
<text text-anchor="end" x="116.0" y="366.75" fill="#808080" style="font-size:18px">O<tspan style="font-size:80%;baseline-shift:sub;">1</tspan></text>
<text text-anchor="end" x="116.0" y="386.75" fill="#808080" style="font-size:18px">O<tspan style="font-size:80%;baseline-shift:sub;">2</tspan></text>
<text text-anchor="end" x="116.0" y="406.75" fill="#808080" style="font-size:18px">O<tspan style="font-size:80%;baseline-shift:sub;">3</tspan></text>
<text text-anchor="end" x="116.0" y="426.75" fill="#808080" style="font-size:18px">O<tspan style="font-size:80%;baseline-shift:sub;">4</tspan></text>
<text text-anchor="end" x="116.0" y="446.75" fill="#808080" style="font-size:18px">O<tspan style="font-size:80%;baseline-shift:sub;">5</tspan></text>
<text text-anchor="end" x="116.0" y="466.75" fill="#808080" style="font-size:18px">O<tspan style="font-size:80%;baseline-shift:sub;">6</tspan></text>
<text text-anchor="end" x="116.0" y="486.75" fill="#808080" style="font-size:18px">O<tspan style="font-size:80%;baseline-shift:sub;">7</tspan></text>
<text text-anchor="middle" x="90.0" y="511.5" fill="#808080" style="font-size:18px">3to8decoder</text>
</g>
<g>
<path d="M 410,110 L 361,110 L 361,50 L 410,50 C 420,50 440,60 439,80 C 439,100 420,110 410,110 Z" stroke="#000000" stroke-width="4.0" fill="none"/>
</g>
<g>
<path d="M 410,210 L 361,210 L 361,150 L 410,150 C 420,150 440,160 439,180 C 439,200 420,210 410,210 Z" stroke="#000000" stroke-width="4.0" fill="none"/>
</g>
<g>
<path d="M 410,310 L 361,310 L 361,250 L 410,250 C 420,250 440,260 439,280 C 439,300 420,310 410,310 Z" stroke="#000000" stroke-width="4.0" fill="none"/>
</g>
<g>
<path d="M 410,410 L 361,410 L 361,350 L 410,350 C 420,350 440,360 439,380 C 439,400 420,410 410,410 Z" stroke="#000000" stroke-width="4.0" fill="none"/>
</g>
<g>
<path d="M 410,510 L 361,510 L 361,450 L 410,450 C 420,450 440,460 439,480 C 439,500 420,510 410,510 Z" stroke="#000000" stroke-width="4.0" fill="none"/>
</g>
<g>
<path d="M 410,610 L 361,610 L 361,550 L 410,550 C 420,550 440,560 439,580 C 439,600 420,610 410,610 Z" stroke="#000000" stroke-width="4.0" fill="none"/>
</g>
<g>
<path d="M 410,710 L 361,710 L 361,650 L 410,650 C 420,650 440,660 439,680 C 439,700 420,710 410,710 Z" stroke="#000000" stroke-width="4.0" fill="none"/>
</g>
<g>
<path d="M 410,810 L 361,810 L 361,750 L 410,750 C 420,750 440,760 439,780 C 439,800 420,810 410,810 Z" stroke="#000000" stroke-width="4.0" fill="none"/>
</g>
<g>
<circle cx="276.0" cy="100.0" r="4.0" stroke="#000000" stroke-width="4.0" fill="none" />
<text text-anchor="end" x="266.0" y="109.0" fill="#000000" style="font-size:24px"><tspan style="font-style:italic;">I<tspan style="font-size:80%;baseline-shift:sub;">0</tspan></tspan></text>
</g>
<g>
<circle cx="276.0" cy="200.0" r="4.0" stroke="#000000" stroke-width="4.0" fill="none" />
<text text-anchor="end" x="266.0" y="209.0" fill="#000000" style="font-size:24px"><tspan style="font-style:italic;">I<tspan style="font-size:80%;baseline-shift:sub;">1</tspan></tspan></text>
</g>
<g>
<circle cx="276.0" cy="300.0" r="4.0" stroke="#000000" stroke-width="4.0" fill="none" />
<text text-anchor="end" x="266.0" y="309.0" fill="#000000" style="font-size:24px"><tspan style="font-style:italic;">I<tspan style="font-size:80%;baseline-shift:sub;">2</tspan></tspan></text>
</g>
<g>
<circle cx="276.0" cy="400.0" r="4.0" stroke="#000000" stroke-width="4.0" fill="none" />
<text text-anchor="end" x="266.0" y="409.0" fill="#000000" style="font-size:24px"><tspan style="font-style:italic;">I<tspan style="font-size:80%;baseline-shift:sub;">3</tspan></tspan></text>
</g>
<g>
<circle cx="276.0" cy="500.0" r="4.0" stroke="#000000" stroke-width="4.0" fill="none" />
<text text-anchor="end" x="266.0" y="509.0" fill="#000000" style="font-size:24px"><tspan style="font-style:italic;">I<tspan style="font-size:80%;baseline-shift:sub;">4</tspan></tspan></text>
</g>
<g>
<circle cx="276.0" cy="600.0" r="4.0" stroke="#000000" stroke-width="4.0" fill="none" />
<text text-anchor="end" x="266.0" y="609.0" fill="#000000" style="font-size:24px"><tspan style="font-style:italic;">I<tspan style="font-size:80%;baseline-shift:sub;">5</tspan></tspan></text>
</g>
<g>
<circle cx="276.0" cy="700.0" r="4.0" stroke="#000000" stroke-width="4.0" fill="none" />
<text text-anchor="end" x="266.0" y="709.0" fill="#000000" style="font-size:24px"><tspan style="font-style:italic;">I<tspan style="font-size:80%;baseline-shift:sub;">6</tspan></tspan></text>
</g>
<g>
<circle cx="276.0" cy="800.0" r="4.0" stroke="#000000" stroke-width="4.0" fill="none" />
<text text-anchor="end" x="266.0" y="809.0" fill="#000000" style="font-size:24px"><tspan style="font-style:italic;">I<tspan style="font-size:80%;baseline-shift:sub;">7</tspan></tspan></text>
</g>
<g>
<circle cx="-24.0" cy="300.0" r="4.0" stroke="#000000" stroke-width="4.0" fill="none" />
<text text-anchor="end" x="-34.0" y="309.0" fill="#000000" style="font-size:24px"><tspan style="font-style:italic;">E</tspan></text>
</g>
<g>
<circle cx="-24.0" cy="360.0" r="4.0" stroke="#000000" stroke-width="4.0" fill="none" />
<text text-anchor="end" x="-34.0" y="369.0" fill="#000000" style="font-size:24px"><tspan style="font-style:italic;">S<tspan style="font-size:80%;baseline-shift:sub;">2</tspan></tspan></text>
</g>
<g>
<circle cx="-24.0" cy="420.0" r="4.0" stroke="#000000" stroke-width="4.0" fill="none" />
<text text-anchor="end" x="-34.0" y="429.0" fill="#000000" style="font-size:24px"><tspan style="font-style:italic;">S<tspan style="font-size:80%;baseline-shift:sub;">1</tspan></tspan></text>
</g>
<g>
<circle cx="-24.0" cy="480.0" r="4.0" stroke="#000000" stroke-width="4.0" fill="none" />
<text text-anchor="end" x="-34.0" y="489.0" fill="#000000" style="font-size:24px"><tspan style="font-style:italic;">S<tspan style="font-size:80%;baseline-shift:sub;">0</tspan></tspan></text>
</g>
<g>
<path d="M 650,650 L 620,650 C 630,634 630,606 620,590 L 640,590 C 670,590 690,600 700,620 C 690,640 670,650 650,650 Z" stroke="#000000" stroke-width="4.0" fill="none"/>
</g>
<g>
<path d="M 850,470 L 820,470 C 830,454 830,426 820,410 L 840,410 C 870,410 890,420 900,440 C 890,460 870,470 850,470 Z" stroke="#000000" stroke-width="4.0" fill="none"/>
</g>
<g>
<circle cx="984.0" cy="440.0" r="4.0" stroke="#000000" stroke-width="4.0" fill="none" />
<text text-anchor="start" x="994.0" y="449.0" fill="#000000" style="font-size:24px"><tspan style="font-style:italic;">O</tspan></text>
</g>
</g>
</svg>