<?xml version="1.0" encoding="UTF-8" standalone="no"?>
<!-- Created with Digital by H.Neemann -->
<!-- created: Fri May 16 08:51:28 CST 2025 -->

<svg
   xmlns:svg="http://www.w3.org/2000/svg"
   xmlns="http://www.w3.org/2000/svg"
   width="96.0mm"
   height="101.85mm"
   viewBox="-474 -137 640 679">
<g stroke-linecap="square">
<path d="M -280,-100 L -280,0 L 20,0" stroke="#0000b2" stroke-width="4.0" fill="none"/>
<path d="M 100,160 L 120,160" stroke="#0000b2" stroke-width="4.0" fill="none"/>
<path d="M -460,200 L -460,320 L 20,320" stroke="#0000b2" stroke-width="4.0" fill="none"/>
<path d="M -340,540 L -340,480 L 20,480" stroke="#0000b2" stroke-width="4.0" fill="none"/>
<path d="M -220,140 L -220,260 L 20,260 L 24,260" stroke="#0000b2" stroke-width="4.0" fill="none"/>
<path d="M -220,260 L -220,420 L 20,420 L 24,420" stroke="#0000b2" stroke-width="4.0" fill="none"/>
<path d="M 100,40 L 120,40" stroke="#0000b2" stroke-width="4.0" fill="none"/>
<path d="M -460,80 L -460,200 L 20,200" stroke="#0000b2" stroke-width="4.0" fill="none"/>
<path d="M -40,-100 L -40,360 L 20,360" stroke="#0000b2" stroke-width="4.0" fill="none"/>
<path d="M -460,540 L -460,520 L 20,520" stroke="#0000b2" stroke-width="4.0" fill="none"/>
<path d="M -220,-100 L -220,140 L 20,140 L 24,140" stroke="#0000b2" stroke-width="4.0" fill="none"/>
<path d="M -340,20 L -340,300 L 20,300 L 24,300" stroke="#0000b2" stroke-width="4.0" fill="none"/>
<path d="M -280,540 L -280,460 L 20,460 L 24,460" stroke="#0000b2" stroke-width="4.0" fill="none"/>
<path d="M -460,-100 L -460,80 L 20,80" stroke="#0000b2" stroke-width="4.0" fill="none"/>
<path d="M -100,-100 L -100,240 L 20,240" stroke="#0000b2" stroke-width="4.0" fill="none"/>
<path d="M -160,540 L -160,400 L 20,400" stroke="#0000b2" stroke-width="4.0" fill="none"/>
<path d="M -340,-100 L -340,20 L 20,20 L 24,20" stroke="#0000b2" stroke-width="4.0" fill="none"/>
<path d="M -400,60 L -400,180 L 20,180 L 24,180" stroke="#0000b2" stroke-width="4.0" fill="none"/>
<path d="M -400,180 L -400,500 L 20,500" stroke="#0000b2" stroke-width="4.0" fill="none"/>
<path d="M -160,-100 L -160,120 L 20,120" stroke="#0000b2" stroke-width="4.0" fill="none"/>
<path d="M 100,280 L 120,280" stroke="#0000b2" stroke-width="4.0" fill="none"/>
<path d="M 100,440 L 120,440" stroke="#0000b2" stroke-width="4.0" fill="none"/>
<path d="M -400,-100 L -400,60 L 20,60 L 24,60" stroke="#0000b2" stroke-width="4.0" fill="none"/>
<path d="M -100,540 L -100,380 L 20,380" stroke="#0000b2" stroke-width="4.0" fill="none"/>
<path d="M -340,300 L -340,480" stroke="#0000b2" stroke-width="4.0" fill="none"/>
<path d="M -100,240 L -100,380" stroke="#0000b2" stroke-width="4.0" fill="none"/>
<path d="M -280,0 L -280,460" stroke="#0000b2" stroke-width="4.0" fill="none"/>
<path d="M -40,360 L -40,540" stroke="#0000b2" stroke-width="4.0" fill="none"/>
<path d="M -460,320 L -460,520" stroke="#0000b2" stroke-width="4.0" fill="none"/>
<path d="M -220,420 L -220,540" stroke="#0000b2" stroke-width="4.0" fill="none"/>
<path d="M -400,500 L -400,540" stroke="#0000b2" stroke-width="4.0" fill="none"/>
<path d="M -160,120 L -160,400" stroke="#0000b2" stroke-width="4.0" fill="none"/>
<path d="M 21,0 L 21,9" stroke="#000000" stroke-width="4.0" fill="none"/>
<path d="M 21,80 L 21,71" stroke="#000000" stroke-width="4.0" fill="none"/>
<path d="M 21,120 L 21,129" stroke="#000000" stroke-width="4.0" fill="none"/>
<path d="M 21,200 L 21,191" stroke="#000000" stroke-width="4.0" fill="none"/>
<path d="M 21,240 L 21,249" stroke="#000000" stroke-width="4.0" fill="none"/>
<path d="M 21,320 L 21,311" stroke="#000000" stroke-width="4.0" fill="none"/>
<path d="M 21,360 L 21,409" stroke="#000000" stroke-width="4.0" fill="none"/>
<path d="M 21,520 L 21,471" stroke="#000000" stroke-width="4.0" fill="none"/>
<g>
<circle cx="-280.0" cy="0.0" r="4.0" stroke="#0000b2" stroke-width="4.0" fill="#0000b2" />
<circle cx="-460.0" cy="320.0" r="4.0" stroke="#0000b2" stroke-width="4.0" fill="#0000b2" />
<circle cx="-340.0" cy="480.0" r="4.0" stroke="#0000b2" stroke-width="4.0" fill="#0000b2" />
<circle cx="-220.0" cy="260.0" r="4.0" stroke="#0000b2" stroke-width="4.0" fill="#0000b2" />
<circle cx="-220.0" cy="420.0" r="4.0" stroke="#0000b2" stroke-width="4.0" fill="#0000b2" />
<circle cx="-460.0" cy="200.0" r="4.0" stroke="#0000b2" stroke-width="4.0" fill="#0000b2" />
<circle cx="-40.0" cy="360.0" r="4.0" stroke="#0000b2" stroke-width="4.0" fill="#0000b2" />
<circle cx="-460.0" cy="520.0" r="4.0" stroke="#0000b2" stroke-width="4.0" fill="#0000b2" />
<circle cx="-220.0" cy="140.0" r="4.0" stroke="#0000b2" stroke-width="4.0" fill="#0000b2" />
<circle cx="-340.0" cy="300.0" r="4.0" stroke="#0000b2" stroke-width="4.0" fill="#0000b2" />
<circle cx="-280.0" cy="460.0" r="4.0" stroke="#0000b2" stroke-width="4.0" fill="#0000b2" />
<circle cx="-460.0" cy="80.0" r="4.0" stroke="#0000b2" stroke-width="4.0" fill="#0000b2" />
<circle cx="-100.0" cy="240.0" r="4.0" stroke="#0000b2" stroke-width="4.0" fill="#0000b2" />
<circle cx="-160.0" cy="400.0" r="4.0" stroke="#0000b2" stroke-width="4.0" fill="#0000b2" />
<circle cx="-340.0" cy="20.0" r="4.0" stroke="#0000b2" stroke-width="4.0" fill="#0000b2" />
<circle cx="-400.0" cy="180.0" r="4.0" stroke="#0000b2" stroke-width="4.0" fill="#0000b2" />
<circle cx="-400.0" cy="500.0" r="4.0" stroke="#0000b2" stroke-width="4.0" fill="#0000b2" />
<circle cx="-160.0" cy="120.0" r="4.0" stroke="#0000b2" stroke-width="4.0" fill="#0000b2" />
<circle cx="-400.0" cy="60.0" r="4.0" stroke="#0000b2" stroke-width="4.0" fill="#0000b2" />
<circle cx="-100.0" cy="380.0" r="4.0" stroke="#0000b2" stroke-width="4.0" fill="#0000b2" />
</g>
<g>
<circle cx="124.0" cy="40.0" r="4.0" stroke="#000000" stroke-width="4.0" fill="none" />
<text text-anchor="start" x="134.0" y="49.0" fill="#000000" style="font-size:24px"><tspan style="font-style:italic;">O2</tspan></text>
</g>
<g>
<path d="M 50,70 L 20,70 C 30,54 30,26 20,10 L 40,10 C 70,10 90,20 100,40 C 90,60 70,70 50,70 Z" stroke="#000000" stroke-width="4.0" fill="none"/>
</g>
<g>
<circle cx="124.0" cy="160.0" r="4.0" stroke="#000000" stroke-width="4.0" fill="none" />
<text text-anchor="start" x="134.0" y="169.0" fill="#000000" style="font-size:24px"><tspan style="font-style:italic;">O1</tspan></text>
</g>
<g>
<path d="M 50,190 L 20,190 C 30,174 30,146 20,130 L 40,130 C 70,130 90,140 100,160 C 90,180 70,190 50,190 Z" stroke="#000000" stroke-width="4.0" fill="none"/>
</g>
<g>
<circle cx="124.0" cy="280.0" r="4.0" stroke="#000000" stroke-width="4.0" fill="none" />
<text text-anchor="start" x="134.0" y="289.0" fill="#000000" style="font-size:24px"><tspan style="font-style:italic;">O0</tspan></text>
</g>
<g>
<path d="M 50,310 L 20,310 C 30,294 30,266 20,250 L 40,250 C 70,250 90,260 100,280 C 90,300 70,310 50,310 Z" stroke="#000000" stroke-width="4.0" fill="none"/>
</g>
<g>
<circle cx="124.0" cy="440.0" r="4.0" stroke="#000000" stroke-width="4.0" fill="none" />
<text text-anchor="start" x="134.0" y="449.0" fill="#000000" style="font-size:24px"><tspan style="font-style:italic;">V</tspan></text>
</g>
<g>
<path d="M 50,470 L 20,470 C 30,454 30,426 20,410 L 40,410 C 70,410 90,420 100,440 C 90,460 70,470 50,470 Z" stroke="#000000" stroke-width="4.0" fill="none"/>
</g>
<g>
<circle cx="-460.0" cy="-104.0" r="4.0" stroke="#000000" stroke-width="4.0" fill="none" />
<text text-anchor="start" x="-460.0" y="-105.0" fill="#000000" style="font-size:24px" transform="rotate(-90,-460.0,-114.0)" ><tspan style="font-style:italic;">I7</tspan></text>
</g>
<g>
<circle cx="-400.0" cy="-104.0" r="4.0" stroke="#000000" stroke-width="4.0" fill="none" />
<text text-anchor="start" x="-400.0" y="-105.0" fill="#000000" style="font-size:24px" transform="rotate(-90,-400.0,-114.0)" ><tspan style="font-style:italic;">I6</tspan></text>
</g>
<g>
<circle cx="-340.0" cy="-104.0" r="4.0" stroke="#000000" stroke-width="4.0" fill="none" />
<text text-anchor="start" x="-340.0" y="-105.0" fill="#000000" style="font-size:24px" transform="rotate(-90,-340.0,-114.0)" ><tspan style="font-style:italic;">I5</tspan></text>
</g>
<g>
<circle cx="-280.0" cy="-104.0" r="4.0" stroke="#000000" stroke-width="4.0" fill="none" />
<text text-anchor="start" x="-280.0" y="-105.0" fill="#000000" style="font-size:24px" transform="rotate(-90,-280.0,-114.0)" ><tspan style="font-style:italic;">I4</tspan></text>
</g>
<g>
<circle cx="-220.0" cy="-104.0" r="4.0" stroke="#000000" stroke-width="4.0" fill="none" />
<text text-anchor="start" x="-220.0" y="-105.0" fill="#000000" style="font-size:24px" transform="rotate(-90,-220.0,-114.0)" ><tspan style="font-style:italic;">I3</tspan></text>
</g>
<g>
<circle cx="-160.0" cy="-104.0" r="4.0" stroke="#000000" stroke-width="4.0" fill="none" />
<text text-anchor="start" x="-160.0" y="-105.0" fill="#000000" style="font-size:24px" transform="rotate(-90,-160.0,-114.0)" ><tspan style="font-style:italic;">I2</tspan></text>
</g>
<g>
<circle cx="-100.0" cy="-104.0" r="4.0" stroke="#000000" stroke-width="4.0" fill="none" />
<text text-anchor="start" x="-100.0" y="-105.0" fill="#000000" style="font-size:24px" transform="rotate(-90,-100.0,-114.0)" ><tspan style="font-style:italic;">I1</tspan></text>
</g>
<g>
<circle cx="-40.0" cy="-104.0" r="4.0" stroke="#000000" stroke-width="4.0" fill="none" />
<text text-anchor="start" x="-40.0" y="-105.0" fill="#000000" style="font-size:24px" transform="rotate(-90,-40.0,-114.0)" ><tspan style="font-style:italic;">I0</tspan></text>
</g>
</g>
</svg>