<?xml version="1.0" encoding="UTF-8" standalone="no"?>
<!-- Created with Digital by H.Neemann -->
<!-- created: Fri May 16 06:52:26 CST 2025 -->

<svg
   xmlns:svg="http://www.w3.org/2000/svg"
   xmlns="http://www.w3.org/2000/svg"
   width="195.0mm"
   height="116.85mm"
   viewBox="446 123 1300 779">
<g stroke-linecap="square">
<path d="M 1381,220 L 1381,229" stroke="#000000" stroke-width="4.0" fill="none"/>
<path d="M 1381,300 L 1381,291" stroke="#000000" stroke-width="4.0" fill="none"/>
<path d="M 1381,740 L 1381,749" stroke="#000000" stroke-width="4.0" fill="none"/>
<path d="M 1381,820 L 1381,811" stroke="#000000" stroke-width="4.0" fill="none"/>
<path d="M 1561,820 L 1561,829" stroke="#000000" stroke-width="4.0" fill="none"/>
<path d="M 1561,900 L 1561,891" stroke="#000000" stroke-width="4.0" fill="none"/>
<path d="M 1221,500 L 1221,509" stroke="#000000" stroke-width="4.0" fill="none"/>
<path d="M 1221,580 L 1221,571" stroke="#000000" stroke-width="4.0" fill="none"/>
<path d="M 760,160 L 760,320 L 1100,320 L 1104,320" stroke="#0000b2" stroke-width="4.0" fill="none"/>
<path d="M 1300,640 L 1340,640 L 1340,760 L 1380,760 L 1384,760" stroke="#0000b2" stroke-width="4.0" fill="none"/>
<path d="M 700,360 L 700,640 L 1220,640" stroke="#0000b2" stroke-width="4.0" fill="none"/>
<path d="M 1460,260 L 1540,260 L 1700,260" stroke="#0000b2" stroke-width="4.0" fill="none"/>
<path d="M 880,160 L 880,900 L 1560,900" stroke="#0000b2" stroke-width="4.0" fill="none"/>
<path d="M 1100,700 L 1100,580 L 1220,580" stroke="#0000b2" stroke-width="4.0" fill="none"/>
<path d="M 1520,440 L 1520,840 L 1560,840 L 1564,840" stroke="#0000b2" stroke-width="4.0" fill="none"/>
<path d="M 1080,620 L 1080,520 L 1220,520" stroke="#0000b2" stroke-width="4.0" fill="none"/>
<path d="M 1460,780 L 1500,780 L 1700,780" stroke="#0000b2" stroke-width="4.0" fill="none"/>
<path d="M 1080,400 L 1200,400 L 1200,380 L 1240,380" stroke="#0000b2" stroke-width="4.0" fill="none"/>
<path d="M 1300,720 L 1320,720 L 1320,800 L 1380,800 L 1384,800" stroke="#0000b2" stroke-width="4.0" fill="none"/>
<path d="M 1180,340 L 1240,340" stroke="#0000b2" stroke-width="4.0" fill="none"/>
<path d="M 1140,700 L 1140,660 L 1220,660" stroke="#0000b2" stroke-width="4.0" fill="none"/>
<path d="M 520,160 L 520,280 L 1380,280 L 1384,280" stroke="#0000b2" stroke-width="4.0" fill="none"/>
<path d="M 1640,860 L 1700,860" stroke="#0000b2" stroke-width="4.0" fill="none"/>
<path d="M 640,160 L 640,220 L 1380,220" stroke="#0000b2" stroke-width="4.0" fill="none"/>
<path d="M 1300,540 L 1360,540 L 1360,740 L 1380,740" stroke="#0000b2" stroke-width="4.0" fill="none"/>
<path d="M 580,240 L 580,420 L 980,420 L 984,420" stroke="#0000b2" stroke-width="4.0" fill="none"/>
<path d="M 580,420 L 580,740 L 1220,740" stroke="#0000b2" stroke-width="4.0" fill="none"/>
<path d="M 1320,360 L 1360,360 L 1360,420 L 1380,420 L 1384,420" stroke="#0000b2" stroke-width="4.0" fill="none"/>
<path d="M 700,160 L 700,360 L 1100,360 L 1104,360" stroke="#0000b2" stroke-width="4.0" fill="none"/>
<path d="M 460,160 L 460,300 L 1380,300" stroke="#0000b2" stroke-width="4.0" fill="none"/>
<path d="M 640,380 L 640,620 L 1020,620" stroke="#0000b2" stroke-width="4.0" fill="none"/>
<path d="M 1060,620 L 1080,620 L 1220,620" stroke="#0000b2" stroke-width="4.0" fill="none"/>
<path d="M 580,160 L 580,240 L 1380,240 L 1384,240" stroke="#0000b2" stroke-width="4.0" fill="none"/>
<path d="M 1500,780 L 1500,880 L 1560,880 L 1564,880" stroke="#0000b2" stroke-width="4.0" fill="none"/>
<path d="M 820,160 L 820,560 L 1220,560" stroke="#0000b2" stroke-width="4.0" fill="none"/>
<path d="M 1540,260 L 1540,820 L 1560,820" stroke="#0000b2" stroke-width="4.0" fill="none"/>
<path d="M 1060,500 L 1220,500" stroke="#0000b2" stroke-width="4.0" fill="none"/>
<path d="M 760,320 L 760,500 L 1020,500" stroke="#0000b2" stroke-width="4.0" fill="none"/>
<path d="M 1460,440 L 1520,440 L 1700,440" stroke="#0000b2" stroke-width="4.0" fill="none"/>
<path d="M 520,280 L 520,440 L 1380,440 L 1387,440" stroke="#0000b2" stroke-width="4.0" fill="none"/>
<path d="M 640,220 L 640,380 L 980,380 L 984,380" stroke="#0000b2" stroke-width="4.0" fill="none"/>
<path d="M 520,440 L 520,700 L 1020,700" stroke="#0000b2" stroke-width="4.0" fill="none"/>
<path d="M 1060,700 L 1100,700 L 1140,700 L 1220,700" stroke="#0000b2" stroke-width="4.0" fill="none"/>
<path d="M 1384,460 L 1380,460 L 460,460 L 460,820 L 1380,820" stroke="#0000b2" stroke-width="4.0" fill="none"/>
<path d="M 460,300 L 460,460" stroke="#0000b2" stroke-width="4.0" fill="none"/>
<g>
<circle cx="760.0" cy="320.0" r="4.0" stroke="#0000b2" stroke-width="4.0" fill="#0000b2" />
<circle cx="1540.0" cy="260.0" r="4.0" stroke="#0000b2" stroke-width="4.0" fill="#0000b2" />
<circle cx="1500.0" cy="780.0" r="4.0" stroke="#0000b2" stroke-width="4.0" fill="#0000b2" />
<circle cx="460.0" cy="460.0" r="4.0" stroke="#0000b2" stroke-width="4.0" fill="#0000b2" />
<circle cx="520.0" cy="280.0" r="4.0" stroke="#0000b2" stroke-width="4.0" fill="#0000b2" />
<circle cx="640.0" cy="220.0" r="4.0" stroke="#0000b2" stroke-width="4.0" fill="#0000b2" />
<circle cx="580.0" cy="420.0" r="4.0" stroke="#0000b2" stroke-width="4.0" fill="#0000b2" />
<circle cx="700.0" cy="360.0" r="4.0" stroke="#0000b2" stroke-width="4.0" fill="#0000b2" />
<circle cx="460.0" cy="300.0" r="4.0" stroke="#0000b2" stroke-width="4.0" fill="#0000b2" />
<circle cx="1080.0" cy="620.0" r="4.0" stroke="#0000b2" stroke-width="4.0" fill="#0000b2" />
<circle cx="580.0" cy="240.0" r="4.0" stroke="#0000b2" stroke-width="4.0" fill="#0000b2" />
<circle cx="1520.0" cy="440.0" r="4.0" stroke="#0000b2" stroke-width="4.0" fill="#0000b2" />
<circle cx="520.0" cy="440.0" r="4.0" stroke="#0000b2" stroke-width="4.0" fill="#0000b2" />
<circle cx="640.0" cy="380.0" r="4.0" stroke="#0000b2" stroke-width="4.0" fill="#0000b2" />
<circle cx="1100.0" cy="700.0" r="4.0" stroke="#0000b2" stroke-width="4.0" fill="#0000b2" />
<circle cx="1140.0" cy="700.0" r="4.0" stroke="#0000b2" stroke-width="4.0" fill="#0000b2" />
</g>
<g>
<circle cx="880.0" cy="156.0" r="4.0" stroke="#000000" stroke-width="4.0" fill="none" />
<text text-anchor="start" x="880.0" y="155.0" fill="#000000" style="font-size:24px" transform="rotate(-90,880.0,146.0)" ><tspan style="font-style:italic;">I0</tspan></text>
</g>
<g>
<circle cx="820.0" cy="156.0" r="4.0" stroke="#000000" stroke-width="4.0" fill="none" />
<text text-anchor="start" x="820.0" y="155.0" fill="#000000" style="font-size:24px" transform="rotate(-90,820.0,146.0)" ><tspan style="font-style:italic;">I1</tspan></text>
</g>
<g>
<circle cx="760.0" cy="156.0" r="4.0" stroke="#000000" stroke-width="4.0" fill="none" />
<text text-anchor="start" x="760.0" y="155.0" fill="#000000" style="font-size:24px" transform="rotate(-90,760.0,146.0)" ><tspan style="font-style:italic;">I2</tspan></text>
</g>
<g>
<circle cx="700.0" cy="156.0" r="4.0" stroke="#000000" stroke-width="4.0" fill="none" />
<text text-anchor="start" x="700.0" y="155.0" fill="#000000" style="font-size:24px" transform="rotate(-90,700.0,146.0)" ><tspan style="font-style:italic;">I3</tspan></text>
</g>
<g>
<circle cx="640.0" cy="156.0" r="4.0" stroke="#000000" stroke-width="4.0" fill="none" />
<text text-anchor="start" x="640.0" y="155.0" fill="#000000" style="font-size:24px" transform="rotate(-90,640.0,146.0)" ><tspan style="font-style:italic;">I4</tspan></text>
</g>
<g>
<circle cx="580.0" cy="156.0" r="4.0" stroke="#000000" stroke-width="4.0" fill="none" />
<text text-anchor="start" x="580.0" y="155.0" fill="#000000" style="font-size:24px" transform="rotate(-90,580.0,146.0)" ><tspan style="font-style:italic;">I5</tspan></text>
</g>
<g>
<circle cx="520.0" cy="156.0" r="4.0" stroke="#000000" stroke-width="4.0" fill="none" />
<text text-anchor="start" x="520.0" y="155.0" fill="#000000" style="font-size:24px" transform="rotate(-90,520.0,146.0)" ><tspan style="font-style:italic;">I6</tspan></text>
</g>
<g>
<circle cx="460.0" cy="156.0" r="4.0" stroke="#000000" stroke-width="4.0" fill="none" />
<text text-anchor="start" x="460.0" y="155.0" fill="#000000" style="font-size:24px" transform="rotate(-90,460.0,146.0)" ><tspan style="font-style:italic;">I7</tspan></text>
</g>
<g>
<circle cx="1704.0" cy="260.0" r="4.0" stroke="#000000" stroke-width="4.0" fill="none" />
<text text-anchor="start" x="1714.0" y="269.0" fill="#000000" style="font-size:24px"><tspan style="font-style:italic;">O2</tspan></text>
</g>
<g>
<circle cx="1704.0" cy="440.0" r="4.0" stroke="#000000" stroke-width="4.0" fill="none" />
<text text-anchor="start" x="1714.0" y="449.0" fill="#000000" style="font-size:24px"><tspan style="font-style:italic;">O1</tspan></text>
</g>
<g>
<circle cx="1704.0" cy="780.0" r="4.0" stroke="#000000" stroke-width="4.0" fill="none" />
<text text-anchor="start" x="1714.0" y="789.0" fill="#000000" style="font-size:24px"><tspan style="font-style:italic;">O0</tspan></text>
</g>
<g>
<circle cx="1704.0" cy="860.0" r="4.0" stroke="#000000" stroke-width="4.0" fill="none" />
<text text-anchor="start" x="1714.0" y="869.0" fill="#000000" style="font-size:24px"><tspan style="font-style:italic;">V</tspan></text>
</g>
<g>
<path d="M 1410,290 L 1380,290 C 1390,274 1390,246 1380,230 L 1400,230 C 1430,230 1450,240 1460,260 C 1450,280 1430,290 1410,290 Z" stroke="#000000" stroke-width="4.0" fill="none"/>
</g>
<g>
<path d="M 1410,470 L 1380,470 C 1390,454 1390,426 1380,410 L 1400,410 C 1430,410 1450,420 1460,440 C 1450,460 1430,470 1410,470 Z" stroke="#000000" stroke-width="4.0" fill="none"/>
</g>
<g>
<path d="M 1410,810 L 1380,810 C 1390,794 1390,766 1380,750 L 1400,750 C 1430,750 1450,760 1460,780 C 1450,800 1430,810 1410,810 Z" stroke="#000000" stroke-width="4.0" fill="none"/>
</g>
<g>
<path d="M 1590,890 L 1560,890 C 1570,874 1570,846 1560,830 L 1580,830 C 1610,830 1630,840 1640,860 C 1630,880 1610,890 1590,890 Z" stroke="#000000" stroke-width="4.0" fill="none"/>
</g>
<g>
<path d="M 1290,390 L 1241,390 L 1241,330 L 1290,330 C 1300,330 1320,340 1319,360 C 1319,380 1300,390 1290,390 Z" stroke="#000000" stroke-width="4.0" fill="none"/>
</g>
<g>
<path d="M 1130,370 L 1100,370 C 1110,354 1110,326 1100,310 L 1120,310 C 1150,310 1170,320 1180,340 C 1170,360 1150,370 1130,370 Z" stroke="#000000" stroke-width="4.0" fill="none"/>
</g>
<g>
<path d="M 1010,430 L 980,430 C 990,414 990,386 980,370 L 1000,370 C 1030,370 1050,380 1060,400 C 1050,420 1030,430 1010,430 Z" stroke="#000000" stroke-width="4.0" fill="none"/>
<circle cx="1070.0" cy="400.0" r="9.0" stroke="#000000" stroke-width="4.0" fill="none" />
</g>
<g>
<path d="M 1270,570 L 1221,570 L 1221,510 L 1270,510 C 1280,510 1300,520 1299,540 C 1299,560 1280,570 1270,570 Z" stroke="#000000" stroke-width="4.0" fill="none"/>
</g>
<g>
<path d="M 1270,670 L 1221,670 L 1221,610 L 1270,610 C 1280,610 1300,620 1299,640 C 1299,660 1280,670 1270,670 Z" stroke="#000000" stroke-width="4.0" fill="none"/>
</g>
<g>
<path d="M 1270,750 L 1221,750 L 1221,690 L 1270,690 C 1280,690 1300,700 1299,720 C 1299,740 1280,750 1270,750 Z" stroke="#000000" stroke-width="4.0" fill="none"/>
</g>
<g>
<path d="M 1021,488 L 1039,500 L 1021,512 Z" stroke="#000000" stroke-width="4.0" fill="none"/>
<circle cx="1050.0" cy="500.0" r="9.0" stroke="#000000" stroke-width="4.0" fill="none" />
</g>
<g>
<path d="M 1021,608 L 1039,620 L 1021,632 Z" stroke="#000000" stroke-width="4.0" fill="none"/>
<circle cx="1050.0" cy="620.0" r="9.0" stroke="#000000" stroke-width="4.0" fill="none" />
</g>
<g>
<path d="M 1021,688 L 1039,700 L 1021,712 Z" stroke="#000000" stroke-width="4.0" fill="none"/>
<circle cx="1050.0" cy="700.0" r="9.0" stroke="#000000" stroke-width="4.0" fill="none" />
</g>
</g>
</svg>