<?xml version="1.0" encoding="UTF-8" standalone="no"?>
<!-- Created with Digital by H.Neemann -->
<!-- created: Fri May 16 08:39:58 CST 2025 -->

<svg
   xmlns:svg="http://www.w3.org/2000/svg"
   xmlns="http://www.w3.org/2000/svg"
   width="78.6mm"
   height="263.85mm"
   viewBox="-234 -137 524 1759">
<g stroke-linecap="square">
<path d="M 161,100 L 161,109" stroke="#000000" stroke-width="4.0" fill="none"/>
<path d="M 161,180 L 161,171" stroke="#000000" stroke-width="4.0" fill="none"/>
<path d="M 161,660 L 161,669" stroke="#000000" stroke-width="4.0" fill="none"/>
<path d="M 161,740 L 161,731" stroke="#000000" stroke-width="4.0" fill="none"/>
<path d="M 161,1140 L 161,1149" stroke="#000000" stroke-width="4.0" fill="none"/>
<path d="M 161,1220 L 161,1211" stroke="#000000" stroke-width="4.0" fill="none"/>
<path d="M 161,1460 L 161,1469" stroke="#000000" stroke-width="4.0" fill="none"/>
<path d="M 161,1540 L 161,1531" stroke="#000000" stroke-width="4.0" fill="none"/>
<path d="M -20,-20 L -20,0 L 20,0" stroke="#0000b2" stroke-width="4.0" fill="none"/>
<path d="M 100,260 L 120,260 L 120,320 L 140,320 L 144,320" stroke="#0000b2" stroke-width="4.0" fill="none"/>
<path d="M 100,900 L 120,900 L 120,920 L 140,920 L 144,920" stroke="#0000b2" stroke-width="4.0" fill="none"/>
<path d="M 100,1540 L 120,1540 L 120,1520 L 160,1520 L 164,1520" stroke="#0000b2" stroke-width="4.0" fill="none"/>
<path d="M -20,680 L -20,520 L 20,520" stroke="#0000b2" stroke-width="4.0" fill="none"/>
<path d="M -160,1240 L -160,1160 L 20,1160" stroke="#0000b2" stroke-width="4.0" fill="none"/>
<path d="M 240,140 L 260,140" stroke="#0000b2" stroke-width="4.0" fill="none"/>
<path d="M 100,780 L 120,780 L 120,720 L 160,720 L 164,720" stroke="#0000b2" stroke-width="4.0" fill="none"/>
<path d="M -20,960 L -20,1040 L 20,1040" stroke="#0000b2" stroke-width="4.0" fill="none"/>
<path d="M 100,20 L 140,20 L 140,100 L 160,100" stroke="#0000b2" stroke-width="4.0" fill="none"/>
<path d="M 100,1300 L 140,1300 L 140,1220 L 160,1220" stroke="#0000b2" stroke-width="4.0" fill="none"/>
<path d="M -80,-20 L -80,280 L 20,280" stroke="#0000b2" stroke-width="4.0" fill="none"/>
<path d="M -140,1480 L -140,920 L 20,920" stroke="#0000b2" stroke-width="4.0" fill="none"/>
<path d="M -160,1620 L -160,1560 L 20,1560" stroke="#0000b2" stroke-width="4.0" fill="none"/>
<path d="M 100,540 L 140,540 L 140,660 L 160,660" stroke="#0000b2" stroke-width="4.0" fill="none"/>
<path d="M 240,1180 L 260,1180" stroke="#0000b2" stroke-width="4.0" fill="none"/>
<path d="M -100,-80 L -100,160 L 160,160 L 164,160" stroke="#0000b2" stroke-width="4.0" fill="none"/>
<path d="M -140,560 L -140,800 L 20,800" stroke="#0000b2" stroke-width="4.0" fill="none"/>
<path d="M -100,1620 L -100,1440 L 20,1440" stroke="#0000b2" stroke-width="4.0" fill="none"/>
<path d="M 100,1060 L 140,1060 L 140,1140 L 160,1140" stroke="#0000b2" stroke-width="4.0" fill="none"/>
<path d="M -140,-20 L -140,40 L 20,40" stroke="#0000b2" stroke-width="4.0" fill="none"/>
<path d="M -20,880 L -20,680 L 20,680" stroke="#0000b2" stroke-width="4.0" fill="none"/>
<path d="M 220,940 L 260,940" stroke="#0000b2" stroke-width="4.0" fill="none"/>
<path d="M -80,1080 L -80,1200 L 20,1200" stroke="#0000b2" stroke-width="4.0" fill="none"/>
<path d="M 100,1460 L 120,1460 L 120,1480 L 160,1480 L 164,1480" stroke="#0000b2" stroke-width="4.0" fill="none"/>
<path d="M 100,700 L 160,700 L 167,700" stroke="#0000b2" stroke-width="4.0" fill="none"/>
<path d="M 240,700 L 260,700" stroke="#0000b2" stroke-width="4.0" fill="none"/>
<path d="M -40,80 L -40,320 L 20,320" stroke="#0000b2" stroke-width="4.0" fill="none"/>
<path d="M -220,1620 L -220,1600 L 140,1600 L 140,1540 L 160,1540" stroke="#0000b2" stroke-width="4.0" fill="none"/>
<path d="M 100,1220 L 120,1220 L 120,1200 L 160,1200 L 164,1200" stroke="#0000b2" stroke-width="4.0" fill="none"/>
<path d="M -220,-100 L -220,200 L 140,200 L 140,180 L 160,180" stroke="#0000b2" stroke-width="4.0" fill="none"/>
<path d="M -140,1620 L -140,1480 L 20,1480" stroke="#0000b2" stroke-width="4.0" fill="none"/>
<path d="M -80,280 L -80,460 L 20,460 L 27,460" stroke="#0000b2" stroke-width="4.0" fill="none"/>
<path d="M 100,460 L 260,460" stroke="#0000b2" stroke-width="4.0" fill="none"/>
<path d="M -160,-100 L -160,-80 L -140,-80 L -140,-60" stroke="#0000b2" stroke-width="4.0" fill="none"/>
<path d="M -100,-100 L -100,-80 L -80,-80 L -80,-60" stroke="#0000b2" stroke-width="4.0" fill="none"/>
<path d="M -40,-100 L -40,-80 L -20,-80 L -20,-60" stroke="#0000b2" stroke-width="4.0" fill="none"/>
<path d="M -40,-80 L -40,80 L 20,80" stroke="#0000b2" stroke-width="4.0" fill="none"/>
<path d="M -100,760 L -100,720 L 20,720" stroke="#0000b2" stroke-width="4.0" fill="none"/>
<path d="M -20,1620 L -20,1360 L 20,1360" stroke="#0000b2" stroke-width="4.0" fill="none"/>
<path d="M 100,340 L 140,340 L 147,340" stroke="#0000b2" stroke-width="4.0" fill="none"/>
<path d="M 220,340 L 260,340" stroke="#0000b2" stroke-width="4.0" fill="none"/>
<path d="M 100,980 L 120,980 L 120,960 L 140,960 L 144,960" stroke="#0000b2" stroke-width="4.0" fill="none"/>
<path d="M -160,1560 L -160,1240 L 20,1240" stroke="#0000b2" stroke-width="4.0" fill="none"/>
<path d="M 240,1500 L 260,1500" stroke="#0000b2" stroke-width="4.0" fill="none"/>
<path d="M -20,1040 L -20,1120 L 20,1120" stroke="#0000b2" stroke-width="4.0" fill="none"/>
<path d="M 100,100 L 120,100 L 120,120 L 160,120 L 164,120" stroke="#0000b2" stroke-width="4.0" fill="none"/>
<path d="M 100,1380 L 140,1380 L 140,1460 L 160,1460" stroke="#0000b2" stroke-width="4.0" fill="none"/>
<path d="M -100,160 L -100,360 L 20,360" stroke="#0000b2" stroke-width="4.0" fill="none"/>
<path d="M 100,620 L 120,620 L 120,680 L 160,680 L 164,680" stroke="#0000b2" stroke-width="4.0" fill="none"/>
<path d="M -20,0 L -20,240 L 20,240" stroke="#0000b2" stroke-width="4.0" fill="none"/>
<path d="M 100,1140 L 120,1140 L 120,1160 L 160,1160 L 164,1160" stroke="#0000b2" stroke-width="4.0" fill="none"/>
<path d="M -160,-80 L -160,120 L 20,120" stroke="#0000b2" stroke-width="4.0" fill="none"/>
<path d="M -100,1000 L -100,1400 L 20,1400" stroke="#0000b2" stroke-width="4.0" fill="none"/>
<path d="M 20,1000 L -100,1000 L -100,760 L 20,760" stroke="#0000b2" stroke-width="4.0" fill="none"/>
<path d="M -100,1400 L -100,1440" stroke="#0000b2" stroke-width="4.0" fill="none"/>
<path d="M -100,360 L -100,720" stroke="#0000b2" stroke-width="4.0" fill="none"/>
<path d="M 20,960 L -20,960 L -20,880 L 20,880" stroke="#0000b2" stroke-width="4.0" fill="none"/>
<path d="M -20,240 L -20,520" stroke="#0000b2" stroke-width="4.0" fill="none"/>
<path d="M -20,1120 L -20,1360" stroke="#0000b2" stroke-width="4.0" fill="none"/>
<path d="M 24,440 L 20,440 L -40,440 L -40,600 L 20,600" stroke="#0000b2" stroke-width="4.0" fill="none"/>
<path d="M -40,600 L -40,1620" stroke="#0000b2" stroke-width="4.0" fill="none"/>
<path d="M -40,320 L -40,440" stroke="#0000b2" stroke-width="4.0" fill="none"/>
<path d="M 20,1320 L -220,1320 L -220,840 L 140,840 L 140,740 L 160,740" stroke="#0000b2" stroke-width="4.0" fill="none"/>
<path d="M -220,1320 L -220,1600" stroke="#0000b2" stroke-width="4.0" fill="none"/>
<path d="M -220,200 L -220,840" stroke="#0000b2" stroke-width="4.0" fill="none"/>
<path d="M 144,360 L 140,360 L 120,360 L 120,400 L -140,400 L -140,560 L 20,560" stroke="#0000b2" stroke-width="4.0" fill="none"/>
<path d="M -140,40 L -140,400" stroke="#0000b2" stroke-width="4.0" fill="none"/>
<path d="M -140,800 L -140,920" stroke="#0000b2" stroke-width="4.0" fill="none"/>
<path d="M 20,640 L -160,640 L -160,480 L 20,480 L 24,480" stroke="#0000b2" stroke-width="4.0" fill="none"/>
<path d="M -160,640 L -160,1160" stroke="#0000b2" stroke-width="4.0" fill="none"/>
<path d="M -160,120 L -160,480" stroke="#0000b2" stroke-width="4.0" fill="none"/>
<path d="M 20,1080 L -80,1080 L -80,620 L 20,620" stroke="#0000b2" stroke-width="4.0" fill="none"/>
<path d="M 20,1280 L -80,1280 L -80,1520 L 20,1520" stroke="#0000b2" stroke-width="4.0" fill="none"/>
<path d="M -80,1520 L -80,1620" stroke="#0000b2" stroke-width="4.0" fill="none"/>
<path d="M -80,460 L -80,620" stroke="#0000b2" stroke-width="4.0" fill="none"/>
<path d="M -80,1200 L -80,1280" stroke="#0000b2" stroke-width="4.0" fill="none"/>
<g>
<circle cx="-20.0" cy="0.0" r="4.0" stroke="#0000b2" stroke-width="4.0" fill="#0000b2" />
<circle cx="-160.0" cy="640.0" r="4.0" stroke="#0000b2" stroke-width="4.0" fill="#0000b2" />
<circle cx="-80.0" cy="1280.0" r="4.0" stroke="#0000b2" stroke-width="4.0" fill="#0000b2" />
<circle cx="-20.0" cy="520.0" r="4.0" stroke="#0000b2" stroke-width="4.0" fill="#0000b2" />
<circle cx="-160.0" cy="1160.0" r="4.0" stroke="#0000b2" stroke-width="4.0" fill="#0000b2" />
<circle cx="-140.0" cy="400.0" r="4.0" stroke="#0000b2" stroke-width="4.0" fill="#0000b2" />
<circle cx="-20.0" cy="1040.0" r="4.0" stroke="#0000b2" stroke-width="4.0" fill="#0000b2" />
<circle cx="-80.0" cy="280.0" r="4.0" stroke="#0000b2" stroke-width="4.0" fill="#0000b2" />
<circle cx="-140.0" cy="920.0" r="4.0" stroke="#0000b2" stroke-width="4.0" fill="#0000b2" />
<circle cx="-160.0" cy="1560.0" r="4.0" stroke="#0000b2" stroke-width="4.0" fill="#0000b2" />
<circle cx="-100.0" cy="160.0" r="4.0" stroke="#0000b2" stroke-width="4.0" fill="#0000b2" />
<circle cx="-140.0" cy="800.0" r="4.0" stroke="#0000b2" stroke-width="4.0" fill="#0000b2" />
<circle cx="-100.0" cy="1440.0" r="4.0" stroke="#0000b2" stroke-width="4.0" fill="#0000b2" />
<circle cx="-140.0" cy="40.0" r="4.0" stroke="#0000b2" stroke-width="4.0" fill="#0000b2" />
<circle cx="-20.0" cy="680.0" r="4.0" stroke="#0000b2" stroke-width="4.0" fill="#0000b2" />
<circle cx="-220.0" cy="1320.0" r="4.0" stroke="#0000b2" stroke-width="4.0" fill="#0000b2" />
<circle cx="-140.0" cy="560.0" r="4.0" stroke="#0000b2" stroke-width="4.0" fill="#0000b2" />
<circle cx="-80.0" cy="1200.0" r="4.0" stroke="#0000b2" stroke-width="4.0" fill="#0000b2" />
<circle cx="-40.0" cy="440.0" r="4.0" stroke="#0000b2" stroke-width="4.0" fill="#0000b2" />
<circle cx="-80.0" cy="1080.0" r="4.0" stroke="#0000b2" stroke-width="4.0" fill="#0000b2" />
<circle cx="-40.0" cy="320.0" r="4.0" stroke="#0000b2" stroke-width="4.0" fill="#0000b2" />
<circle cx="-20.0" cy="960.0" r="4.0" stroke="#0000b2" stroke-width="4.0" fill="#0000b2" />
<circle cx="-220.0" cy="1600.0" r="4.0" stroke="#0000b2" stroke-width="4.0" fill="#0000b2" />
<circle cx="-220.0" cy="200.0" r="4.0" stroke="#0000b2" stroke-width="4.0" fill="#0000b2" />
<circle cx="-220.0" cy="840.0" r="4.0" stroke="#0000b2" stroke-width="4.0" fill="#0000b2" />
<circle cx="-140.0" cy="1480.0" r="4.0" stroke="#0000b2" stroke-width="4.0" fill="#0000b2" />
<circle cx="-80.0" cy="460.0" r="4.0" stroke="#0000b2" stroke-width="4.0" fill="#0000b2" />
<circle cx="-160.0" cy="-80.0" r="4.0" stroke="#0000b2" stroke-width="4.0" fill="#0000b2" />
<circle cx="-100.0" cy="-80.0" r="4.0" stroke="#0000b2" stroke-width="4.0" fill="#0000b2" />
<circle cx="-40.0" cy="-80.0" r="4.0" stroke="#0000b2" stroke-width="4.0" fill="#0000b2" />
<circle cx="-40.0" cy="80.0" r="4.0" stroke="#0000b2" stroke-width="4.0" fill="#0000b2" />
<circle cx="-100.0" cy="720.0" r="4.0" stroke="#0000b2" stroke-width="4.0" fill="#0000b2" />
<circle cx="-20.0" cy="1360.0" r="4.0" stroke="#0000b2" stroke-width="4.0" fill="#0000b2" />
<circle cx="-40.0" cy="600.0" r="4.0" stroke="#0000b2" stroke-width="4.0" fill="#0000b2" />
<circle cx="-160.0" cy="1240.0" r="4.0" stroke="#0000b2" stroke-width="4.0" fill="#0000b2" />
<circle cx="-160.0" cy="480.0" r="4.0" stroke="#0000b2" stroke-width="4.0" fill="#0000b2" />
<circle cx="-20.0" cy="1120.0" r="4.0" stroke="#0000b2" stroke-width="4.0" fill="#0000b2" />
<circle cx="-100.0" cy="360.0" r="4.0" stroke="#0000b2" stroke-width="4.0" fill="#0000b2" />
<circle cx="-100.0" cy="1000.0" r="4.0" stroke="#0000b2" stroke-width="4.0" fill="#0000b2" />
<circle cx="-80.0" cy="620.0" r="4.0" stroke="#0000b2" stroke-width="4.0" fill="#0000b2" />
<circle cx="-20.0" cy="240.0" r="4.0" stroke="#0000b2" stroke-width="4.0" fill="#0000b2" />
<circle cx="-20.0" cy="880.0" r="4.0" stroke="#0000b2" stroke-width="4.0" fill="#0000b2" />
<circle cx="-80.0" cy="1520.0" r="4.0" stroke="#0000b2" stroke-width="4.0" fill="#0000b2" />
<circle cx="-160.0" cy="120.0" r="4.0" stroke="#0000b2" stroke-width="4.0" fill="#0000b2" />
<circle cx="-100.0" cy="760.0" r="4.0" stroke="#0000b2" stroke-width="4.0" fill="#0000b2" />
<circle cx="-100.0" cy="1400.0" r="4.0" stroke="#0000b2" stroke-width="4.0" fill="#0000b2" />
</g>
<g>
<circle cx="264.0" cy="140.0" r="4.0" stroke="#000000" stroke-width="4.0" fill="none" />
<text text-anchor="start" x="274.0" y="149.0" fill="#000000" style="font-size:24px"><tspan style="font-style:italic;">a</tspan></text>
</g>
<g>
<path d="M 190,170 L 160,170 C 170,154 170,126 160,110 L 180,110 C 210,110 230,120 240,140 C 230,160 210,170 190,170 Z" stroke="#000000" stroke-width="4.0" fill="none"/>
</g>
<g>
<path d="M 70,50 L 21,50 L 21,-10 L 70,-10 C 80,-10 100,0 99,20 C 99,40 80,50 70,50 Z" stroke="#000000" stroke-width="4.0" fill="none"/>
</g>
<g>
<path d="M 70,130 L 21,130 L 21,70 L 70,70 C 80,70 100,80 99,100 C 99,120 80,130 70,130 Z" stroke="#000000" stroke-width="4.0" fill="none"/>
</g>
<g>
<circle cx="264.0" cy="340.0" r="4.0" stroke="#000000" stroke-width="4.0" fill="none" />
<text text-anchor="start" x="274.0" y="349.0" fill="#000000" style="font-size:24px"><tspan style="font-style:italic;">b</tspan></text>
</g>
<g>
<path d="M 170,370 L 140,370 C 150,354 150,326 140,310 L 160,310 C 190,310 210,320 220,340 C 210,360 190,370 170,370 Z" stroke="#000000" stroke-width="4.0" fill="none"/>
</g>
<g>
<path d="M 70,290 L 21,290 L 21,230 L 70,230 C 80,230 100,240 99,260 C 99,280 80,290 70,290 Z" stroke="#000000" stroke-width="4.0" fill="none"/>
</g>
<g>
<path d="M 70,370 L 21,370 L 21,310 L 70,310 C 80,310 100,320 99,340 C 99,360 80,370 70,370 Z" stroke="#000000" stroke-width="4.0" fill="none"/>
</g>
<g>
<circle cx="264.0" cy="460.0" r="4.0" stroke="#000000" stroke-width="4.0" fill="none" />
<text text-anchor="start" x="274.0" y="469.0" fill="#000000" style="font-size:24px"><tspan style="font-style:italic;">c</tspan></text>
</g>
<g>
<path d="M 50,490 L 20,490 C 30,474 30,446 20,430 L 40,430 C 70,430 90,440 100,460 C 90,480 70,490 50,490 Z" stroke="#000000" stroke-width="4.0" fill="none"/>
</g>
<g>
<circle cx="264.0" cy="700.0" r="4.0" stroke="#000000" stroke-width="4.0" fill="none" />
<text text-anchor="start" x="274.0" y="709.0" fill="#000000" style="font-size:24px"><tspan style="font-style:italic;">d</tspan></text>
</g>
<g>
<path d="M 190,730 L 160,730 C 170,714 170,686 160,670 L 180,670 C 210,670 230,680 240,700 C 230,720 210,730 190,730 Z" stroke="#000000" stroke-width="4.0" fill="none"/>
</g>
<g>
<path d="M 70,570 L 21,570 L 21,510 L 70,510 C 80,510 100,520 99,540 C 99,560 80,570 70,570 Z" stroke="#000000" stroke-width="4.0" fill="none"/>
</g>
<g>
<path d="M 70,650 L 21,650 L 21,590 L 70,590 C 80,590 100,600 99,620 C 99,640 80,650 70,650 Z" stroke="#000000" stroke-width="4.0" fill="none"/>
</g>
<g>
<path d="M 70,730 L 21,730 L 21,670 L 70,670 C 80,670 100,680 99,700 C 99,720 80,730 70,730 Z" stroke="#000000" stroke-width="4.0" fill="none"/>
</g>
<g>
<path d="M 70,810 L 21,810 L 21,750 L 70,750 C 80,750 100,760 99,780 C 99,800 80,810 70,810 Z" stroke="#000000" stroke-width="4.0" fill="none"/>
</g>
<g>
<circle cx="264.0" cy="940.0" r="4.0" stroke="#000000" stroke-width="4.0" fill="none" />
<text text-anchor="start" x="274.0" y="949.0" fill="#000000" style="font-size:24px"><tspan style="font-style:italic;">e</tspan></text>
</g>
<g>
<path d="M 170,970 L 140,970 C 150,954 150,926 140,910 L 160,910 C 190,910 210,920 220,940 C 210,960 190,970 170,970 Z" stroke="#000000" stroke-width="4.0" fill="none"/>
</g>
<g>
<path d="M 70,930 L 21,930 L 21,870 L 70,870 C 80,870 100,880 99,900 C 99,920 80,930 70,930 Z" stroke="#000000" stroke-width="4.0" fill="none"/>
</g>
<g>
<path d="M 70,1010 L 21,1010 L 21,950 L 70,950 C 80,950 100,960 99,980 C 99,1000 80,1010 70,1010 Z" stroke="#000000" stroke-width="4.0" fill="none"/>
</g>
<g>
<circle cx="264.0" cy="1180.0" r="4.0" stroke="#000000" stroke-width="4.0" fill="none" />
<text text-anchor="start" x="274.0" y="1189.0" fill="#000000" style="font-size:24px"><tspan style="font-style:italic;">f</tspan></text>
</g>
<g>
<path d="M 190,1210 L 160,1210 C 170,1194 170,1166 160,1150 L 180,1150 C 210,1150 230,1160 240,1180 C 230,1200 210,1210 190,1210 Z" stroke="#000000" stroke-width="4.0" fill="none"/>
</g>
<g>
<path d="M 70,1090 L 21,1090 L 21,1030 L 70,1030 C 80,1030 100,1040 99,1060 C 99,1080 80,1090 70,1090 Z" stroke="#000000" stroke-width="4.0" fill="none"/>
</g>
<g>
<path d="M 70,1170 L 21,1170 L 21,1110 L 70,1110 C 80,1110 100,1120 99,1140 C 99,1160 80,1170 70,1170 Z" stroke="#000000" stroke-width="4.0" fill="none"/>
</g>
<g>
<path d="M 70,1250 L 21,1250 L 21,1190 L 70,1190 C 80,1190 100,1200 99,1220 C 99,1240 80,1250 70,1250 Z" stroke="#000000" stroke-width="4.0" fill="none"/>
</g>
<g>
<path d="M 70,1330 L 21,1330 L 21,1270 L 70,1270 C 80,1270 100,1280 99,1300 C 99,1320 80,1330 70,1330 Z" stroke="#000000" stroke-width="4.0" fill="none"/>
</g>
<g>
<circle cx="264.0" cy="1500.0" r="4.0" stroke="#000000" stroke-width="4.0" fill="none" />
<text text-anchor="start" x="274.0" y="1509.0" fill="#000000" style="font-size:24px"><tspan style="font-style:italic;">g</tspan></text>
</g>
<g>
<path d="M 190,1530 L 160,1530 C 170,1514 170,1486 160,1470 L 180,1470 C 210,1470 230,1480 240,1500 C 230,1520 210,1530 190,1530 Z" stroke="#000000" stroke-width="4.0" fill="none"/>
</g>
<g>
<path d="M 70,1410 L 21,1410 L 21,1350 L 70,1350 C 80,1350 100,1360 99,1380 C 99,1400 80,1410 70,1410 Z" stroke="#000000" stroke-width="4.0" fill="none"/>
</g>
<g>
<path d="M 70,1490 L 21,1490 L 21,1430 L 70,1430 C 80,1430 100,1440 99,1460 C 99,1480 80,1490 70,1490 Z" stroke="#000000" stroke-width="4.0" fill="none"/>
</g>
<g>
<path d="M 70,1570 L 21,1570 L 21,1510 L 70,1510 C 80,1510 100,1520 99,1540 C 99,1560 80,1570 70,1570 Z" stroke="#000000" stroke-width="4.0" fill="none"/>
</g>
<g>
<circle cx="-220.0" cy="-104.0" r="4.0" stroke="#000000" stroke-width="4.0" fill="none" />
<text text-anchor="start" x="-220.0" y="-105.0" fill="#000000" style="font-size:24px" transform="rotate(-90,-220.0,-114.0)" ><tspan style="font-style:italic;">I<tspan style="font-size:80%;baseline-shift:sub;">3</tspan></tspan></text>
</g>
<g>
<circle cx="-160.0" cy="-104.0" r="4.0" stroke="#000000" stroke-width="4.0" fill="none" />
<text text-anchor="start" x="-160.0" y="-105.0" fill="#000000" style="font-size:24px" transform="rotate(-90,-160.0,-114.0)" ><tspan style="font-style:italic;">I<tspan style="font-size:80%;baseline-shift:sub;">2</tspan></tspan></text>
</g>
<g>
<path d="M -128,-59 L -140,-41 L -152,-59 Z" stroke="#000000" stroke-width="4.0" fill="none"/>
<circle cx="-140.0" cy="-30.0" r="9.0" stroke="#000000" stroke-width="4.0" fill="none" />
</g>
<g>
<circle cx="-100.0" cy="-104.0" r="4.0" stroke="#000000" stroke-width="4.0" fill="none" />
<text text-anchor="start" x="-100.0" y="-105.0" fill="#000000" style="font-size:24px" transform="rotate(-90,-100.0,-114.0)" ><tspan style="font-style:italic;">I<tspan style="font-size:80%;baseline-shift:sub;">1</tspan></tspan></text>
</g>
<g>
<path d="M -68,-59 L -80,-41 L -92,-59 Z" stroke="#000000" stroke-width="4.0" fill="none"/>
<circle cx="-80.0" cy="-30.0" r="9.0" stroke="#000000" stroke-width="4.0" fill="none" />
</g>
<g>
<circle cx="-40.0" cy="-104.0" r="4.0" stroke="#000000" stroke-width="4.0" fill="none" />
<text text-anchor="start" x="-40.0" y="-105.0" fill="#000000" style="font-size:24px" transform="rotate(-90,-40.0,-114.0)" ><tspan style="font-style:italic;">I<tspan style="font-size:80%;baseline-shift:sub;">0</tspan></tspan></text>
</g>
<g>
<path d="M -8,-59 L -20,-41 L -32,-59 Z" stroke="#000000" stroke-width="4.0" fill="none"/>
<circle cx="-20.0" cy="-30.0" r="9.0" stroke="#000000" stroke-width="4.0" fill="none" />
</g>
</g>
</svg>