<?xml version="1.0" encoding="UTF-8" standalone="no"?>
<!-- Created with Digital by H.Neemann -->
<!-- created: Fri May 16 08:21:34 CST 2025 -->

<svg
   xmlns:svg="http://www.w3.org/2000/svg"
   xmlns="http://www.w3.org/2000/svg"
   width="57.6mm"
   height="52.8mm"
   viewBox="-114 -130 384 352">
<g stroke-linecap="square">
<path d="M -80,-20 L -80,80 L 20,80" stroke="#0000b2" stroke-width="4.0" fill="none"/>
<path d="M 100,20 L 240,20" stroke="#0000b2" stroke-width="4.0" fill="none"/>
<path d="M 100,100 L 120,100 L 120,120 L 140,120 L 144,120" stroke="#0000b2" stroke-width="4.0" fill="none"/>
<path d="M 100,180 L 120,180 L 120,160 L 140,160 L 144,160" stroke="#0000b2" stroke-width="4.0" fill="none"/>
<path d="M -40,-80 L -40,40 L 20,40" stroke="#0000b2" stroke-width="4.0" fill="none"/>
<path d="M -40,220 L -40,120 L 20,120" stroke="#0000b2" stroke-width="4.0" fill="none"/>
<path d="M -20,-20 L -20,200 L 20,200" stroke="#0000b2" stroke-width="4.0" fill="none"/>
<path d="M 220,140 L 240,140" stroke="#0000b2" stroke-width="4.0" fill="none"/>
<path d="M -100,-100 L -100,-80 L -80,-80 L -80,-60" stroke="#0000b2" stroke-width="4.0" fill="none"/>
<path d="M -40,-100 L -40,-80 L -20,-80 L -20,-60" stroke="#0000b2" stroke-width="4.0" fill="none"/>
<path d="M 20,0 L -100,0 L -100,160 L 20,160" stroke="#0000b2" stroke-width="4.0" fill="none"/>
<path d="M -100,-80 L -100,0" stroke="#0000b2" stroke-width="4.0" fill="none"/>
<path d="M -100,160 L -100,220" stroke="#0000b2" stroke-width="4.0" fill="none"/>
<path d="M -20,200 L -20,220" stroke="#0000b2" stroke-width="4.0" fill="none"/>
<path d="M -40,40 L -40,120" stroke="#0000b2" stroke-width="4.0" fill="none"/>
<path d="M -80,80 L -80,220" stroke="#0000b2" stroke-width="4.0" fill="none"/>
<g>
<circle cx="-100.0" cy="0.0" r="4.0" stroke="#0000b2" stroke-width="4.0" fill="#0000b2" />
<circle cx="-80.0" cy="80.0" r="4.0" stroke="#0000b2" stroke-width="4.0" fill="#0000b2" />
<circle cx="-100.0" cy="160.0" r="4.0" stroke="#0000b2" stroke-width="4.0" fill="#0000b2" />
<circle cx="-40.0" cy="40.0" r="4.0" stroke="#0000b2" stroke-width="4.0" fill="#0000b2" />
<circle cx="-40.0" cy="120.0" r="4.0" stroke="#0000b2" stroke-width="4.0" fill="#0000b2" />
<circle cx="-20.0" cy="200.0" r="4.0" stroke="#0000b2" stroke-width="4.0" fill="#0000b2" />
<circle cx="-100.0" cy="-80.0" r="4.0" stroke="#0000b2" stroke-width="4.0" fill="#0000b2" />
<circle cx="-40.0" cy="-80.0" r="4.0" stroke="#0000b2" stroke-width="4.0" fill="#0000b2" />
</g>
<g>
<circle cx="244.0" cy="20.0" r="4.0" stroke="#000000" stroke-width="4.0" fill="none" />
<text text-anchor="start" x="254.0" y="29.0" fill="#000000" style="font-size:24px"><tspan style="font-style:italic;">C</tspan></text>
</g>
<g>
<path d="M 70,50 L 21,50 L 21,-10 L 70,-10 C 80,-10 100,0 99,20 C 99,40 80,50 70,50 Z" stroke="#000000" stroke-width="4.0" fill="none"/>
</g>
<g>
<circle cx="244.0" cy="140.0" r="4.0" stroke="#000000" stroke-width="4.0" fill="none" />
<text text-anchor="start" x="254.0" y="149.0" fill="#000000" style="font-size:24px"><tspan style="font-style:italic;">S</tspan></text>
</g>
<g>
<path d="M 170,170 L 140,170 C 150,154 150,126 140,110 L 160,110 C 190,110 210,120 220,140 C 210,160 190,170 170,170 Z" stroke="#000000" stroke-width="4.0" fill="none"/>
</g>
<g>
<path d="M 70,130 L 21,130 L 21,70 L 70,70 C 80,70 100,80 99,100 C 99,120 80,130 70,130 Z" stroke="#000000" stroke-width="4.0" fill="none"/>
</g>
<g>
<path d="M 70,210 L 21,210 L 21,150 L 70,150 C 80,150 100,160 99,180 C 99,200 80,210 70,210 Z" stroke="#000000" stroke-width="4.0" fill="none"/>
</g>
<g>
<circle cx="-100.0" cy="-104.0" r="4.0" stroke="#000000" stroke-width="4.0" fill="none" />
<text text-anchor="start" x="-100.0" y="-105.0" fill="#000000" style="font-size:24px" transform="rotate(-90,-100.0,-114.0)" ><tspan style="font-style:italic;">A</tspan></text>
</g>
<g>
<path d="M -68,-59 L -80,-41 L -92,-59 Z" stroke="#000000" stroke-width="4.0" fill="none"/>
<circle cx="-80.0" cy="-30.0" r="9.0" stroke="#000000" stroke-width="4.0" fill="none" />
</g>
<g>
<circle cx="-40.0" cy="-104.0" r="4.0" stroke="#000000" stroke-width="4.0" fill="none" />
<text text-anchor="start" x="-40.0" y="-105.0" fill="#000000" style="font-size:24px" transform="rotate(-90,-40.0,-114.0)" ><tspan style="font-style:italic;">B</tspan></text>
</g>
<g>
<path d="M -8,-59 L -20,-41 L -32,-59 Z" stroke="#000000" stroke-width="4.0" fill="none"/>
<circle cx="-20.0" cy="-30.0" r="9.0" stroke="#000000" stroke-width="4.0" fill="none" />
</g>
</g>
</svg>