<?xml version="1.0" encoding="UTF-8" standalone="no"?>
<!-- Created with Digital by H.Neemann -->
<!-- created: Sun May 18 19:20:28 CST 2025 -->

<svg
   xmlns:svg="http://www.w3.org/2000/svg"
   xmlns="http://www.w3.org/2000/svg"
   width="45.75mm"
   height="52.95mm"
   viewBox="1310 569 305 353">
<g stroke-linecap="square">
<path d="M 1420,700 L 1420,720 L 1480,720 L 1540,720 L 1540,700" stroke="#0000b2" stroke-width="4.0" fill="none"/>
<path d="M 1360,740 L 1360,800 L 1460,800" stroke="#0000b2" stroke-width="4.0" fill="none"/>
<path d="M 1440,840 L 1440,880 L 1460,880" stroke="#0000b2" stroke-width="4.0" fill="none"/>
<path d="M 1340,740 L 1360,740 L 1360,660 L 1400,660" stroke="#0000b2" stroke-width="4.0" fill="none"/>
<path d="M 1480,720 L 1480,740 L 1560,740" stroke="#0000b2" stroke-width="4.0" fill="none"/>
<path d="M 1340,840 L 1440,840 L 1440,660 L 1520,660" stroke="#0000b2" stroke-width="4.0" fill="none"/>
<path d="M 1540,580 L 1540,660" stroke="#0000b2" stroke-width="4.0" fill="none"/>
<path d="M 1480,800 L 1480,840" stroke="#0000b2" stroke-width="4.0" fill="none"/>
<path d="M 1480,880 L 1480,920" stroke="#0000b2" stroke-width="4.0" fill="none"/>
<path d="M 1480,740 L 1480,760" stroke="#0000b2" stroke-width="4.0" fill="none"/>
<path d="M 1420,580 L 1420,660" stroke="#0000b2" stroke-width="4.0" fill="none"/>
<path d="M 1470,920 L 1490,920" stroke="#000000" stroke-width="6.0" fill="none"/>
<path d="M 1408,675 L 1408,685" stroke="#000000" stroke-width="4.0" fill="none"/>
<path d="M 1401,660 L 1401,700" stroke="#000000" stroke-width="4.0" fill="none"/>
<path d="M 1528,675 L 1528,685" stroke="#000000" stroke-width="4.0" fill="none"/>
<path d="M 1521,660 L 1521,700" stroke="#000000" stroke-width="4.0" fill="none"/>
<path d="M 1468,775 L 1468,785" stroke="#000000" stroke-width="4.0" fill="none"/>
<path d="M 1461,760 L 1461,800" stroke="#000000" stroke-width="4.0" fill="none"/>
<path d="M 1468,855 L 1468,865" stroke="#000000" stroke-width="4.0" fill="none"/>
<path d="M 1461,840 L 1461,880" stroke="#000000" stroke-width="4.0" fill="none"/>
<path d="M 1420,574 L 1420,580" stroke="#000000" stroke-width="4.0" fill="none"/>
<path d="M 1540,574 L 1540,580" stroke="#000000" stroke-width="4.0" fill="none"/>
<path d="M 1408,680 L 1414,680" stroke="#000000" stroke-width="2.0" fill="none"/>
<path d="M 1528,680 L 1534,680" stroke="#000000" stroke-width="2.0" fill="none"/>
<path d="M 1475,780 L 1480,780" stroke="#000000" stroke-width="2.0" fill="none"/>
<path d="M 1475,860 L 1480,860" stroke="#000000" stroke-width="2.0" fill="none"/>
<g>
<circle cx="1480.0" cy="720.0" r="4.0" stroke="#0000b2" stroke-width="4.0" fill="#0000b2" />
<circle cx="1360.0" cy="740.0" r="4.0" stroke="#0000b2" stroke-width="4.0" fill="#0000b2" />
<circle cx="1480.0" cy="740.0" r="4.0" stroke="#0000b2" stroke-width="4.0" fill="#0000b2" />
<circle cx="1440.0" cy="840.0" r="4.0" stroke="#0000b2" stroke-width="4.0" fill="#0000b2" />
</g>
<g>
<path d="M 1420,660 L 1408,660 L 1408,665" stroke="#000000" stroke-width="4.0" fill="none"/>
<path d="M 1420,700 L 1408,700 L 1408,695" stroke="#000000" stroke-width="4.0" fill="none"/>
<text text-anchor="start" x="1430.0" y="700.0" fill="#808080" style="font-size:18px">M3</text>
<path d="M 1419,680 L 1414,678 L 1414,682 Z" stroke="#000000" stroke-width="2.0" fill="#000000" fill-opacity="1.0"/>
</g>
<g>
<path d="M 1540,660 L 1528,660 L 1528,665" stroke="#000000" stroke-width="4.0" fill="none"/>
<path d="M 1540,700 L 1528,700 L 1528,695" stroke="#000000" stroke-width="4.0" fill="none"/>
<text text-anchor="start" x="1550.0" y="700.0" fill="#808080" style="font-size:18px">M4</text>
<path d="M 1539,680 L 1534,678 L 1534,682 Z" stroke="#000000" stroke-width="2.0" fill="#000000" fill-opacity="1.0"/>
</g>
<g>
<path d="M 1480,760 L 1468,760 L 1468,765" stroke="#000000" stroke-width="4.0" fill="none"/>
<path d="M 1480,800 L 1468,800 L 1468,795" stroke="#000000" stroke-width="4.0" fill="none"/>
<text text-anchor="start" x="1490.0" y="800.0" fill="#808080" style="font-size:18px">M1</text>
<path d="M 1472,780 L 1477,778 L 1477,782 Z" stroke="#000000" stroke-width="2.0" fill="#000000" fill-opacity="1.0"/>
</g>
<g>
<path d="M 1480,840 L 1468,840 L 1468,845" stroke="#000000" stroke-width="4.0" fill="none"/>
<path d="M 1480,880 L 1468,880 L 1468,875" stroke="#000000" stroke-width="4.0" fill="none"/>
<text text-anchor="start" x="1490.0" y="880.0" fill="#808080" style="font-size:18px">M2</text>
<path d="M 1472,860 L 1477,858 L 1477,862 Z" stroke="#000000" stroke-width="2.0" fill="#000000" fill-opacity="1.0"/>
</g>
<g>
<circle cx="1336.0" cy="740.0" r="4.0" stroke="#000000" stroke-width="4.0" fill="none" />
<text text-anchor="end" x="1326.0" y="749.0" fill="#000000" style="font-size:24px"><tspan style="font-style:italic;">A</tspan></text>
</g>
<g>
<circle cx="1336.0" cy="840.0" r="4.0" stroke="#000000" stroke-width="4.0" fill="none" />
<text text-anchor="end" x="1326.0" y="849.0" fill="#000000" style="font-size:24px"><tspan style="font-style:italic;">B</tspan></text>
</g>
<g>
<path d="M 1410,584 L 1420,571 L 1430,584" stroke="#000000" stroke-width="4.0" fill="none"/>
</g>
<g>
<path d="M 1530,584 L 1540,571 L 1550,584" stroke="#000000" stroke-width="4.0" fill="none"/>
</g>
<g>
</g>
<g>
<circle cx="1564.0" cy="740.0" r="4.0" stroke="#000000" stroke-width="4.0" fill="none" />
<text text-anchor="start" x="1574.0" y="749.0" fill="#000000" style="font-size:24px"><tspan style="font-style:italic;">Out</tspan></text>
</g>
</g>
</svg>