<?xml version="1.0" encoding="UTF-8" standalone="no"?>
<!-- Created with Digital by H.Neemann -->
<!-- created: Sun May 18 19:21:47 CST 2025 -->

<svg
   xmlns:svg="http://www.w3.org/2000/svg"
   xmlns="http://www.w3.org/2000/svg"
   width="72.75mm"
   height="64.95mm"
   viewBox="1310 569 485 433">
<g stroke-linecap="square">
<path d="M 1420,700 L 1420,720 L 1540,720 L 1660,720 L 1660,700" stroke="#0000b2" stroke-width="4.0" fill="none"/>
<path d="M 1360,740 L 1360,800 L 1520,800" stroke="#0000b2" stroke-width="4.0" fill="none"/>
<path d="M 1480,840 L 1480,880 L 1520,880" stroke="#0000b2" stroke-width="4.0" fill="none"/>
<path d="M 1340,960 L 1480,960 L 1520,960" stroke="#0000b2" stroke-width="4.0" fill="none"/>
<path d="M 1340,740 L 1360,740 L 1360,660 L 1400,660" stroke="#0000b2" stroke-width="4.0" fill="none"/>
<path d="M 1540,760 L 1540,740 L 1740,740" stroke="#0000b2" stroke-width="4.0" fill="none"/>
<path d="M 1480,960 L 1480,900 L 1600,900 L 1600,660 L 1640,660" stroke="#0000b2" stroke-width="4.0" fill="none"/>
<path d="M 1340,840 L 1480,840 L 1480,660 L 1520,660" stroke="#0000b2" stroke-width="4.0" fill="none"/>
<path d="M 1540,580 L 1540,660" stroke="#0000b2" stroke-width="4.0" fill="none"/>
<path d="M 1540,800 L 1540,840" stroke="#0000b2" stroke-width="4.0" fill="none"/>
<path d="M 1540,960 L 1540,1000" stroke="#0000b2" stroke-width="4.0" fill="none"/>
<path d="M 1540,880 L 1540,920" stroke="#0000b2" stroke-width="4.0" fill="none"/>
<path d="M 1540,700 L 1540,720 L 1540,740" stroke="#0000b2" stroke-width="4.0" fill="none"/>
<path d="M 1420,580 L 1420,660" stroke="#0000b2" stroke-width="4.0" fill="none"/>
<path d="M 1660,580 L 1660,660" stroke="#0000b2" stroke-width="4.0" fill="none"/>
<path d="M 1530,1000 L 1550,1000" stroke="#000000" stroke-width="6.0" fill="none"/>
<path d="M 1408,675 L 1408,685" stroke="#000000" stroke-width="4.0" fill="none"/>
<path d="M 1401,660 L 1401,700" stroke="#000000" stroke-width="4.0" fill="none"/>
<path d="M 1528,675 L 1528,685" stroke="#000000" stroke-width="4.0" fill="none"/>
<path d="M 1521,660 L 1521,700" stroke="#000000" stroke-width="4.0" fill="none"/>
<path d="M 1528,775 L 1528,785" stroke="#000000" stroke-width="4.0" fill="none"/>
<path d="M 1521,760 L 1521,800" stroke="#000000" stroke-width="4.0" fill="none"/>
<path d="M 1528,855 L 1528,865" stroke="#000000" stroke-width="4.0" fill="none"/>
<path d="M 1521,840 L 1521,880" stroke="#000000" stroke-width="4.0" fill="none"/>
<path d="M 1420,574 L 1420,580" stroke="#000000" stroke-width="4.0" fill="none"/>
<path d="M 1540,574 L 1540,580" stroke="#000000" stroke-width="4.0" fill="none"/>
<path d="M 1528,935 L 1528,945" stroke="#000000" stroke-width="4.0" fill="none"/>
<path d="M 1521,920 L 1521,960" stroke="#000000" stroke-width="4.0" fill="none"/>
<path d="M 1660,574 L 1660,580" stroke="#000000" stroke-width="4.0" fill="none"/>
<path d="M 1648,675 L 1648,685" stroke="#000000" stroke-width="4.0" fill="none"/>
<path d="M 1641,660 L 1641,700" stroke="#000000" stroke-width="4.0" fill="none"/>
<path d="M 1408,680 L 1414,680" stroke="#000000" stroke-width="2.0" fill="none"/>
<path d="M 1528,680 L 1534,680" stroke="#000000" stroke-width="2.0" fill="none"/>
<path d="M 1535,780 L 1540,780" stroke="#000000" stroke-width="2.0" fill="none"/>
<path d="M 1535,860 L 1540,860" stroke="#000000" stroke-width="2.0" fill="none"/>
<path d="M 1535,940 L 1540,940" stroke="#000000" stroke-width="2.0" fill="none"/>
<path d="M 1648,680 L 1654,680" stroke="#000000" stroke-width="2.0" fill="none"/>
<g>
<circle cx="1540.0" cy="720.0" r="4.0" stroke="#0000b2" stroke-width="4.0" fill="#0000b2" />
<circle cx="1480.0" cy="960.0" r="4.0" stroke="#0000b2" stroke-width="4.0" fill="#0000b2" />
<circle cx="1360.0" cy="740.0" r="4.0" stroke="#0000b2" stroke-width="4.0" fill="#0000b2" />
<circle cx="1540.0" cy="740.0" r="4.0" stroke="#0000b2" stroke-width="4.0" fill="#0000b2" />
<circle cx="1480.0" cy="840.0" r="4.0" stroke="#0000b2" stroke-width="4.0" fill="#0000b2" />
</g>
<g>
<path d="M 1420,660 L 1408,660 L 1408,665" stroke="#000000" stroke-width="4.0" fill="none"/>
<path d="M 1420,700 L 1408,700 L 1408,695" stroke="#000000" stroke-width="4.0" fill="none"/>
<text text-anchor="start" x="1430.0" y="700.0" fill="#808080" style="font-size:18px">M4</text>
<path d="M 1419,680 L 1414,678 L 1414,682 Z" stroke="#000000" stroke-width="2.0" fill="#000000" fill-opacity="1.0"/>
</g>
<g>
<path d="M 1540,660 L 1528,660 L 1528,665" stroke="#000000" stroke-width="4.0" fill="none"/>
<path d="M 1540,700 L 1528,700 L 1528,695" stroke="#000000" stroke-width="4.0" fill="none"/>
<text text-anchor="start" x="1550.0" y="700.0" fill="#808080" style="font-size:18px">M5</text>
<path d="M 1539,680 L 1534,678 L 1534,682 Z" stroke="#000000" stroke-width="2.0" fill="#000000" fill-opacity="1.0"/>
</g>
<g>
<path d="M 1540,760 L 1528,760 L 1528,765" stroke="#000000" stroke-width="4.0" fill="none"/>
<path d="M 1540,800 L 1528,800 L 1528,795" stroke="#000000" stroke-width="4.0" fill="none"/>
<text text-anchor="start" x="1550.0" y="800.0" fill="#808080" style="font-size:18px">M1</text>
<path d="M 1532,780 L 1537,778 L 1537,782 Z" stroke="#000000" stroke-width="2.0" fill="#000000" fill-opacity="1.0"/>
</g>
<g>
<path d="M 1540,840 L 1528,840 L 1528,845" stroke="#000000" stroke-width="4.0" fill="none"/>
<path d="M 1540,880 L 1528,880 L 1528,875" stroke="#000000" stroke-width="4.0" fill="none"/>
<text text-anchor="start" x="1550.0" y="880.0" fill="#808080" style="font-size:18px">M2</text>
<path d="M 1532,860 L 1537,858 L 1537,862 Z" stroke="#000000" stroke-width="2.0" fill="#000000" fill-opacity="1.0"/>
</g>
<g>
<circle cx="1336.0" cy="740.0" r="4.0" stroke="#000000" stroke-width="4.0" fill="none" />
<text text-anchor="end" x="1326.0" y="749.0" fill="#000000" style="font-size:24px"><tspan style="font-style:italic;">A</tspan></text>
</g>
<g>
<circle cx="1336.0" cy="840.0" r="4.0" stroke="#000000" stroke-width="4.0" fill="none" />
<text text-anchor="end" x="1326.0" y="849.0" fill="#000000" style="font-size:24px"><tspan style="font-style:italic;">B</tspan></text>
</g>
<g>
<path d="M 1410,584 L 1420,571 L 1430,584" stroke="#000000" stroke-width="4.0" fill="none"/>
</g>
<g>
<path d="M 1530,584 L 1540,571 L 1550,584" stroke="#000000" stroke-width="4.0" fill="none"/>
</g>
<g>
</g>
<g>
<circle cx="1744.0" cy="740.0" r="4.0" stroke="#000000" stroke-width="4.0" fill="none" />
<text text-anchor="start" x="1754.0" y="749.0" fill="#000000" style="font-size:24px"><tspan style="font-style:italic;">Out</tspan></text>
</g>
<g>
<path d="M 1540,920 L 1528,920 L 1528,925" stroke="#000000" stroke-width="4.0" fill="none"/>
<path d="M 1540,960 L 1528,960 L 1528,955" stroke="#000000" stroke-width="4.0" fill="none"/>
<text text-anchor="start" x="1550.0" y="960.0" fill="#808080" style="font-size:18px">M3</text>
<path d="M 1532,940 L 1537,938 L 1537,942 Z" stroke="#000000" stroke-width="2.0" fill="#000000" fill-opacity="1.0"/>
</g>
<g>
<circle cx="1336.0" cy="960.0" r="4.0" stroke="#000000" stroke-width="4.0" fill="none" />
<text text-anchor="end" x="1326.0" y="969.0" fill="#000000" style="font-size:24px"><tspan style="font-style:italic;">C</tspan></text>
</g>
<g>
<path d="M 1650,584 L 1660,571 L 1670,584" stroke="#000000" stroke-width="4.0" fill="none"/>
</g>
<g>
<path d="M 1660,660 L 1648,660 L 1648,665" stroke="#000000" stroke-width="4.0" fill="none"/>
<path d="M 1660,700 L 1648,700 L 1648,695" stroke="#000000" stroke-width="4.0" fill="none"/>
<text text-anchor="start" x="1670.0" y="700.0" fill="#808080" style="font-size:18px">M6</text>
<path d="M 1659,680 L 1654,678 L 1654,682 Z" stroke="#000000" stroke-width="2.0" fill="#000000" fill-opacity="1.0"/>
</g>
</g>
</svg>