<?xml version="1.0" encoding="UTF-8" standalone="no"?>
<!-- Created with Digital by H.Neemann -->
<!-- created: Sun May 18 19:35:02 CST 2025 -->

<svg
   xmlns:svg="http://www.w3.org/2000/svg"
   xmlns="http://www.w3.org/2000/svg"
   width="57.75mm"
   height="73.95mm"
   viewBox="1390 689 385 493">
<g stroke-linecap="square">
<path d="M 1520,1080 L 1520,1040 L 1620,1040 L 1720,1040 L 1720,1080" stroke="#0000b2" stroke-width="4.0" fill="none"/>
<path d="M 1420,1040 L 1480,1040 L 1480,940 L 1600,940" stroke="#0000b2" stroke-width="4.0" fill="none"/>
<path d="M 1460,820 L 1460,1120 L 1500,1120" stroke="#0000b2" stroke-width="4.0" fill="none"/>
<path d="M 1560,920 L 1560,1120 L 1600,1120" stroke="#0000b2" stroke-width="4.0" fill="none"/>
<path d="M 1420,820 L 1460,820 L 1460,780 L 1600,780" stroke="#0000b2" stroke-width="4.0" fill="none"/>
<path d="M 1480,1040 L 1480,1060 L 1680,1060 L 1680,1120 L 1700,1120" stroke="#0000b2" stroke-width="4.0" fill="none"/>
<path d="M 1620,980 L 1620,1000 L 1720,1000" stroke="#0000b2" stroke-width="4.0" fill="none"/>
<path d="M 1420,920 L 1560,920 L 1560,860 L 1600,860" stroke="#0000b2" stroke-width="4.0" fill="none"/>
<path d="M 1520,1120 L 1520,1180" stroke="#0000b2" stroke-width="4.0" fill="none"/>
<path d="M 1620,1120 L 1620,1180" stroke="#0000b2" stroke-width="4.0" fill="none"/>
<path d="M 1620,900 L 1620,940" stroke="#0000b2" stroke-width="4.0" fill="none"/>
<path d="M 1620,820 L 1620,860" stroke="#0000b2" stroke-width="4.0" fill="none"/>
<path d="M 1620,700 L 1620,780" stroke="#0000b2" stroke-width="4.0" fill="none"/>
<path d="M 1620,1000 L 1620,1040 L 1620,1080" stroke="#0000b2" stroke-width="4.0" fill="none"/>
<path d="M 1720,1120 L 1720,1180" stroke="#0000b2" stroke-width="4.0" fill="none"/>
<path d="M 1610,1180 L 1630,1180" stroke="#000000" stroke-width="6.0" fill="none"/>
<path d="M 1510,1180 L 1530,1180" stroke="#000000" stroke-width="6.0" fill="none"/>
<path d="M 1710,1180 L 1730,1180" stroke="#000000" stroke-width="6.0" fill="none"/>
<path d="M 1508,1095 L 1508,1105" stroke="#000000" stroke-width="4.0" fill="none"/>
<path d="M 1501,1080 L 1501,1120" stroke="#000000" stroke-width="4.0" fill="none"/>
<path d="M 1608,1095 L 1608,1105" stroke="#000000" stroke-width="4.0" fill="none"/>
<path d="M 1601,1080 L 1601,1120" stroke="#000000" stroke-width="4.0" fill="none"/>
<path d="M 1608,955 L 1608,965" stroke="#000000" stroke-width="4.0" fill="none"/>
<path d="M 1601,940 L 1601,980" stroke="#000000" stroke-width="4.0" fill="none"/>
<path d="M 1608,875 L 1608,885" stroke="#000000" stroke-width="4.0" fill="none"/>
<path d="M 1601,860 L 1601,900" stroke="#000000" stroke-width="4.0" fill="none"/>
<path d="M 1620,694 L 1620,700" stroke="#000000" stroke-width="4.0" fill="none"/>
<path d="M 1608,795 L 1608,805" stroke="#000000" stroke-width="4.0" fill="none"/>
<path d="M 1601,780 L 1601,820" stroke="#000000" stroke-width="4.0" fill="none"/>
<path d="M 1708,1095 L 1708,1105" stroke="#000000" stroke-width="4.0" fill="none"/>
<path d="M 1701,1080 L 1701,1120" stroke="#000000" stroke-width="4.0" fill="none"/>
<path d="M 1515,1100 L 1520,1100" stroke="#000000" stroke-width="2.0" fill="none"/>
<path d="M 1615,1100 L 1620,1100" stroke="#000000" stroke-width="2.0" fill="none"/>
<path d="M 1608,960 L 1614,960" stroke="#000000" stroke-width="2.0" fill="none"/>
<path d="M 1608,880 L 1614,880" stroke="#000000" stroke-width="2.0" fill="none"/>
<path d="M 1608,800 L 1614,800" stroke="#000000" stroke-width="2.0" fill="none"/>
<path d="M 1715,1100 L 1720,1100" stroke="#000000" stroke-width="2.0" fill="none"/>
<g>
<circle cx="1620.0" cy="1040.0" r="4.0" stroke="#0000b2" stroke-width="4.0" fill="#0000b2" />
<circle cx="1480.0" cy="1040.0" r="4.0" stroke="#0000b2" stroke-width="4.0" fill="#0000b2" />
<circle cx="1460.0" cy="820.0" r="4.0" stroke="#0000b2" stroke-width="4.0" fill="#0000b2" />
<circle cx="1620.0" cy="1000.0" r="4.0" stroke="#0000b2" stroke-width="4.0" fill="#0000b2" />
<circle cx="1560.0" cy="920.0" r="4.0" stroke="#0000b2" stroke-width="4.0" fill="#0000b2" />
</g>
<g>
<path d="M 1520,1080 L 1508,1080 L 1508,1085" stroke="#000000" stroke-width="4.0" fill="none"/>
<path d="M 1520,1120 L 1508,1120 L 1508,1115" stroke="#000000" stroke-width="4.0" fill="none"/>
<text text-anchor="start" x="1530.0" y="1120.0" fill="#808080" style="font-size:18px">M1</text>
<path d="M 1512,1100 L 1517,1098 L 1517,1102 Z" stroke="#000000" stroke-width="2.0" fill="#000000" fill-opacity="1.0"/>
</g>
<g>
<path d="M 1620,1080 L 1608,1080 L 1608,1085" stroke="#000000" stroke-width="4.0" fill="none"/>
<path d="M 1620,1120 L 1608,1120 L 1608,1115" stroke="#000000" stroke-width="4.0" fill="none"/>
<text text-anchor="start" x="1630.0" y="1120.0" fill="#808080" style="font-size:18px">M2</text>
<path d="M 1612,1100 L 1617,1098 L 1617,1102 Z" stroke="#000000" stroke-width="2.0" fill="#000000" fill-opacity="1.0"/>
</g>
<g>
<path d="M 1620,940 L 1608,940 L 1608,945" stroke="#000000" stroke-width="4.0" fill="none"/>
<path d="M 1620,980 L 1608,980 L 1608,975" stroke="#000000" stroke-width="4.0" fill="none"/>
<text text-anchor="start" x="1630.0" y="980.0" fill="#808080" style="font-size:18px">M6</text>
<path d="M 1619,960 L 1614,958 L 1614,962 Z" stroke="#000000" stroke-width="2.0" fill="#000000" fill-opacity="1.0"/>
</g>
<g>
<path d="M 1620,860 L 1608,860 L 1608,865" stroke="#000000" stroke-width="4.0" fill="none"/>
<path d="M 1620,900 L 1608,900 L 1608,895" stroke="#000000" stroke-width="4.0" fill="none"/>
<text text-anchor="start" x="1630.0" y="900.0" fill="#808080" style="font-size:18px">M5</text>
<path d="M 1619,880 L 1614,878 L 1614,882 Z" stroke="#000000" stroke-width="2.0" fill="#000000" fill-opacity="1.0"/>
</g>
<g>
<path d="M 1610,704 L 1620,691 L 1630,704" stroke="#000000" stroke-width="4.0" fill="none"/>
</g>
<g>
</g>
<g>
</g>
<g>
<circle cx="1416.0" cy="820.0" r="4.0" stroke="#000000" stroke-width="4.0" fill="none" />
<text text-anchor="end" x="1406.0" y="829.0" fill="#000000" style="font-size:24px"><tspan style="font-style:italic;">A</tspan></text>
</g>
<g>
<circle cx="1416.0" cy="920.0" r="4.0" stroke="#000000" stroke-width="4.0" fill="none" />
<text text-anchor="end" x="1406.0" y="929.0" fill="#000000" style="font-size:24px"><tspan style="font-style:italic;">B</tspan></text>
</g>
<g>
<circle cx="1724.0" cy="1000.0" r="4.0" stroke="#000000" stroke-width="4.0" fill="none" />
<text text-anchor="start" x="1734.0" y="1009.0" fill="#000000" style="font-size:24px"><tspan style="font-style:italic;">Out</tspan></text>
</g>
<g>
<path d="M 1620,780 L 1608,780 L 1608,785" stroke="#000000" stroke-width="4.0" fill="none"/>
<path d="M 1620,820 L 1608,820 L 1608,815" stroke="#000000" stroke-width="4.0" fill="none"/>
<text text-anchor="start" x="1630.0" y="820.0" fill="#808080" style="font-size:18px">M4</text>
<path d="M 1619,800 L 1614,798 L 1614,802 Z" stroke="#000000" stroke-width="2.0" fill="#000000" fill-opacity="1.0"/>
</g>
<g>
<path d="M 1720,1080 L 1708,1080 L 1708,1085" stroke="#000000" stroke-width="4.0" fill="none"/>
<path d="M 1720,1120 L 1708,1120 L 1708,1115" stroke="#000000" stroke-width="4.0" fill="none"/>
<text text-anchor="start" x="1730.0" y="1120.0" fill="#808080" style="font-size:18px">M3</text>
<path d="M 1712,1100 L 1717,1098 L 1717,1102 Z" stroke="#000000" stroke-width="2.0" fill="#000000" fill-opacity="1.0"/>
</g>
<g>
<circle cx="1416.0" cy="1040.0" r="4.0" stroke="#000000" stroke-width="4.0" fill="none" />
<text text-anchor="end" x="1406.0" y="1049.0" fill="#000000" style="font-size:24px"><tspan style="font-style:italic;">C</tspan></text>
</g>
<g>
</g>
</g>
</svg>