<?xml version="1.0" encoding="UTF-8" standalone="no"?>
<!-- Created with Digital by H.Neemann -->
<!-- created: Fri May 16 08:25:40 CST 2025 -->

<svg
   xmlns:svg="http://www.w3.org/2000/svg"
   xmlns="http://www.w3.org/2000/svg"
   width="70.2mm"
   height="39.6mm"
   viewBox="374 179 468 264">
<g stroke-linecap="square">
<path d="M 840,290 L 840,310" stroke="#000000" stroke-width="6.0" fill="none"/>
<path d="M 680,220 L 680,320 L 700,320" stroke="#0000b2" stroke-width="4.0" fill="none"/>
<path d="M 480,220 L 480,320 L 520,320" stroke="#0000b2" stroke-width="4.0" fill="none"/>
<path d="M 580,320 L 640,320 L 640,400" stroke="#0000b2" stroke-width="4.0" fill="none"/>
<path d="M 760,320 L 820,320 L 820,400" stroke="#0000b2" stroke-width="4.0" fill="none"/>
<path d="M 440,340 L 520,340" stroke="#0000b2" stroke-width="4.0" fill="none"/>
<path d="M 580,340 L 600,340 L 600,400" stroke="#0000b2" stroke-width="4.0" fill="none"/>
<path d="M 760,340 L 780,340 L 780,400" stroke="#0000b2" stroke-width="4.0" fill="none"/>
<path d="M 580,300 L 660,300 L 660,340 L 700,340" stroke="#0000b2" stroke-width="4.0" fill="none"/>
<path d="M 760,300 L 840,300" stroke="#0000b2" stroke-width="4.0" fill="none"/>
<g>
</g>
<g>
<path d="M 579,354 L 521,354 L 521,286 L 579,286 Z" stroke="#ffffb4" stroke-width="0.0" fill="#ffffb4" fill-opacity="0.7843137254901961"/>
<path d="M 579,354 L 521,354 L 521,286 L 579,286 Z" stroke="#000000" stroke-width="4.0" fill="none"/>
<text text-anchor="end" x="576.0" y="346.75" fill="#808080" style="font-size:18px">A</text>
<text text-anchor="end" x="576.0" y="326.75" fill="#808080" style="font-size:18px">B</text>
<text text-anchor="end" x="576.0" y="306.75" fill="#808080" style="font-size:18px">C<tspan style="font-size:80%;baseline-shift:sub;">in</tspan></text>
<text text-anchor="start" x="524.0" y="346.75" fill="#808080" style="font-size:18px">C<tspan style="font-size:80%;baseline-shift:sub;">out</tspan></text>
<text text-anchor="start" x="524.0" y="326.75" fill="#808080" style="font-size:18px">S</text>
<text text-anchor="middle" x="550.0" y="282.0" fill="#808080" style="font-size:18px">fulladder</text>
</g>
<g>
<path d="M 759,354 L 701,354 L 701,286 L 759,286 Z" stroke="#ffffb4" stroke-width="0.0" fill="#ffffb4" fill-opacity="0.7843137254901961"/>
<path d="M 759,354 L 701,354 L 701,286 L 759,286 Z" stroke="#000000" stroke-width="4.0" fill="none"/>
<text text-anchor="end" x="756.0" y="346.75" fill="#808080" style="font-size:18px">A</text>
<text text-anchor="end" x="756.0" y="326.75" fill="#808080" style="font-size:18px">B</text>
<text text-anchor="end" x="756.0" y="306.75" fill="#808080" style="font-size:18px">C<tspan style="font-size:80%;baseline-shift:sub;">in</tspan></text>
<text text-anchor="start" x="704.0" y="346.75" fill="#808080" style="font-size:18px">C<tspan style="font-size:80%;baseline-shift:sub;">out</tspan></text>
<text text-anchor="start" x="704.0" y="326.75" fill="#808080" style="font-size:18px">S</text>
<text text-anchor="middle" x="730.0" y="282.0" fill="#808080" style="font-size:18px">fulladder</text>
</g>
<g>
<circle cx="680.0" cy="216.0" r="4.0" stroke="#000000" stroke-width="4.0" fill="none" />
<text text-anchor="start" x="680.0" y="215.0" fill="#000000" style="font-size:24px" transform="rotate(-90,680.0,206.0)" ><tspan style="font-style:italic;">S<tspan style="font-size:80%;baseline-shift:sub;">0</tspan></tspan></text>
</g>
<g>
<circle cx="480.0" cy="216.0" r="4.0" stroke="#000000" stroke-width="4.0" fill="none" />
<text text-anchor="start" x="480.0" y="215.0" fill="#000000" style="font-size:24px" transform="rotate(-90,480.0,206.0)" ><tspan style="font-style:italic;">S<tspan style="font-size:80%;baseline-shift:sub;">1</tspan></tspan></text>
</g>
<g>
<circle cx="436.0" cy="340.0" r="4.0" stroke="#000000" stroke-width="4.0" fill="none" />
<text text-anchor="end" x="426.0" y="349.0" fill="#000000" style="font-size:24px"><tspan style="font-style:italic;">C<tspan style="font-size:80%;baseline-shift:sub;">out</tspan></tspan></text>
</g>
<g>
<circle cx="780.0" cy="404.0" r="4.0" stroke="#000000" stroke-width="4.0" fill="none" />
<text text-anchor="end" x="780.0" y="423.0" fill="#000000" style="font-size:24px" transform="rotate(-90,780.0,414.0)" ><tspan style="font-style:italic;">A<tspan style="font-size:80%;baseline-shift:sub;">0</tspan></tspan></text>
</g>
<g>
<circle cx="820.0" cy="404.0" r="4.0" stroke="#000000" stroke-width="4.0" fill="none" />
<text text-anchor="end" x="820.0" y="423.0" fill="#000000" style="font-size:24px" transform="rotate(-90,820.0,414.0)" ><tspan style="font-style:italic;">B<tspan style="font-size:80%;baseline-shift:sub;">0</tspan></tspan></text>
</g>
<g>
<circle cx="600.0" cy="404.0" r="4.0" stroke="#000000" stroke-width="4.0" fill="none" />
<text text-anchor="end" x="600.0" y="423.0" fill="#000000" style="font-size:24px" transform="rotate(-90,600.0,414.0)" ><tspan style="font-style:italic;">A<tspan style="font-size:80%;baseline-shift:sub;">0</tspan></tspan></text>
</g>
<g>
<circle cx="640.0" cy="404.0" r="4.0" stroke="#000000" stroke-width="4.0" fill="none" />
<text text-anchor="end" x="640.0" y="423.0" fill="#000000" style="font-size:24px" transform="rotate(-90,640.0,414.0)" ><tspan style="font-style:italic;">B<tspan style="font-size:80%;baseline-shift:sub;">1</tspan></tspan></text>
</g>
<g>
</g>
</g>
</svg>