<?xml version="1.0" encoding="UTF-8" standalone="no"?>
<!-- Created with Digital by H.Neemann -->
<!-- created: Thu May 15 07:04:48 CST 2025 -->

<svg
   xmlns:svg="http://www.w3.org/2000/svg"
   xmlns="http://www.w3.org/2000/svg"
   width="40.5mm"
   height="10.2mm"
   viewBox="1403 766 270 68">
<g stroke-linecap="square">
<path d="M 1580,800 L 1640,800" stroke="#0000b2" stroke-width="4.0" fill="none"/>
<path d="M 1440,820 L 1500,820 L 1514,820" stroke="#0000b2" stroke-width="4.0" fill="none"/>
<path d="M 1440,780 L 1500,780 L 1514,780" stroke="#0000b2" stroke-width="4.0" fill="none"/>
<g>
</g>
<g>
<path d="M 1530,830 L 1510,830 C 1520,814 1520,786 1510,770 L 1530,770 C 1550,770 1570,780 1580,800 C 1570,820 1550,830 1530,830 Z" stroke="#000000" stroke-width="4.0" fill="none"/>
<path d="M 1500,830 C 1510,820 1510,780 1500,770" stroke="#000000" stroke-width="4.0" fill="none"/>
</g>
<g>
<circle cx="1436.0" cy="780.0" r="4.0" stroke="#000000" stroke-width="4.0" fill="none" />
<text text-anchor="end" x="1426.0" y="789.0" fill="#000000" style="font-size:24px"><tspan style="font-style:italic;">I<tspan style="font-size:80%;baseline-shift:sub;">1</tspan></tspan></text>
</g>
<g>
<circle cx="1436.0" cy="820.0" r="4.0" stroke="#000000" stroke-width="4.0" fill="none" />
<text text-anchor="end" x="1426.0" y="829.0" fill="#000000" style="font-size:24px"><tspan style="font-style:italic;">I<tspan style="font-size:80%;baseline-shift:sub;">0</tspan></tspan></text>
</g>
<g>
<circle cx="1644.0" cy="800.0" r="4.0" stroke="#000000" stroke-width="4.0" fill="none" />
<text text-anchor="start" x="1654.0" y="809.0" fill="#000000" style="font-size:24px"><tspan style="font-style:italic;">O</tspan></text>
</g>
</g>
</svg>